<?xml version="1.0" encoding="UTF-8" standalone="no"?><!DOCTYPE svg PUBLIC "-//W3C//DTD SVG 1.1//EN" "http://www.w3.org/Graphics/SVG/1.1/DTD/svg11.dtd"><svg width="100%" height="100%" viewBox="0 0 846 105" version="1.1" xmlns="http://www.w3.org/2000/svg" xmlns:xlink="http://www.w3.org/1999/xlink" xml:space="preserve" xmlns:serif="http://www.serif.com/" style="fill-rule:evenodd;clip-rule:evenodd;stroke-linejoin:round;stroke-miterlimit:2;"><path d="M84.093,102.974l-48.732,0c-1.848,-0.001 -3.622,-0.737 -4.928,-2.044l-13.347,-13.348c-1.31,-1.304 -2.047,-3.079 -2.045,-4.928l0,-80.094c0,-0.38 0.314,-0.694 0.694,-0.694l16.048,0c0.381,0 0.695,0.314 0.695,0.694l-0,79.506c-0,1.91 1.571,3.482 3.481,3.482l48.134,-0c0.386,-0 0.704,0.317 0.704,0.704l-0,16.067c-0.026,0.367 -0.336,0.656 -0.704,0.655Z" style="fill:#eb0037;fill-rule:nonzero;"/><path d="M447.403,59.084l-13.347,-13.347c-1.313,-1.303 -3.089,-2.035 -4.938,-2.035l-38.943,-0c-1.911,-0 -3.485,-1.57 -3.491,-3.482l0,-17.436c0,-1.91 1.572,-3.481 3.482,-3.481l55.096,-0c0.383,-0.006 0.695,-0.322 0.695,-0.705l-0,-16.038c-0,-0.38 -0.314,-0.694 -0.695,-0.694l-55.704,0c-1.848,0.001 -3.622,0.737 -4.928,2.045l-13.347,13.347c-1.31,1.304 -2.047,3.079 -2.045,4.928l0,18.642c0.002,1.846 0.734,3.619 2.035,4.928l13.357,13.348c1.307,1.306 3.08,2.042 4.928,2.044l38.943,0c1.915,0 3.491,1.576 3.491,3.491l0,17.427c0,1.915 -1.576,3.491 -3.491,3.491l-55.087,0c-0.381,0 -0.694,0.314 -0.694,0.695l-0,16.067c-0,0.38 0.313,0.694 0.694,0.694l55.666,-0c1.851,0 3.628,-0.736 4.937,-2.045l13.348,-13.347c1.306,-1.307 2.042,-3.08 2.044,-4.928l0,-18.671c0.007,-1.845 -0.715,-3.62 -2.006,-4.938Z" style="fill:#eb0037;fill-rule:nonzero;"/><path d="M183.166,1.866c-0.386,0.001 -0.702,0.319 -0.702,0.704c0,0.052 0.006,0.104 0.017,0.154l23.522,99.701c0.072,0.319 0.357,0.548 0.685,0.549l34.863,0c0.304,-0.002 0.574,-0.202 0.665,-0.492l23.532,-99.758c0.013,-0.053 0.02,-0.108 0.02,-0.164c-0,-0.38 -0.314,-0.694 -0.695,-0.694l-17.938,0c-0.324,-0.003 -0.607,0.224 -0.675,0.54l-18.739,82.553c-0.071,0.32 -0.357,0.549 -0.684,0.55l-5.835,-0c-0.327,-0.001 -0.613,-0.23 -0.685,-0.55l-18.902,-82.582c-0.068,-0.316 -0.352,-0.543 -0.675,-0.54l-17.774,0.029Z" style="fill:#eb0037;fill-rule:nonzero;"/><path d="M298.933,19.303l58.53,-0c0.381,-0 0.694,-0.314 0.694,-0.695l0,-16.048c0,-0.38 -0.313,-0.694 -0.694,-0.694l-59.128,0c-1.867,-0.001 -3.659,0.75 -4.967,2.083l-13.308,13.309c-1.308,1.306 -2.044,3.08 -2.045,4.928l0,60.468c-0.002,1.849 0.735,3.624 2.045,4.928l13.308,13.348c1.305,1.309 3.08,2.045 4.929,2.044l59.204,0c0.383,0 0.699,-0.312 0.704,-0.694l0,-16.038c0,-0.386 -0.317,-0.704 -0.704,-0.704l-58.568,-0c-1.91,-0 -3.481,-1.572 -3.481,-3.482l-0,-17.436c-0,-1.91 1.571,-3.482 3.481,-3.482l41.142,0c0.381,0 0.694,-0.313 0.694,-0.694l-0,-16.067c0,-0.383 -0.312,-0.699 -0.694,-0.704l-41.142,0c-1.91,0 -3.481,-1.572 -3.481,-3.481l-0,-17.408c-0,-1.91 1.571,-3.481 3.481,-3.481Z" style="fill:#eb0037;fill-rule:nonzero;"/><path d="M829.366,1.866l-78.792,0c-0.381,0 -0.695,0.314 -0.695,0.694l0,16.048c0,0.381 0.314,0.695 0.695,0.695l27.206,-0c1.806,0.004 3.327,1.41 3.471,3.211l0,79.805c0,0.38 0.314,0.694 0.695,0.694l16.057,-0c0.007,0 0.013,0 0.019,0c0.381,0 0.695,-0.313 0.695,-0.694c-0,-0 -0,-0 -0,-0l-0,-79.805c0.145,-1.801 1.665,-3.207 3.472,-3.211l27.196,-0c0.382,-0 0.699,-0.312 0.704,-0.695l-0,-16.048c-0.005,-0.382 -0.321,-0.694 -0.704,-0.694c-0.006,-0 -0.013,-0 -0.019,0Z" style="fill:#eb0037;fill-rule:nonzero;"/><path d="M636.272,17.258l-13.347,-13.309c-1.304,-1.31 -3.079,-2.046 -4.928,-2.044l-46.542,-0c-1.848,0.001 -3.622,0.737 -4.928,2.044l-13.348,13.309c-1.307,1.306 -2.043,3.08 -2.044,4.928l-0,60.468c-0.002,1.849 0.734,3.624 2.044,4.928l13.348,13.348c1.306,1.307 3.08,2.043 4.928,2.044l46.542,0c1.849,0.002 3.624,-0.734 4.928,-2.044l13.347,-13.348c1.31,-1.305 2.046,-3.079 2.045,-4.928l-0,-60.468c-0.001,-1.848 -0.737,-3.622 -2.045,-4.928Zm-15.392,64.808c-0.005,1.903 -1.569,3.467 -3.471,3.472l-45.327,-0c-1.91,-0 -3.482,-1.572 -3.482,-3.482l0,-59.272c0,-1.91 1.572,-3.481 3.482,-3.481l45.327,-0c1.91,-0 3.481,1.571 3.481,3.481l-0.01,59.282Z" style="fill:#eb0037;fill-rule:nonzero;"/><path d="M739.444,22.186c-0.005,-1.847 -0.74,-3.619 -2.044,-4.928l-13.077,-13.309c-1.31,-1.309 -3.087,-2.045 -4.938,-2.044l-66.428,-0c-0.383,-0 -0.699,0.311 -0.704,0.694l-0,99.72c0.005,0.382 0.321,0.694 0.704,0.694l16.038,-0c0.381,-0 0.694,-0.314 0.694,-0.694l0,-37.728c0.018,-1.789 1.409,-3.29 3.192,-3.443l22.538,0l24.11,41.826l20.166,0l-24.11,-41.826l3.858,0c1.849,-0 3.625,-0.732 4.937,-2.035l13.078,-13.357c1.306,-1.307 2.042,-3.08 2.044,-4.928l-0.058,-18.642Zm-17.417,18.044c0,1.915 -1.576,3.491 -3.491,3.491l-45.327,0c-1.897,-0.005 -3.46,-1.555 -3.481,-3.452l-0,-17.514c0.02,-1.886 1.566,-3.432 3.452,-3.452l45.395,-0c1.911,-0.001 3.486,1.569 3.491,3.481l-0.039,17.446Z" style="fill:#eb0037;fill-rule:nonzero;"/><path d="M540.69,22.186c-0.005,-1.847 -0.741,-3.619 -2.044,-4.928l-13.078,-13.309c-1.309,-1.309 -3.086,-2.045 -4.937,-2.044l-59.456,-0c-0.381,-0 -0.694,0.313 -0.694,0.694l-0,99.72c-0,0.38 0.313,0.694 0.694,0.694l16.038,-0c0.383,-0 0.699,-0.312 0.704,-0.694l0,-37.728c0.013,-1.788 1.401,-3.289 3.183,-3.443l39.54,0c1.849,-0 3.625,-0.732 4.938,-2.035l13.077,-13.357c1.307,-1.307 2.043,-3.08 2.045,-4.928l-0.01,-18.642Zm-17.417,18.044c0,1.915 -1.576,3.491 -3.491,3.491l-38.383,0c-1.901,0.006 -3.471,-1.551 -3.482,-3.452l0,-17.514c0.016,-1.888 1.565,-3.437 3.453,-3.452l38.412,-0c1.911,-0.001 3.486,1.569 3.491,3.481l0,17.446Z" style="fill:#eb0037;fill-rule:nonzero;"/><path d="M148.129,19.293l23.724,-0c0.387,-0 0.704,-0.318 0.704,-0.704l0,-16.029c-0.005,-0.382 -0.321,-0.694 -0.704,-0.694l-71.829,0c-0.38,0 -0.694,0.314 -0.694,0.694l0,16.029c0,0.382 0.312,0.699 0.694,0.704l23.725,-0c1.808,-0.001 3.331,1.408 3.472,3.211l-0,59.793c-0.136,1.807 -1.66,3.222 -3.472,3.222l-23.725,-0c-0.38,-0 -0.694,0.313 -0.694,0.694l0,16.106c0,0.38 0.314,0.694 0.694,0.694l71.829,-0c0.383,-0 0.699,-0.312 0.704,-0.694l0,-16.087c-0.005,-0.382 -0.321,-0.694 -0.704,-0.694l-23.724,-0c-1.807,-0.004 -3.327,-1.411 -3.472,-3.212l0,-59.793c0.126,-1.814 1.653,-3.239 3.472,-3.24Z" style="fill:#eb0037;fill-rule:nonzero;"/></svg>