<svg id="AW" xmlns="http://www.w3.org/2000/svg" viewBox="0 0 845.11 104.84">
  <defs>
    <style>
      .cls-1 {
        fill: #eb0037;
      }
    </style>
  </defs>
  <path class="cls-1"
    d="M162,209.68H111.47a7.23,7.23,0,0,1-5.11-2.12L92.52,193.72a7.2,7.2,0,0,1-2.12-5.11V105.56a.72.72,0,0,1,.72-.72h16.64a.72.72,0,0,1,.72.72V188a3.61,3.61,0,0,0,3.61,3.61H162a.73.73,0,0,1,.73.73V209A.73.73,0,0,1,162,209.68Z"
    transform="translate(-90.4 -104.84)" />
  <path class="cls-1"
    d="M538.72,164.17l-13.84-13.84a7.27,7.27,0,0,0-5.12-2.11H479.38a3.62,3.62,0,0,1-3.62-3.61V126.53a3.61,3.61,0,0,1,3.61-3.61H536.5a.73.73,0,0,0,.72-.73V105.56a.72.72,0,0,0-.72-.72H478.74a7.23,7.23,0,0,0-5.11,2.12L459.79,120.8a7.2,7.2,0,0,0-2.12,5.11l0,19.33a7.26,7.26,0,0,0,2.11,5.11l13.85,13.84a7.24,7.24,0,0,0,5.11,2.12l40.38,0a3.62,3.62,0,0,1,3.62,3.62V188a3.62,3.62,0,0,1-3.62,3.62H462a.72.72,0,0,0-.72.72V209a.72.72,0,0,0,.72.72h57.72a7.24,7.24,0,0,0,5.12-2.12l13.84-13.84a7.24,7.24,0,0,0,2.12-5.11V169.29A7.28,7.28,0,0,0,538.72,164.17Z"
    transform="translate(-90.4 -104.84)" />
  <path class="cls-1"
    d="M264.73,104.84a.73.73,0,0,0-.71.89l24.39,103.38a.73.73,0,0,0,.71.57h36.15a.73.73,0,0,0,.69-.51l24.4-103.44a.72.72,0,0,0-.7-.89h-18.6a.71.71,0,0,0-.7.56L310.93,191a.73.73,0,0,1-.71.57h-6.05a.73.73,0,0,1-.71-.57l-19.6-85.63a.71.71,0,0,0-.7-.56Z"
    transform="translate(-90.4 -104.84)" />
  <path class="cls-1"
    d="M384.77,122.92h60.69a.72.72,0,0,0,.72-.72V105.56a.72.72,0,0,0-.72-.72H384.15A7.21,7.21,0,0,0,379,107L365.2,120.8a7.23,7.23,0,0,0-2.12,5.11v62.7a7.2,7.2,0,0,0,2.12,5.11L379,207.56a7.21,7.21,0,0,0,5.11,2.12H445.5a.73.73,0,0,0,.73-.72V192.33a.73.73,0,0,0-.73-.73H384.77a3.61,3.61,0,0,1-3.61-3.61V169.91a3.61,3.61,0,0,1,3.61-3.61l42.66,0a.72.72,0,0,0,.72-.72V148.92a.73.73,0,0,0-.72-.73l-42.66,0a3.61,3.61,0,0,1-3.61-3.61V126.53A3.61,3.61,0,0,1,384.77,122.92Z"
    transform="translate(-90.4 -104.84)" />
  <path class="cls-1"
    d="M934.78,104.84h-81.7a.72.72,0,0,0-.72.72V122.2a.72.72,0,0,0,.72.72h28.21a3.62,3.62,0,0,1,3.6,3.33V209a.72.72,0,0,0,.72.72h16.65A.72.72,0,0,0,903,209V126.25a3.62,3.62,0,0,1,3.6-3.33h28.2a.73.73,0,0,0,.73-.72V105.56A.73.73,0,0,0,934.78,104.84Z"
    transform="translate(-90.4 -104.84)" />
  <path class="cls-1"
    d="M734.56,120.8,720.72,107a7.2,7.2,0,0,0-5.11-2.12H667.35a7.23,7.23,0,0,0-5.11,2.12L648.4,120.8a7.23,7.23,0,0,0-2.12,5.11v62.7a7.2,7.2,0,0,0,2.12,5.11l13.84,13.84a7.23,7.23,0,0,0,5.11,2.12h48.26a7.2,7.2,0,0,0,5.11-2.12l13.84-13.84a7.21,7.21,0,0,0,2.12-5.11v-62.7A7.23,7.23,0,0,0,734.56,120.8ZM718.6,188A3.61,3.61,0,0,1,715,191.6H668a3.61,3.61,0,0,1-3.61-3.61V126.53a3.61,3.61,0,0,1,3.61-3.61h47a3.61,3.61,0,0,1,3.61,3.61Z"
    transform="translate(-90.4 -104.84)" />
  <path class="cls-1"
    d="M841.54,125.91a7.27,7.27,0,0,0-2.12-5.11L825.86,107a7.24,7.24,0,0,0-5.12-2.12H751.86a.73.73,0,0,0-.73.72V209a.73.73,0,0,0,.73.72h16.63a.72.72,0,0,0,.72-.72V169.88a3.62,3.62,0,0,1,3.31-3.57h23.37l25,43.37H841.8l-25-43.37h4a7.27,7.27,0,0,0,5.12-2.11l13.56-13.85a7.24,7.24,0,0,0,2.12-5.11Zm-18.06,18.71a3.62,3.62,0,0,1-3.62,3.62l-47,0a3.62,3.62,0,0,1-3.61-3.58V126.5a3.62,3.62,0,0,1,3.58-3.58h47.07a3.62,3.62,0,0,1,3.62,3.61Z"
    transform="translate(-90.4 -104.84)" />
  <path class="cls-1"
    d="M635.45,125.91a7.27,7.27,0,0,0-2.12-5.11L619.77,107a7.24,7.24,0,0,0-5.12-2.12H553a.72.72,0,0,0-.72.72V209a.72.72,0,0,0,.72.72h16.63a.73.73,0,0,0,.73-.72V169.88a3.61,3.61,0,0,1,3.3-3.57h41a7.27,7.27,0,0,0,5.12-2.11l13.56-13.85a7.24,7.24,0,0,0,2.12-5.11Zm-18.06,18.71a3.62,3.62,0,0,1-3.62,3.62l-39.8,0a3.6,3.6,0,0,1-3.61-3.58V126.5a3.61,3.61,0,0,1,3.58-3.58h39.83a3.62,3.62,0,0,1,3.62,3.61Z"
    transform="translate(-90.4 -104.84)" />
  <path class="cls-1"
    d="M228.4,122.91H253a.73.73,0,0,0,.73-.73V105.56a.73.73,0,0,0-.73-.72H178.52a.72.72,0,0,0-.72.72v16.62a.73.73,0,0,0,.72.73h24.6a3.61,3.61,0,0,1,3.6,3.33v62a3.61,3.61,0,0,1-3.6,3.34h-24.6a.72.72,0,0,0-.72.72V209a.72.72,0,0,0,.72.72H253a.73.73,0,0,0,.73-.72V192.32a.73.73,0,0,0-.73-.72H228.4a3.62,3.62,0,0,1-3.6-3.33v-62A3.61,3.61,0,0,1,228.4,122.91Z"
    transform="translate(-90.4 -104.84)" />
</svg>