<?xml version="1.0" standalone="no"?>
<!DOCTYPE svg PUBLIC "-//W3C//DTD SVG 20010904//EN"
 "http://www.w3.org/TR/2001/REC-SVG-20010904/DTD/svg10.dtd">
<svg version="1.0" xmlns="http://www.w3.org/2000/svg"
 width="1195.000000pt" height="1195.000000pt" viewBox="0 0 1195.000000 1195.000000"
 preserveAspectRatio="xMidYMid meet">
<g transform="translate(0.000000,1195.000000) scale(0.100000,-0.100000)"
fill="#000000" stroke="none">
<path d="M0 5975 l0 -5955 5975 0 5975 0 0 5955 0 5955 -5975 0 -5975 0 0
-5955z m7600 1189 c113 -32 209 -61 214 -65 21 -18 -112 -236 -221 -363 l-59
-68 51 -52 c104 -107 145 -226 145 -421 0 -211 -47 -332 -174 -452 -79 -76
-140 -112 -248 -149 -134 -46 -352 -66 -480 -45 -43 7 -50 5 -71 -18 -56 -61
-70 -107 -47 -151 23 -42 42 -45 385 -50 328 -6 330 -6 410 -34 243 -84 374
-254 391 -506 19 -273 -147 -474 -461 -562 -76 -21 -98 -22 -440 -23 l-360 0
-90 28 c-167 52 -262 122 -317 235 -31 62 -33 73 -33 172 0 93 3 111 27 163
33 69 117 161 187 202 28 17 51 32 50 35 0 3 -17 17 -38 32 -45 31 -93 96
-111 152 -19 60 -8 160 25 226 15 30 59 86 96 123 38 38 69 71 69 73 0 2 -13
10 -28 18 -49 25 -134 109 -174 171 -68 105 -81 166 -76 377 5 209 14 242 95
356 103 145 292 237 538 262 108 11 261 2 335 -20 19 -5 38 -10 41 -10 15 0
90 211 125 353 9 37 22 67 28 67 6 0 103 -25 216 -56z m-2045 -348 c125 -33
226 -113 278 -220 56 -113 57 -131 57 -873 l0 -683 -255 0 -255 0 0 581 c0
400 -4 594 -11 625 -27 107 -124 150 -272 121 -78 -16 -183 -58 -238 -97 l-29
-21 0 -605 0 -604 -255 0 -255 0 0 880 0 880 219 0 219 0 7 -65 c3 -35 10 -75
13 -89 l7 -24 65 40 c139 85 296 148 425 168 73 11 212 4 280 -14z"/>
<path d="M6915 6503 c-87 -19 -141 -58 -178 -127 -19 -35 -22 -57 -22 -161 0
-154 14 -204 74 -266 53 -54 94 -69 191 -69 117 0 211 66 240 169 29 104 20
253 -20 331 -47 93 -175 148 -285 123z"/>
<path d="M6707 4920 c-69 -61 -90 -108 -85 -188 4 -59 7 -67 40 -98 60 -55
112 -64 359 -64 232 0 299 8 350 43 59 40 74 71 73 147 0 87 -30 136 -101 171
-46 23 -58 24 -318 27 l-270 4 -48 -42z"/>
</g>
</svg>
