<svg xmlns="http://www.w3.org/2000/svg" fill-rule="evenodd" stroke-linejoin="round" stroke-miterlimit="2" clip-rule="evenodd" viewBox="0 0 998 998"><defs/><path fill="none" d="M-1002-345h2938v3510h-2938z"/><path fill="#07c" d="M167 567h-35l-9 25h-21l36-100 5-2a35 35 0 0111 0 14 14 0 018 4l2 5 33 93h-21l-9-25zm-17-58l-14 43h27l-13-43zm78 18l8-6c3-2 7-3 13-3l10 2c4 1 7 3 10 6l6 12 2 17-2 19c-2 5-5 9-8 12s-6 6-9 7a33 33 0 01-19 1l-5-3a15 15 0 01-5-4v39h-21V520h2a22 22 0 015 0l8 1c3 1 4 3 5 6zm28 28l-1-8-3-7-4-5-8-1-9 2-2 5v33l4 3 7 1c6 0 9-2 12-6 2-4 4-9 4-17zm55-28l7-6a31 31 0 0124-1c4 1 7 3 9 6 3 3 5 7 7 12l2 17c0 8-1 14-3 19s-4 9-7 12-6 6-10 7a33 33 0 01-18 1l-6-3a15 15 0 01-5-4v39h-20V520h2a22 22 0 015 0l8 1c2 1 4 3 5 6zm27 28l-1-8-2-7-5-5-7-1-9 2-3 5v33l5 3 7 1c5 0 9-2 12-6 2-4 3-9 3-17zm56 39a68 68 0 01-9-1l-5-2-3-4-1-6v-96h3a43 43 0 019 0l5 2 3 3 1 6v97l-3 1zm44-98c0 3-1 6-4 8-2 2-4 3-7 3-4 0-6-1-8-3-3-2-4-5-4-8s1-6 4-8c2-2 4-3 8-3 3 0 5 1 7 3 3 2 4 5 4 8zm-3 98h-5c-4 0-7-1-9-3-3-1-4-5-4-10v-61h2a43 43 0 0110 0l4 2c1 1 3 2 3 4l2 6v61l-3 1zm71-89l-7-4-9-2c-3 0-7 1-9 3s-3 6-3 11v7h24v16h-24v56h-21v-79c0-10 3-17 8-22s12-8 22-8l11 1 10 4c2 2 4 4 4 6l-2 6-4 5zm12 76l-2-6v-77l2-1a30 30 0 0110 0l4 2 4 4 1 6v11h21v15h-21v33c0 7 3 11 9 11l4-1 3-2a14 14 0 004-3l4 6 1 5-2 4-4 3-7 3-9 1c-6 0-11-2-15-4-3-2-6-6-7-10zm77-85c0 3-1 6-3 8s-5 3-8 3-6-1-8-3-3-5-3-8 1-6 3-8 5-3 8-3 6 1 8 3 3 5 3 8zm-3 98h-4c-4 0-8-1-10-3-3-1-4-5-4-10v-61h3a43 43 0 019 0l4 2 4 4 1 6v61l-3 1zm22-2v-72h2a22 22 0 015 0l9 1c2 2 4 4 4 7l8-7c4-2 9-3 15-3 7 0 12 2 16 4 3 3 6 7 7 12l1 7v51h-21v-42-6l-1-5-4-3-6-1-10 2c-2 2-4 4-4 6v49h-21zm150 11l-7 13c-2 3-6 6-11 8s-11 3-18 3l-15-1-10-4-3-3-1-4 2-6 4-5 3 2 4 3 6 2 8 1 10-2 6-4 3-8v-12l-6 5-12 2-11-2c-4-1-7-3-10-6-2-3-5-6-6-11a55 55 0 010-35c2-5 4-9 7-12 2-3 6-5 9-7l12-2 11 2 7 6c0-2 2-4 4-5l8-1a46 46 0 015 0h2v67l-1 16zm-45-48c0 8 1 13 3 17s6 6 12 6c4 0 6 0 8-2 2-1 3-3 3-5v-33l-4-2c-2-2-4-2-7-2-10 0-15 7-15 21zm170-105c-3-3-8-4-15-5 3 11 4 23 5 36 6 2 11 7 14 13 2-22 2-37-4-44zm-55 9l8-3 14 32 14-6c-1-56-26-85-65-112l-9 4c-7 47-2 85 39 124l13-6-14-33zm-5-21c-7 3-15 0-19-8-3-7 1-15 8-18s15 0 19 7c3 7-1 16-8 19zm-25 38c-4 5-6 9-6 14 0 9 12 19 29 33-2-7-3-14 1-19-10-10-18-19-24-28zm68 39l-1-5-1-4v-2a11 11 0 00-20 9l2 4 1 4 2 4 1 6 1 4v11l-1 8-1 9-2 8-3 7a113 113 0 01-7 15l-2 3a259 259 0 010 1h1l2-2a70 70 0 0012-14l4-7 4-8 4-9 3-9a77 77 0 002-13v-5-8l-1-7z"/></svg>