<svg xmlns="http://www.w3.org/2000/svg" fill-rule="evenodd" stroke-linejoin="round" stroke-miterlimit="2" clip-rule="evenodd" viewBox="0 0 998 998"><defs/><path fill="none" d="M-1002-345h2938v3510h-2938z"/><path fill="#33012a" d="M136 702c5 5 10 7 17 7a24 24 0 0025-24c0-8-2-14-7-18-5-5-10-7-18-7a24 24 0 00-24 25c0 7 2 13 7 17zm42-62h23v89h-23v-11c-7 9-16 13-29 13-12 0-22-4-30-13-9-9-13-20-13-33 0-14 4-25 13-34 8-9 18-13 30-13 13 0 22 4 29 13v-11zm90 22h-20v37l2 7 7 2h11v21c-16 1-27 0-33-5-7-4-10-13-10-25v-37h-15v-22h15v-17l23-7v24h20v22zm34 40c4 5 10 7 17 7a24 24 0 0025-24c0-8-2-14-7-18-5-5-10-7-18-7a24 24 0 00-24 25c0 7 2 13 7 17zm42-62h23v89h-23v-11c-7 9-16 13-29 13-12 0-22-4-30-13-9-9-13-20-13-33 0-14 4-25 13-34 8-9 18-13 30-13 13 0 22 4 29 13v-11zm78 91a45 45 0 01-47-47 45 45 0 0147-47c8 1 16 3 23 7s13 10 16 17l-19 11-8-8c-4-3-8-4-12-4-7 0-13 3-17 7-5 5-7 10-7 18 0 7 2 12 7 17 4 4 10 7 17 7 4 0 8-1 12-4 3-2 6-4 8-8l20 11c-4 7-10 13-17 17s-15 6-23 6m89 0a45 45 0 01-47-47c0-13 5-24 14-33s20-13 33-13c9 0 17 2 24 6s12 10 16 17l-20 11c-2-3-4-6-8-8-4-3-8-4-12-4-7 0-13 3-17 7-5 5-7 10-7 18 0 7 2 12 7 17 4 4 10 7 17 7 5 0 9-1 12-4 4-2 7-4 8-8l20 11c-4 7-9 13-16 17s-15 6-24 6m73-29c4 5 10 7 17 7a24 24 0 0025-24c0-8-2-14-7-18-5-5-11-7-18-7a24 24 0 00-24 25c0 7 2 13 7 17zm42-62h23v89h-23v-11c-7 9-16 13-29 13-12 0-22-4-30-13-9-9-13-20-13-33 0-14 4-25 13-34 8-9 18-13 30-13 13 0 22 4 29 13v-11zm131-2c10 0 18 3 24 10 6 6 9 15 9 26v55h-22v-53c0-5-2-10-4-12-3-3-7-5-11-5-6 0-10 2-12 5-3 4-5 9-5 15v50h-23v-53c0-5-1-10-4-12-2-3-6-5-11-5s-9 2-12 5c-3 4-4 9-4 15v50h-23v-89h23v10c5-8 13-12 24-12s19 4 24 13c6-9 15-13 27-13m70 64c5 5 11 7 18 7a24 24 0 0025-24 24 24 0 00-25-25 24 24 0 00-25 25c0 7 3 13 7 17zm43-62h22v89h-22v-11c-7 9-17 13-29 13s-22-4-31-13c-8-9-12-20-12-33 0-14 4-25 12-34 9-9 19-13 31-13s22 4 29 13v-11z"/><path fill="url(#_Linear1)" d="M381 304c-25 24-37 55-37 91 0 35 12 66 37 90 24 25 54 37 89 37s65-12 89-37c25-24 37-55 37-90 0-36-12-67-37-91-24-25-54-37-89-37s-65 12-89 37m39 143a71 71 0 01-21-52c0-22 7-39 21-53 13-14 30-20 50-20s37 6 51 20c13 14 20 31 20 53 0 21-7 38-20 52a68 68 0 01-51 20c-20 0-37-6-50-20"/><path fill="url(#_Linear2)" d="M591 517h56V271h-56v246z"/><defs><linearGradient id="_Linear1" x1="0" x2="1" y1="0" y2="0" gradientTransform="scale(337.001) rotate(39 -1 2)" gradientUnits="userSpaceOnUse"><stop offset="0" stop-color="#6451a0"/><stop offset="1" stop-color="#d4006d"/></linearGradient><linearGradient id="_Linear2" x1="0" x2="1" y1="0" y2="0" gradientTransform="rotate(86 177 445) scale(214.8108)" gradientUnits="userSpaceOnUse"><stop offset="0" stop-color="#6451a0"/><stop offset="1" stop-color="#d4006d"/></linearGradient></defs></svg>