<?xml version="1.0" encoding="UTF-8" standalone="no"?>
<!DOCTYPE svg PUBLIC "-//W3C//DTD SVG 1.1//EN" "http://www.w3.org/Graphics/SVG/1.1/DTD/svg11.dtd">
<svg width="100%" height="100%" viewBox="0 0 1995 1995" version="1.1" xmlns="http://www.w3.org/2000/svg" xmlns:xlink="http://www.w3.org/1999/xlink" xml:space="preserve" xmlns:serif="http://www.serif.com/" style="fill-rule:evenodd;clip-rule:evenodd;stroke-linejoin:round;stroke-miterlimit:2;">
    <g transform="matrix(1,0,0,1,-9935,-1125)">
        <g id="Sponsor-logos" serif:id="Sponsor logos" transform="matrix(1,0,0,1,17585,1981.49)">
            <rect x="-9652.96" y="-1545.49" width="5875.74" height="7020.86" style="fill:none;"/>
            <g id="cdn77-logo-raw" transform="matrix(7.22383,0,0,7.22383,-6652.55,140.901)">
                <g transform="matrix(1,0,0,1,-109,-32)">
                    <g>
                        <path d="M70.032,32.25c0,-9.189 7.048,-15.39 16.371,-15.39c7.807,0 11.732,4.55 13.517,8.655l-7.762,3.613c-0.759,-2.32 -3.078,-4.327 -5.755,-4.327c-4.327,0 -7.226,3.3 -7.226,7.45c0,4.148 2.9,7.45 7.226,7.45c2.677,0 4.996,-2.008 5.755,-4.328l7.762,3.569c-1.74,3.97 -5.71,8.698 -13.517,8.698c-9.323,0 -16.37,-6.245 -16.37,-15.39l-0.001,0Zm53.171,-0.044c0,-4.015 -2.32,-7.004 -7.137,-7.004l-4.327,0l0,14.052l4.282,0c4.506,0 7.182,-3.301 7.182,-7.048Zm-20.475,14.899l0,-29.755l13.293,0c9.368,0 16.327,5.353 16.327,14.855c0,9.501 -6.959,14.9 -16.282,14.9l-13.338,0Zm52.814,0.001l-10.972,-15.08l0,15.078l-9.011,0l0,-29.753l9.278,0l10.35,14.097l0,-14.098l9.01,0l0,29.754l-8.654,0l-0.001,0.002Zm16.414,0l9.413,-21.904l-13.962,0l0,-7.85l24.31,0l0,6.245l-9.902,23.508l-9.859,0l0,0.001Zm25.757,0l9.413,-21.904l-13.962,0l0,-7.85l24.31,0l0,6.245l-9.902,23.508l-9.859,0l0,0.001Zm-170.568,-47.106c-14.992,0 -27.145,12.228 -27.145,27.31c0,15.084 27.145,36.415 27.145,36.415c0,0 27.146,-21.33 27.146,-36.414c-0.001,-15.083 -12.154,-27.311 -27.146,-27.311" style="fill:#04151f;fill-rule:nonzero;"/>
                        <path d="M27.145,9.753c-9.139,0 -16.547,7.453 -16.547,16.648c0,9.195 7.408,16.649 16.547,16.649c9.14,0 16.548,-7.454 16.548,-16.649c0,-9.195 -7.409,-16.648 -16.548,-16.648" style="fill:#ffe115;fill-rule:nonzero;"/>
                        <path d="M27.144,18.89c-4.122,0 -7.464,3.364 -7.464,7.511c0,4.148 3.342,7.51 7.464,7.51c4.123,0 7.466,-3.362 7.466,-7.51c0,-4.147 -3.343,-7.51 -7.466,-7.51" style="fill:#04151f;fill-rule:nonzero;"/>
                    </g>
                </g>
            </g>
        </g>
    </g>
</svg>
