<svg xmlns="http://www.w3.org/2000/svg" fill-rule="evenodd" stroke-linejoin="round" stroke-miterlimit="2" clip-rule="evenodd" viewBox="0 0 998 998"><defs/><path fill="none" d="M-1002-345h2938v3510h-2938z"/><clipPath id="a"><path d="M105 368h787v271H105z"/></clipPath><g clip-path="url(#a)"><clipPath id="b"><path d="M105 368h819v271H105z"/></clipPath><g clip-path="url(#b)"><path fill="#2841f9" fill-rule="nonzero" d="M271 611H167a64 64 0 01-32-120l-2-13c0-25 20-45 44-45l14 2c14-31 46-51 80-51v227z"/><path fill="#00b1d0" d="M279 384h31v31h-31z"/><path fill="#1ed6b3" d="M318 384h31v31h-31z"/><path fill="#00b1d0" d="M279 423h31v31h-31z"/><path fill="#1ed6b3" d="M318 423h31v31h-31z"/><path fill="#4fdb6d" d="M357 423h31v31h-31z"/><path fill="#00b1d0" d="M279 462h31v31h-31z"/><path fill="#1ed6b3" d="M318 462h31v31h-31z"/><path fill="#4fdb6d" d="M357 462h31v31h-31z"/><path fill="#00b1d0" d="M279 501h31v31h-31z"/><path fill="#1ed6b3" d="M318 501h31v31h-31z"/><path fill="#4fdb6d" d="M357 501h31v31h-31z"/><path fill="#a2e538" d="M396 501h31v31h-31z"/><path fill="#00b1d0" d="M279 541h31v31h-31z"/><path fill="#1ed6b3" d="M318 541h31v31h-31z"/><path fill="#4fdb6d" d="M357 541h31v31h-31z"/><path fill="#a2e538" d="M396 541h31v31h-31z"/><path fill="#00b1d0" d="M279 580h31v31h-31z"/><path fill="#1ed6b3" d="M318 580h31v31h-31z"/><path fill="#4fdb6d" d="M357 580h31v31h-31z"/><path fill-rule="nonzero" d="M470 477c0-24 15-38 34-38 7 0 13 2 19 5l-2 4c-5-2-11-3-17-3-16 0-27 11-27 32 0 22 11 31 25 31 6 0 13-2 18-6l3 5c-7 4-14 6-22 6-19 0-31-11-31-36zM577 487c0 17-9 26-22 26-14 0-23-9-23-26s9-26 23-26c13 0 22 9 22 26zm-6 0c0-15-7-21-16-21-10 0-16 6-16 21s6 21 16 21c9 0 16-6 16-21zM629 482v30h-6v-33c0-10-4-13-13-13-4 0-9 2-13 5v41h-6v-50l6-1v5c5-4 10-5 16-5 9 0 15 3 16 13v8zM670 511c-3 2-7 2-10 2-8 0-11-4-12-10v-36h-7v-5h7v-12l6-1v13h15l-1 5h-14v30c0 9 3 11 8 11l7-1 1 4zM709 513l-1-5c-4 3-10 5-15 5-9 0-15-4-15-15 0-10 8-15 20-15l10 1v-6c0-8-3-12-12-12-4 0-9 1-12 3l-2-4c4-3 10-4 15-4 10 0 17 5 17 14v26l2 11-7 1zm-14-5c5 0 9-1 13-4v-15l-10-1c-8 0-14 3-14 10s4 10 11 10zM731 444h7v8h-7v-8zm1 18l6-1v51h-6v-50zM794 482v30h-7v-33c0-10-3-13-12-13-5 0-10 2-13 5v41h-6v-50l6-1v5c4-4 10-5 15-5 9 0 16 3 16 13l1 8zM842 505l1 5c-5 2-10 3-16 3-14 0-21-7-21-25 0-20 8-27 21-27 11 0 17 6 17 19l1 8h-33c0 15 6 20 15 20l15-3zm-30-22h27c-1-13-4-17-12-17-9 0-14 5-15 17zM859 463l6-1v6c3-5 7-7 10-7l6 1-1 5h-5c-5 0-8 2-10 6v39h-6v-49zM468 606l2-12c6 3 12 4 18 4 8 0 11-3 11-7 0-5-2-7-12-11s-17-9-17-20c0-12 11-21 26-21 6 0 12 1 18 4l-3 11-14-2c-5 0-9 2-9 6s2 7 10 10c11 5 18 10 18 20 0 15-12 23-29 23-7 0-13-2-19-5zM575 585c0 17-11 26-27 26s-26-9-26-26 10-26 26-26 27 9 27 26zm-17 0c0-9-3-13-10-13-6 0-9 4-9 13s3 14 9 14c7 0 10-5 10-14zM583 540l16-1v71h-16v-70zM658 560v50h-17v-4c-4 3-9 5-14 5-12 0-17-6-18-16v-34l17-1v28c0 7 2 10 8 10 2 0 5-1 7-3v-34l17-1zM702 598l1 10c-5 2-10 3-16 3-9 0-13-4-14-11v-27h-8v-13h8v-10l17-4v14h14l-2 13h-12v16c0 7 1 9 7 9h5zM711 539h17v14h-17v-14zm0 22l17-1v50h-17v-49zM788 585c0 17-10 26-26 26s-26-9-26-26 10-26 26-26 26 9 26 26zm-17 0c0-9-3-13-9-13-7 0-9 4-9 13s2 14 9 14c6 0 9-5 9-14zM845 583v27h-17v-28c0-7-2-10-8-10-2 0-5 1-7 3v35h-17v-49l17-1v4c5-3 9-5 15-5 11 0 16 6 17 15v9zM852 607l2-11 14 3c4 0 5-1 5-3s-2-4-7-6c-7-3-12-7-12-16 0-10 10-15 19-15l15 3-2 11-11-2c-3 0-5 1-5 3s3 4 8 6c8 4 11 8 11 16 0 11-9 15-20 15-6 0-12-1-17-4z"/></g></g></svg>