<svg xmlns="http://www.w3.org/2000/svg" fill-rule="evenodd" stroke-linejoin="round" stroke-miterlimit="2" clip-rule="evenodd" viewBox="0 0 998 998">
  <defs/>
  <path fill="none" d="M-1001.5-344.5h2937.9v3510.4h-2937.9z"/>
  <path fill="#bb271b" fill-rule="nonzero" d="M127.4 452.8v90h16.4V556h-36.5V439.4h36.5v13.4h-16.4zm95.7 49.3h-46.7a18 18 0 005 11.4 15 15 0 0011 4.2c5 0 9.8-2.5 14.5-7.4l15.5 5c-3.4 5.2-7.6 9-12.7 11.6-5 2.5-11 3.8-18 3.8-6.9 0-13-1.3-18.3-3.9a29.2 29.2 0 01-16.7-27.9 33.4 33.4 0 0133.8-33.8 29.8 29.8 0 0128.5 17.5c2.7 5.6 4 12.1 4.1 19.5zm-33.5-23.7a12 12 0 00-8.7 3.1c-2.1 2-3.5 5.3-4 9.5h26a15 15 0 00-4.5-9 12.5 12.5 0 00-8.8-3.6zm45.6 28.3v-17.4h36.2v17.4h-36.2zm87.1-38v-2.1h14.3v18.3h-14.3c-1.2-4.4-5.8-6.6-13.7-6.6-5.7 0-8.5 1.6-8.5 4.8 0 1.4.8 2.4 2.3 3 1.5.8 3.7 1.3 6.6 1.7 8.1 1 14.6 2.6 19.2 4.5 4.7 2 8 4.3 9.9 7.1 1.8 2.9 2.8 6.3 2.8 10.4 0 6.6-2.3 11.7-6.8 15.4a28.3 28.3 0 01-18.4 5.5c-7.5 0-12.7-1.5-15.4-4.5v3h-14.5v-21.6h14.5c.4 3 1.9 5.4 4.4 7 2.4 1.8 5.5 2.6 9.2 2.6 3.6 0 6.2-.4 7.9-1.2 1.7-.8 2.6-2.2 2.6-4.3 0-1.3-.4-2.4-1.1-3.2a9.3 9.3 0 00-4.2-2c-2-.7-5.1-1.3-9.3-2a44 44 0 01-20.3-7.2 16 16 0 01-6.1-13.3 16 16 0 016.4-13.4c4.2-3.2 9.9-4.9 16.9-4.9a40 40 0 0115.6 3zm100.9 29.9c0 6-1.1 11.6-3.3 16.5a26.7 26.7 0 01-9.5 11.4 24.8 24.8 0 01-14.2 4.2c-6.6 0-12.7-2.6-18.3-7.8v20h12.4v14.5h-43V543H358v-61.8h-9v-14.6h29v7.8a25.2 25.2 0 0118.4-8.7 24 24 0 0114.4 4.4 27 27 0 019.2 11.7c2.1 5 3.2 10.6 3.2 16.8zm-32.8 16.3c4 0 7-1.5 9-4.4 2.2-2.9 3.2-7 3.2-12.4 0-5.1-1-9.1-3.2-12a10.9 10.9 0 00-9.2-4.3 11 11 0 00-9.2 4.5c-2.2 3-3.4 7-3.4 12 0 4.8 1.2 8.7 3.6 11.9a11 11 0 009.2 4.7zm97-49v18.7c-5.5.4-9.8 1.2-13 2.6a15 15 0 00-7.6 7 31.1 31.1 0 00-2.6 14.4v6.2h12.4v14.4h-43.9v-14.4h11.5v-33.6h-10.9v-14.6h29.2v15.9a23 23 0 0125-16.6zM564 502H517a18 18 0 005 11.4 15 15 0 0011 4.2c5 0 9.8-2.5 14.5-7.4l15.5 5c-3.4 5.2-7.6 9-12.7 11.6-5 2.5-11 3.8-17.9 3.8-7 0-13-1.3-18.3-3.9a29.2 29.2 0 01-16.7-27.9 33.4 33.4 0 0133.8-33.8 29.8 29.8 0 0128.5 17.5c2.6 5.6 4 12.1 4 19.5zm-33.6-23.7a12 12 0 00-8.6 3.1c-2.2 2-3.5 5.3-4.1 9.5h26.1a15 15 0 00-4.6-9 12.5 12.5 0 00-8.8-3.6zm83.2-9.6v-2.2h14.2v18.3h-14.2c-1.3-4.4-5.8-6.6-13.7-6.6-5.7 0-8.6 1.6-8.6 4.8 0 1.4.8 2.4 2.3 3 1.5.8 3.7 1.3 6.6 1.7 8.2 1 14.6 2.6 19.3 4.5 4.7 2 8 4.3 9.8 7.1 1.9 2.9 2.8 6.3 2.8 10.4 0 6.6-2.3 11.7-6.8 15.4a28.3 28.3 0 01-18.3 5.5c-7.6 0-12.7-1.5-15.4-4.5v3h-14.6v-21.6h14.6c.4 3 1.8 5.4 4.3 7 2.5 1.8 5.5 2.6 9.2 2.6 3.6 0 6.2-.4 8-1.2 1.6-.8 2.5-2.2 2.5-4.3 0-1.3-.4-2.4-1-3.2a9.3 9.3 0 00-4.2-2 99 99 0 00-9.4-2 44 44 0 01-20.2-7.2 16 16 0 01-6.2-13.3 16 16 0 016.4-13.4c4.3-3.2 9.9-4.9 16.9-4.9a40 40 0 0115.7 3zm30.3 38v-17.5h36v17.4h-36zm115.3-9a32.7 32.7 0 01-16.4 28.7 33 33 0 01-16.5 4.2c-6.3 0-12-1.4-17-4.2-5-2.9-9-6.8-11.7-11.8a34 34 0 01-4.2-16.8c0-6.2 1.4-11.8 4.3-16.8s6.8-8.9 11.9-11.7c5-2.8 10.6-4.3 16.7-4.3 6.3 0 11.9 1.5 16.9 4.3 5 2.8 9 6.7 11.7 11.7 2.9 5 4.3 10.6 4.3 16.8zm-33 17.3c3.9 0 7-1.5 9.1-4.5a22 22 0 003.4-13.1c0-5.3-1.1-9.5-3.4-12.5-2.2-3-5.2-4.5-9.2-4.5-4 0-7 1.5-9.1 4.5-2.1 3-3.1 7.4-3.1 13.3 0 5 1 9.1 3.3 12.2 2.3 3.1 5.3 4.6 9 4.6zm89.4-50c6.4 0 11.2 2 14.4 5.8 3.2 3.9 4.8 9.5 4.8 16.8v27h9.3v14.5h-29.4v-40.5c0-2.6-.5-4.5-1.4-5.6-1-1-2.6-1.6-4.9-1.6-3 0-6.6 1.2-10.5 3.8v29.5h8.8v14.4h-38.8v-14.4h10.1v-61h-10.1v-14.4h30v32.3a32.3 32.3 0 0117.7-6.6zm39.4 91v-13.4h16.4v-89.9H855v-13.4h36.5V556h-36.5z"/>
</svg>
