<?xml version="1.0" encoding="UTF-8" standalone="no"?><!DOCTYPE svg PUBLIC "-//W3C//DTD SVG 1.1//EN" "http://www.w3.org/Graphics/SVG/1.1/DTD/svg11.dtd"><svg width="100%" height="100%" viewBox="0 0 998 998" version="1.1" xmlns="http://www.w3.org/2000/svg" xmlns:xlink="http://www.w3.org/1999/xlink" xml:space="preserve" xmlns:serif="http://www.serif.com/" style="fill-rule:evenodd;clip-rule:evenodd;stroke-linejoin:round;stroke-miterlimit:2;"><rect id="Sponsor-logos" serif:id="Sponsor logos" x="-1001.5" y="-344.5" width="2937.87" height="3510.43" style="fill:none;"/><g><path d="M650.799,439.82c32.515,0 58.874,26.359 58.874,58.874c0,32.516 -26.359,58.874 -58.874,58.874c-32.516,0 -58.875,-26.358 -58.875,-58.874c0,-32.515 26.359,-58.874 58.875,-58.874Zm88.311,32.708l0,45.791c0,10.839 8.786,19.625 19.625,19.625c10.591,0 19.224,-8.392 19.611,-18.889l0.014,-0.736l0,-45.791l19.625,0l0,45.791c0,21.676 -17.574,39.249 -39.25,39.249c-21.344,0 -38.708,-17.035 -39.237,-38.252l-0.013,-0.997l0,-45.791l19.625,0Zm-317.268,-32.707c15.843,0 30.224,6.257 40.807,16.436l-13.882,13.879c-7.028,-6.628 -16.502,-10.691 -26.925,-10.691c-21.677,0 -39.249,17.573 -39.249,39.25c0,21.677 17.572,39.25 39.249,39.25c18.289,0 33.656,-12.509 38.013,-29.438l-38.013,-0.001l0,-19.624l38.013,0.001c0,-0.001 0,-0.002 -0.001,-0.003l20.048,0c0.536,3.192 0.815,6.471 0.815,9.815c0,32.515 -26.359,58.874 -58.875,58.874c-32.515,0 -58.874,-26.359 -58.874,-58.874c0,-32.515 26.359,-58.874 58.874,-58.874Zm114.479,26.165c25.29,0 45.791,20.502 45.791,45.791c0,25.29 -20.501,45.791 -45.791,45.791c-25.29,0 -45.791,-20.501 -45.791,-45.791c0,-25.289 20.501,-45.791 45.791,-45.791Zm304.184,-26.166l-0.001,32.708l19.626,0l0,19.624l-19.626,0l0.001,35.979c0,5.226 4.084,9.498 9.236,9.796l0.576,0.017l9.813,0l0,19.624l-9.813,0c-15.968,0 -28.965,-12.712 -29.424,-28.569l-0.013,-0.868l0,-35.979l-13.083,0l0,-19.624l13.083,0l0,-32.708l19.625,0Zm-189.706,19.625c-21.677,0 -39.25,17.572 -39.25,39.249c0,21.677 17.573,39.25 39.25,39.25c21.677,0 39.249,-17.573 39.249,-39.25c0,-21.677 -17.572,-39.249 -39.249,-39.249Zm-114.478,26.166c-14.452,0 -26.167,11.715 -26.167,26.166c0,14.452 11.715,26.167 26.167,26.167c14.451,0 26.166,-11.715 26.166,-26.167c0,-14.451 -11.715,-26.166 -26.166,-26.166Z" style="fill:#191a1b;fill-rule:nonzero;"/><path d="M228.865,407.112l0,91.582l91.582,0l-91.582,91.582l-91.582,-91.582l91.582,-91.582Z" style="fill:#00b6eb;"/></g></svg>