<?xml version="1.0" encoding="UTF-8" standalone="no"?>
<!DOCTYPE svg PUBLIC "-//W3C//DTD SVG 1.1//EN" "http://www.w3.org/Graphics/SVG/1.1/DTD/svg11.dtd">
<svg width="100%" height="100%" viewBox="0 0 1995 1995" version="1.1" xmlns="http://www.w3.org/2000/svg" xmlns:xlink="http://www.w3.org/1999/xlink" xml:space="preserve" xmlns:serif="http://www.serif.com/" style="fill-rule:evenodd;clip-rule:evenodd;stroke-linejoin:round;stroke-miterlimit:2;">
    <g transform="matrix(1,0,0,1,-9935,-1125)">
        <g id="Sponsor-logos" serif:id="Sponsor logos" transform="matrix(1,0,0,1,17585,1981.49)">
            <rect x="-9652.96" y="-1545.49" width="5875.74" height="7020.86" style="fill:none;"/>
            <g id="logo-gug" transform="matrix(5.99907,0,0,5.99907,-6652.55,182.612)">
                <g transform="matrix(1,0,0,1,-150,-30.5)">
                    <path d="M65.629,30.63c0,-13.282 10.328,-24 23.61,-24c5.821,-0.018 11.438,2.169 15.715,6.117l-4.275,4.009c-3.152,-2.807 -7.22,-4.374 -11.44,-4.406c-9.866,0 -17.428,8.284 -17.428,18.345c0,10.061 7.627,18.287 17.428,18.287c8.089,0 14.271,-4.608 15.188,-11.903c0.083,-0.389 0.126,-0.786 0.13,-1.184l-13.542,0l0,-5.395l20.382,0c0,16.373 -8.811,24.078 -22.126,24.078c-13.314,0 -23.642,-10.737 -23.642,-23.948Z" style="fill:#8a8a8d;fill-rule:nonzero;"/>
                    <path d="M117.449,37.867l0,-30.775l6.195,0l0,30.71c0,7.295 4.998,10.783 10.848,10.783c5.851,0 10.855,-3.488 10.855,-10.783l0,-30.71l6.176,0l0,30.71c0,10.587 -7.809,16.698 -17.031,16.698c-9.221,0 -17.043,-6.046 -17.043,-16.633Z" style="fill:#8a8a8d;fill-rule:nonzero;"/>
                    <path d="M157.562,30.63c0,-13.282 10.327,-24 23.609,-24c5.822,-0.018 11.439,2.169 15.716,6.117l-4.262,4.009c-3.152,-2.807 -7.22,-4.374 -11.441,-4.406c-9.865,0 -17.427,8.284 -17.427,18.345c0,10.061 7.627,18.287 17.427,18.287c8.089,0 14.272,-4.608 15.189,-11.903c0.082,-0.389 0.126,-0.786 0.13,-1.184l-13.555,0l0,-5.395l20.382,0c0,16.373 -8.812,24.078 -22.094,24.078c-13.412,-0.006 -23.674,-10.737 -23.674,-23.948Z" style="fill:#8a8a8d;fill-rule:nonzero;"/>
                    <path d="M207.937,50.491c0,0 0,0 0,0c0,-2.31 1.901,-4.211 4.211,-4.211c0.021,0 0.043,0.001 0.065,0.001c0.039,-0.001 0.078,-0.002 0.117,-0.002c2.324,0 4.247,1.889 4.288,4.212c-0.074,2.264 -1.957,4.085 -4.221,4.085c-0.061,0 -0.123,-0.002 -0.184,-0.004c-0.044,0.001 -0.087,0.002 -0.131,0.002c-2.25,0 -4.111,-1.833 -4.145,-4.083Z" style="fill:#8a8a8d;fill-rule:nonzero;"/>
                    <path d="M221.089,30.63c0,-0.054 -0.001,-0.108 -0.001,-0.163c0,-13.029 10.712,-23.754 23.741,-23.772c6.746,-0.098 13.195,2.823 17.57,7.959l-4.484,3.807c-3.262,-3.836 -8.051,-6.051 -13.086,-6.052c-9.866,0 -17.571,8.219 -17.571,18.28c0,10.06 7.757,18.286 17.571,18.286c5.035,-0.001 9.824,-2.216 13.086,-6.052l4.471,3.813c-4.393,5.113 -10.83,8.029 -17.57,7.959c-13.093,-0.135 -23.778,-10.972 -23.727,-24.065Z" style="fill:#8a8a8d;fill-rule:nonzero;"/>
                    <path d="M299.935,12.415l-24.989,35.792l24.989,0l0,5.72l-32.538,0l0,-5.277l24.859,-35.792l-23.954,0l0,-5.766l31.698,0l0,5.323l-0.065,0Z" style="fill:#8a8a8d;fill-rule:nonzero;"/>
                    <path d="M40.38,23.726c0.08,-1.855 1.628,-3.338 3.484,-3.338c1.857,0 3.405,1.483 3.485,3.338l0,-16.465c-0.01,-3.707 -3.066,-6.752 -6.774,-6.748l-6.775,0c-3.822,0.004 -6.966,3.148 -6.969,6.97l0,27.247c0,1.249 0,3.481 -0.527,4.471c-0.614,0.82 -1.581,1.304 -2.606,1.304c-1.053,0 -2.043,-0.511 -2.652,-1.369c-0.351,-0.822 -0.509,-1.712 -0.462,-2.603c0.065,2.036 0.325,4.34 1.379,6.175c1.177,1.935 2.99,3.401 5.128,4.146c2.167,-0.791 4.017,-2.271 5.265,-4.211c1.301,-2.362 1.444,-5.206 1.444,-7.952l0,-24.644c0.018,-1.422 1.182,-2.586 2.603,-2.603l1.276,0c1.428,0 2.603,1.175 2.603,2.603l0.072,13.666l0.026,0.013Z" style="fill:#0082cb;fill-rule:nonzero;"/>
                    <path d="M43.074,48.585c-3.253,3.494 -7.852,5.433 -12.625,5.323c-1.506,0.003 -3.006,-0.172 -4.471,-0.521c-0.729,0.065 -1.516,0.13 -2.303,0.13c-6.313,0 -10.263,-2.83 -12.495,-5.264c-2.831,-3.111 -4.21,-6.905 -4.21,-11.636l0,-12.826c-0.011,-1.906 -1.576,-3.471 -3.482,-3.482c-1.907,0.011 -3.474,1.575 -3.488,3.482l0,12.826c0,6.508 2.037,11.968 5.987,16.373c4.452,4.853 10.771,7.582 17.356,7.497l0.397,0c8.681,-0.065 14.271,-4.08 17.362,-7.497c3.336,-3.702 5.391,-8.384 5.857,-13.347c-0.227,3.338 -1.6,6.498 -3.885,8.942Z" style="fill:#00af41;fill-rule:nonzero;"/>
                    <path d="M30.449,47.53c-1.146,0.008 -2.284,-0.192 -3.358,-0.592c-2.125,-0.764 -3.933,-2.222 -5.128,-4.139c-1.054,-1.841 -1.301,-4.145 -1.379,-6.182l0,-29.284c-0.008,-3.71 -3.065,-6.758 -6.775,-6.755l-6.774,0c-3.788,0 -6.905,3.117 -6.905,6.905l0,16.269c0.014,-1.907 1.581,-3.471 3.488,-3.482c1.906,0.011 3.471,1.576 3.482,3.482l0,-13.439c0.007,-1.514 1.251,-2.758 2.766,-2.765l1.119,0c1.421,0.017 2.585,1.181 2.603,2.603l0,26.661c0,3.619 0.722,7.959 4.21,11.773c2.185,2.37 5.022,4.041 8.154,4.802c1.464,0.353 2.965,0.528 4.471,0.521c1.785,0 3.254,-1.469 3.254,-3.254c-0.025,-1.721 -1.448,-3.124 -3.169,-3.124c-0.02,0 -0.039,0 -0.059,0Z" style="fill:#ffc627;fill-rule:nonzero;"/>
                    <path d="M47.284,23.726c-0.08,-1.855 -1.628,-3.338 -3.485,-3.338c-1.856,0 -3.404,1.483 -3.484,3.338l0,11.18c0,2.433 -0.072,5.46 -1.452,7.809c-1.816,2.924 -5.017,4.714 -8.46,4.731c1.597,0.227 2.795,1.609 2.795,3.221c0,1.612 -1.198,2.994 -2.795,3.221c6.183,0 10.256,-2.694 12.625,-5.323c3.482,-3.813 4.211,-8.154 4.211,-11.772l0,-13.067l0.045,0Z" style="fill:#f7323f;fill-rule:nonzero;"/>
                </g>
            </g>
        </g>
    </g>
</svg>
