<svg xmlns="http://www.w3.org/2000/svg" fill-rule="evenodd" stroke-linejoin="round" stroke-miterlimit="2" clip-rule="evenodd" viewBox="0 0 998 998">
  <defs/>
  <path fill="none" d="M-1001.5-344.5h2937.9v3510.4h-2937.9z"/>
  <clipPath id="a">
    <path d="M210.3 166.7h576.9v664H210.3z"/>
  </clipPath>
  <g clip-path="url(#a)">
    <g fill-rule="nonzero">
      <path fill="url(#_Linear2)" d="M777.9 226.9a35.2 35.2 0 00-27-59.7 34 34 0 00-24.4 11.2L224 752.4a44.7 44.7 0 00-13.7 32.8 46 46 0 0081.2 28.9l486.4-587.2z"/>
      <path fill="url(#_Linear3)" d="M787.2 201a35.5 35.5 0 00-52-30.4L317 376.1a28.6 28.6 0 00-17.1 28.4 29 29 0 0042.6 24l422.2-193.3a35.3 35.3 0 0022.6-34.3z"/>
      <path fill="url(#_Linear4)" d="M666.3 689.3L349.7 384.9a29 29 0 00-44 38.2l275.5 341.5a56.8 56.8 0 0046 23 57.2 57.2 0 0039-98.3z"/>
      <path fill="#3fbfef" d="M652.6 680c18.6 9.3-.5-.5 0 0z"/>
      <path fill="url(#_Linear5)" d="M684 727.4c.4-18-8.9-36.7-31.9-47.9-27-13.7-54.3-27-81.2-40.6-27-13.2-53.8-27-80.3-40.1-26.9-13.3-53.8-27-80.7-40.2A22800.4 22800.4 0 01241.6 474c-4.4-1.9-9.3-2.4-14.2-1.4a22 22 0 00-16.7 27 24.7 24.7 0 009.8 14.1h.5s6.9 4.4 10.3 7.4l19 13.2c12.3 8.8 24.5 17 36.8 25.9l74.8 52.8c24.5 17.2 49 34.8 73.4 52 25 17.5 49.5 35.1 74.4 52.8 25 17.6 49.4 35.7 74.4 52.8 3 2 5.9 4.4 9.3 6.4.5.5 1.5 1 2 1a57.2 57.2 0 0089.5-47c-1-1.5-1-2.5-1-3.5z"/>
    </g>
    <path d="M337 414.3h249.5v249.5H337z"/>
    <path fill="#fff" d="M358.5 617.4H452v15.7h-93.5z"/>
    <g fill="#fff" fill-rule="nonzero">
      <path d="M357.5 480.3l7.4-6.8c2 2.4 3.9 4 6.3 4 3 0 4.4-2 4.4-6v-25.9H387v26c0 4.8-1.5 8.7-4 11.2-2.4 2.4-6.3 4-11.2 4-6.8.4-11.2-2.5-14.2-6.5zM389.8 445.6h32.8v9.8h-21.5v6.4h19.6v8.8H401v6.3h22v9.8h-32.8v-41.1h-.5zM437.3 455.4h-12.2v-9.8h35.7v9.8h-12.2v30.8h-11.3v-30.8zM358.5 496h21c5 0 8.9 1.5 11.3 3.4 1.5 1.5 2.5 4 2.5 6.9 0 4.9-2.5 7.3-6.4 9.3 4.9 1.4 8.3 4.4 8.3 9.8 0 6.8-5.9 11.2-15.2 11.2h-21V496h-.5zm23.5 12.2c0-2.4-2-3.4-4.9-3.4h-7.3v7.3h6.8c3.4 0 5.4-1 5.4-3.9zm-4 11.8h-8.7v7.3h8.8c3.4 0 5.4-1.4 5.4-3.9.5-2-1.5-3.4-5.4-3.4zM396.7 496h19c6.4 0 10.8 1.5 13.3 4.4 2.4 2.5 3.4 5.4 3.4 9.3 0 6.4-3.4 10.3-8.3 12.7l9.8 14.2h-12.7l-8.4-12.2H408v12.2h-11.2V496zm18.6 19.6c3.9 0 5.9-2 5.9-5 0-3.3-2.5-4.8-6-4.8H408v9.8h7.4z"/>
      <path d="M446.1 495.5H457l17.1 41.1h-12.2l-3-7.3h-15.6l-3 7.3h-11.7l17.6-41zm9.8 25l-4.4-11.3L447 521h8.8v-.5zM475.5 496h11.3v40.6h-11.3zM489.7 496h10.7l16.7 21.5V496h11.2v40.6h-9.8L501 514.1v22.5h-11.2V496zM528.8 530.7l6.4-7.3c3.9 3.4 8.3 4.9 13.2 4.9 3 0 4.9-1 4.9-3 0-1.9-1.5-2.4-6.9-3.9-8.8-2-15.2-4.4-15.2-12.7 0-7.3 6-13.2 15.7-13.2a26 26 0 0116.6 5.4l-5.8 7.8c-4-2.4-7.9-3.9-11.3-3.9-3 0-3.9 1-3.9 2.5 0 2 1.5 2.4 6.9 3.9 9.2 2 15.1 4.9 15.1 12.7 0 8.3-6.3 13.2-16.6 13.2-7.4 0-14.2-2-19.1-6.4z"/>
    </g>
  </g>
  <defs>
    <linearGradient id="_Linear2" x1="0" x2="1" y1="0" y2="0" gradientTransform="rotate(-51.7 950.1 130) scale(778.833)" gradientUnits="userSpaceOnUse">
      <stop offset="0" stop-color="#ab63a7"/>
      <stop offset=".6" stop-color="#ca5595"/>
      <stop offset="1" stop-color="#d64d8e"/>
    </linearGradient>
    <linearGradient id="_Linear3" x1="0" x2="1" y1="0" y2="0" gradientTransform="rotate(-26.2 1034.2 -557.7) scale(435.651)" gradientUnits="userSpaceOnUse">
      <stop offset="0" stop-color="#ed427c"/>
      <stop offset=".4" stop-color="#e14885"/>
      <stop offset="1" stop-color="#d64d8e"/>
    </linearGradient>
    <linearGradient id="_Linear4" x1="0" x2="1" y1="0" y2="0" gradientTransform="scale(499.741) rotate(46.9 -.6 1.1)" gradientUnits="userSpaceOnUse">
      <stop offset="0" stop-color="#ed427c"/>
      <stop offset=".1" stop-color="#ee4c77"/>
      <stop offset=".5" stop-color="#f1685f"/>
      <stop offset=".8" stop-color="#f27748"/>
      <stop offset="1" stop-color="#f37c3d"/>
    </linearGradient>
    <linearGradient id="_Linear5" x1="0" x2="1" y1="0" y2="0" gradientTransform="scale(502.697) rotate(31.2 -1.5 1.4)" gradientUnits="userSpaceOnUse">
      <stop offset="0" stop-color="#3fbfef"/>
      <stop offset=".3" stop-color="#a1aba8"/>
      <stop offset=".7" stop-color="#d0936f"/>
      <stop offset=".9" stop-color="#e9834c"/>
      <stop offset="1" stop-color="#f37c3d"/>
    </linearGradient>
  </defs>
</svg>
