<?xml version="1.0" encoding="UTF-8" standalone="no"?><!DOCTYPE svg PUBLIC "-//W3C//DTD SVG 1.1//EN" "http://www.w3.org/Graphics/SVG/1.1/DTD/svg11.dtd"><svg width="100%" height="100%" viewBox="0 0 998 998" version="1.1" xmlns="http://www.w3.org/2000/svg" xmlns:xlink="http://www.w3.org/1999/xlink" xml:space="preserve" xmlns:serif="http://www.serif.com/" style="fill-rule:evenodd;clip-rule:evenodd;stroke-linejoin:round;stroke-miterlimit:2;"><rect id="Sponsor-logos" serif:id="Sponsor logos" x="-1001.5" y="-344.5" width="2937.87" height="3510.43" style="fill:none;"/><path d="M177.882,428.065l31.293,0l0,89.246c0,8.258 -1.955,15.647 -5.795,22.167c-3.839,6.519 -9.2,11.518 -16.081,15.067c-6.882,3.55 -14.561,5.361 -23.036,5.361c-14.198,0 -25.209,-3.55 -33.033,-10.721c-7.823,-7.172 -11.735,-17.314 -11.735,-30.425l31.439,0c0,5.94 1.014,10.286 3.115,12.967c2.101,2.68 5.505,3.984 10.286,3.984c4.347,0 7.679,-1.594 10.069,-4.854c2.319,-3.259 3.55,-7.751 3.55,-13.618l0,-89.174l-0.072,0Zm107.138,95.476c0,-4.564 -1.594,-8.186 -4.854,-10.721c-3.259,-2.536 -8.982,-5.216 -17.095,-7.969c-8.186,-2.752 -14.851,-5.36 -19.994,-7.968c-16.878,-8.258 -25.281,-19.631 -25.281,-34.119c0,-7.172 2.101,-13.546 6.302,-19.052c4.202,-5.505 10.142,-9.779 17.82,-12.894c7.606,-3.042 16.299,-4.564 25.861,-4.564c9.345,0 17.748,1.667 25.137,4.999c7.389,3.332 13.184,8.113 17.313,14.27c4.129,6.158 6.157,13.184 6.157,21.153l-31.294,0c0,-5.288 -1.593,-9.417 -4.853,-12.315c-3.26,-2.898 -7.606,-4.346 -13.184,-4.346c-5.578,0 -9.997,1.231 -13.257,3.694c-3.259,2.463 -4.853,5.578 -4.853,9.417c0,3.332 1.811,6.375 5.36,9.055c3.55,2.68 9.852,5.506 18.835,8.403c8.982,2.898 16.371,6.013 22.166,9.345c14.054,8.113 21.08,19.269 21.08,33.467c0,11.373 -4.274,20.283 -12.894,26.803c-8.548,6.519 -20.356,9.707 -35.278,9.707c-10.504,0 -20.066,-1.884 -28.614,-5.651c-8.548,-3.767 -14.995,-8.982 -19.269,-15.574c-4.346,-6.592 -6.447,-14.126 -6.447,-22.746l31.439,0c0,6.954 1.811,12.097 5.433,15.429c3.622,3.333 9.417,4.926 17.53,4.926c5.216,0 9.273,-1.086 12.315,-3.332c2.898,-2.246 4.419,-5.36 4.419,-9.417Z" style="fill:#0070df;fill-rule:nonzero;"/><path d="M435.042,558.095l-31.149,0l0,-54.33l-46.144,0l0,54.33l-31.366,0l0,-130.03l31.366,0l0,51.65l46.144,0l0,-51.65l31.149,0l0,130.03Zm57.88,1.811c-14.85,0 -26.803,-4.419 -36.003,-13.257c-9.2,-8.837 -13.763,-20.355 -13.763,-34.554l0,-2.535c0,-9.852 1.811,-18.617 5.505,-26.151c3.694,-7.533 8.983,-13.401 16.009,-17.53c7.027,-4.129 15.357,-6.23 24.992,-6.23c13.546,0 24.267,4.202 32.163,12.605c7.896,8.403 11.808,20.138 11.808,35.205l0,11.736l-59.835,0c1.086,5.432 3.404,9.706 7.026,12.749c3.622,3.115 8.331,4.636 14.126,4.636c9.562,0 16.951,-3.332 22.311,-9.997l13.764,16.227c-3.767,5.216 -9.055,9.272 -15.937,12.387c-6.882,3.115 -14.27,4.709 -22.166,4.709Zm-3.405,-77.004c-8.838,0 -14.053,5.868 -15.719,17.531l30.352,0l0,-2.318c0.145,-4.854 -1.087,-8.548 -3.695,-11.229c-2.463,-2.68 -6.157,-3.984 -10.938,-3.984Zm111.05,5.795l-9.924,-0.724c-9.49,0 -15.575,2.97 -18.255,8.91l0,61.212l-30.135,0l0,-96.635l28.252,0l1.014,12.387c5.07,-9.489 12.097,-14.198 21.152,-14.198c3.187,0 6.013,0.362 8.403,1.087l-0.507,27.961Zm1.594,20.211c0,-9.634 1.883,-18.255 5.65,-25.788c3.767,-7.534 9.127,-13.329 16.154,-17.386c7.027,-4.057 15.285,-6.085 24.774,-6.085c14.488,0 25.861,4.491 34.192,13.474c8.258,8.91 12.459,21.152 12.459,36.582l0,1.087c0,15.067 -4.201,27.02 -12.532,35.857c-8.33,8.838 -19.703,13.257 -33.974,13.257c-13.763,0 -24.774,-4.129 -33.105,-12.388c-8.33,-8.258 -12.822,-19.413 -13.473,-33.539l-0.145,-5.071Zm30.062,1.811c0,8.91 1.376,15.502 4.202,19.631c2.825,4.202 6.954,6.23 12.387,6.23c10.721,0 16.226,-8.258 16.444,-24.774l0,-3.043c0,-17.313 -5.506,-26.006 -16.589,-26.006c-10.069,0 -15.502,7.462 -16.371,22.384l-0.073,5.578Zm119.526,49.187c-14.851,0 -26.803,-4.419 -36.003,-13.257c-9.2,-8.837 -13.764,-20.355 -13.764,-34.554l0,-2.535c0,-9.852 1.811,-18.617 5.506,-26.151c3.694,-7.533 8.982,-13.401 16.009,-17.53c7.027,-4.129 15.357,-6.23 24.992,-6.23c13.546,0 24.267,4.202 32.163,12.605c7.896,8.403 11.808,20.138 11.808,35.205l0,11.736l-59.836,0c1.087,5.432 3.405,9.706 7.027,12.749c3.622,3.115 8.331,4.636 14.126,4.636c9.562,0 16.951,-3.332 22.311,-9.997l13.764,16.227c-3.767,5.216 -9.055,9.272 -15.937,12.387c-6.882,3.115 -14.271,4.709 -22.166,4.709Zm-3.405,-77.004c-8.838,0 -14.053,5.868 -15.72,17.531l30.353,0l0,-2.318c0.145,-4.854 -1.087,-8.548 -3.695,-11.229c-2.535,-2.68 -6.157,-3.984 -10.938,-3.984Zm103.154,48.028c0,-2.536 -1.304,-4.636 -3.984,-6.158c-2.68,-1.521 -7.751,-3.187 -15.285,-4.853c-7.534,-1.666 -13.691,-3.839 -18.545,-6.592c-4.853,-2.68 -8.62,-6.013 -11.155,-9.852c-2.536,-3.839 -3.84,-8.33 -3.84,-13.329c0,-8.837 3.695,-16.154 11.011,-21.949c7.317,-5.723 16.879,-8.62 28.759,-8.62c12.749,0 22.963,2.897 30.714,8.692c7.751,5.796 11.591,13.402 11.591,22.746l-30.208,0c0,-7.751 -4.056,-11.59 -12.242,-11.59c-3.187,0 -5.795,0.869 -7.968,2.608c-2.174,1.739 -3.188,3.912 -3.188,6.592c0,2.68 1.304,4.853 3.912,6.52c2.608,1.666 6.809,3.042 12.532,4.129c5.723,1.086 10.794,2.318 15.14,3.839c14.56,4.998 21.804,13.981 21.804,26.875c0,8.838 -3.911,16.009 -11.735,21.515c-7.823,5.505 -17.965,8.33 -30.425,8.33c-8.258,0 -15.647,-1.521 -22.166,-4.491c-6.52,-2.97 -11.518,-7.027 -15.212,-12.17c-3.622,-5.143 -5.433,-10.504 -5.433,-16.154l28.106,0c0.145,4.491 1.594,7.751 4.491,9.779c2.826,2.029 6.52,3.115 11.011,3.115c4.129,0 7.172,-0.797 9.272,-2.535c2.029,-1.594 3.043,-3.767 3.043,-6.447Z" style="fill-rule:nonzero;"/></svg>