<?xml version="1.0" encoding="UTF-8" standalone="no"?><!DOCTYPE svg PUBLIC "-//W3C//DTD SVG 1.1//EN" "http://www.w3.org/Graphics/SVG/1.1/DTD/svg11.dtd"><svg width="100%" height="100%" viewBox="0 0 998 998" version="1.1" xmlns="http://www.w3.org/2000/svg" xmlns:xlink="http://www.w3.org/1999/xlink" xml:space="preserve" xmlns:serif="http://www.serif.com/" style="fill-rule:evenodd;clip-rule:evenodd;stroke-linejoin:round;stroke-miterlimit:2;"><rect id="Sponsor-logos" serif:id="Sponsor logos" x="-1001.5" y="-344.5" width="2937.87" height="3510.43" style="fill:none;"/><g id="logo"><path d="M810.116,470.153l-16.132,0c-14.643,0 -28.169,11.789 -30.154,26.432l-4.22,31.519c-1.985,14.643 8.439,26.432 23.082,26.432l16.256,0c14.643,0 28.169,-11.789 30.154,-26.432l4.219,-31.519c1.862,-14.643 -8.562,-26.432 -23.205,-26.432m5.088,26.432l-4.219,31.519c-0.869,6.329 -6.701,11.417 -13.03,11.417l-10.424,0c-6.328,0 -10.796,-5.088 -9.927,-11.417l4.219,-31.519c0.869,-6.329 6.701,-11.417 13.03,-11.417l10.423,0c6.329,0 10.797,5.088 9.928,11.417m79.419,-26.432c2.482,0 4.219,1.985 3.847,4.467l-0.869,6.081c-0.372,2.482 -2.606,4.467 -5.087,4.467l-13.278,0c-5.46,0 -10.672,3.847 -12.41,9.059c-0.248,0.744 -0.372,1.489 -0.496,2.358l-7.073,53.607c-0.373,2.482 -2.606,4.468 -5.088,4.468l-8.935,0c-2.482,0 -4.219,-1.986 -3.847,-4.343l6.825,-51.995l0.249,-1.613c1.985,-14.519 15.263,-26.432 29.906,-26.432l16.256,0m48.893,-0.124c2.481,0 4.219,1.985 3.846,4.467l-0.744,6.081c-0.372,2.482 -2.606,4.467 -5.088,4.467l-8.562,0l-5.709,42.936c-0.744,5.584 2.73,10.176 7.942,11.168c2.11,0.373 3.475,2.234 3.227,4.344l-0.869,6.328c-0.372,2.482 -2.606,4.468 -5.088,4.468c-14.643,0 -25.066,-11.789 -23.081,-26.432l5.708,-42.936l-2.357,0c-2.482,0 -4.22,-1.986 -3.847,-4.467l0.744,-6.081c0.373,-2.482 2.606,-4.467 5.088,-4.467l2.482,0l3.102,-23.33c0.373,-2.482 2.606,-4.467 5.088,-4.467l8.935,0c2.482,0 4.219,1.985 3.847,4.467l-3.103,23.33l8.439,0m-218.155,0.124l-16.008,0c-14.643,0 -28.169,11.789 -30.03,26.432l-11.045,83.266c-0.372,2.481 1.365,4.467 3.847,4.467l8.935,0c2.482,0 4.715,-1.986 5.088,-4.467l3.474,-26.68c2.606,0.868 5.46,1.489 8.439,1.489l16.007,0c14.643,0 28.169,-11.789 30.155,-26.432l4.219,-31.519c1.986,-14.767 -8.438,-26.556 -23.081,-26.556m5.088,26.432l-4.219,31.519c-0.869,6.329 -6.701,11.417 -13.03,11.417l-10.424,0c-6.329,0 -10.796,-5.088 -9.927,-11.417l0.868,-6.701l3.351,-24.818c0.868,-6.329 6.701,-11.417 13.03,-11.417l10.423,0c6.329,0 10.796,5.088 9.928,11.417m-67.755,-21.468c1.241,0.744 1.986,2.233 1.737,3.846l-0.496,3.971c-0.372,2.482 -2.606,4.468 -5.088,4.468l-6.328,0c-1.49,0 -2.979,-0.373 -4.22,-0.993c-0.248,-0.124 -0.62,-0.248 -0.868,-0.372c-1.241,-0.621 -2.73,-0.869 -4.219,-0.869l-16.877,0c-5.46,0 -10.424,4.343 -11.168,9.803c-0.745,5.46 3.102,9.804 8.562,9.804l16.504,0c13.775,0 23.578,11.168 21.717,24.818c-1.862,13.774 -14.519,24.819 -28.293,24.819l-25.067,0c-5.708,0 -10.796,-1.862 -14.767,-4.964c-1.241,-0.745 -1.986,-2.234 -1.737,-3.847l0.496,-3.971c0.372,-2.482 2.606,-4.467 5.088,-4.467l6.328,0c1.49,0 2.979,0.372 4.22,0.993c0.248,0.124 0.62,0.248 0.868,0.372c1.241,0.62 2.606,0.868 4.219,0.868l19.359,0c5.46,0 10.424,-4.343 11.168,-9.803c0.745,-5.46 -3.102,-9.803 -8.562,-9.803l-0.124,0l-16.381,0c-13.774,0 -23.577,-11.169 -21.716,-24.819c1.862,-13.774 14.519,-24.818 28.293,-24.818l22.585,0c5.833,0 10.92,1.861 14.767,4.964" style="fill:#e2001a;fill-rule:nonzero;"/><path d="M563.42,470.153l-16.008,0c-14.643,0 -28.169,11.789 -30.03,26.432l-4.219,31.519c-1.986,14.643 8.438,26.432 23.081,26.432l20.972,0c5.708,0 11.292,-1.862 16.007,-4.964c1.49,-0.745 2.482,-2.234 2.731,-3.847l0.496,-3.971c0.372,-2.482 -1.365,-4.467 -3.847,-4.467l-6.329,0c-1.613,0 -3.102,0.372 -4.467,0.869c-0.372,0.124 -0.621,0.248 -0.993,0.372c-1.365,0.62 -2.978,0.868 -4.467,0.868l-15.388,0c-6.328,0 -10.796,-5.087 -9.927,-11.416l0.745,-5.832l24.694,0c14.643,0 28.045,-11.169 30.03,-25.812c1.862,-14.394 -8.438,-26.183 -23.081,-26.183m5.088,26.432c-0.869,6.328 -6.577,10.796 -12.906,10.796l-21.84,0l1.365,-10.796c0.869,-6.329 6.701,-11.417 13.03,-11.417l10.424,0c6.328,0 10.796,5.088 9.927,11.417m-196.066,42.936c2.482,0 4.219,1.985 3.847,4.467l-0.745,6.08c-0.372,2.482 -2.606,4.468 -5.088,4.468l-50.505,0c-2.482,0 -4.22,-1.986 -3.847,-4.468l13.65,-103.369c0.372,-2.482 2.606,-4.343 5.088,-4.343l8.934,0c2.482,0 4.22,1.986 3.847,4.467l-12.161,92.698l36.98,0m-105.727,-74.828c2.358,4.095 0.993,9.307 -3.102,11.664c-1.365,0.745 -2.854,1.117 -4.22,1.117l-60.308,0c-4.716,0 -8.563,-3.847 -8.563,-8.438c0,-1.489 0.497,-2.978 1.117,-4.219l30.154,-51.995c0.745,-1.241 1.738,-2.358 3.103,-3.102c4.095,-2.358 9.307,-0.993 11.664,3.102l30.155,51.871Zm151.021,5.46c2.481,0 4.219,1.985 3.846,4.467l-10.051,75.448c-0.372,2.482 -2.606,4.468 -5.088,4.468l-8.935,0c-2.481,0 -4.219,-1.986 -3.846,-4.468l8.562,-64.9l-8.562,0c-2.482,0 -4.22,-1.985 -3.847,-4.467l0.868,-6.081c0.373,-2.482 2.606,-4.467 5.088,-4.467l21.965,0m3.35,-27.797c2.482,0 4.219,1.986 3.847,4.467l-1.117,8.315c-0.372,2.481 -2.606,4.467 -5.088,4.467l-8.934,0c-2.482,0 -4.22,-1.986 -3.847,-4.467l1.117,-8.315c0.372,-2.481 2.606,-4.467 5.087,-4.467l8.935,0m85.624,28.169c2.234,0.869 3.102,3.351 1.985,5.708l-36.979,75.325c-0.869,1.737 -2.606,2.978 -4.592,2.978l-9.927,0c-1.986,0 -3.351,-1.241 -3.847,-2.978l-17.001,-75.325c-0.496,-2.357 0.993,-4.839 3.475,-5.708c0.496,-0.124 1.117,-0.248 1.613,-0.248l9.555,0c1.862,0 3.351,1.117 3.847,2.978l10.796,55.842l25.563,-55.842c0.869,-1.861 2.73,-2.978 4.592,-2.978l9.555,0c0.372,0 0.869,0 1.365,0.248" style="fill:#e2001a;fill-rule:nonzero;"/></g><g id="Vrstva_3"><path d="M210.501,573.894c-3.35,1.986 -7.694,0.869 -9.803,-2.482l-4.468,-7.693l-0.124,-0.249c-1.489,-2.854 -0.992,-6.328 1.365,-8.562c0.124,-0.124 0.249,-0.248 0.621,-0.496c11.789,-10.672 19.731,-24.447 23.081,-39.834c0,-0.124 0,-0.248 0.124,-0.372c0.745,-3.227 3.723,-5.585 7.073,-5.585l8.811,0c3.971,0 7.197,3.227 7.197,7.198c0,0.372 0,0.869 -0.124,1.241l0,0.372c-4.095,21.344 -15.511,41.075 -32.14,55.469c-0.248,0.249 -0.496,0.497 -0.868,0.745l-0.373,0.248l-0.372,0" style="fill:#58585a;fill-rule:nonzero;"/><path d="M115.074,573.522c1.737,-2.854 5.212,-4.219 8.438,-3.227l0.248,0.125c15.14,4.839 31.024,4.839 46.287,0l0.248,-0.125c0.124,0 0.248,-0.124 0.496,-0.124c3.103,-0.868 6.453,0.373 8.191,3.227l4.343,7.445l0.248,0.497c1.861,3.474 0.62,7.693 -2.73,9.555c-0.124,0.124 -0.248,0.124 -0.372,0.124l-0.249,0.124c-0.372,0.124 -0.744,0.248 -1.116,0.372c-20.848,7.074 -43.681,7.074 -64.28,-0.124l-0.373,-0.124c-0.372,-0.124 -0.744,-0.248 -1.116,-0.496c-1.614,-0.993 -2.855,-2.482 -3.351,-4.343c-0.496,-1.862 -0.248,-3.723 0.745,-5.461l4.343,-7.445" style="fill:#58585a;fill-rule:nonzero;"/><path d="M180.843,406.493c3.35,1.986 4.591,6.205 2.73,9.68l-4.467,7.693l-0.124,0.248c-1.738,2.731 -5.088,3.971 -8.191,3.103c-0.124,0 -0.248,-0.124 -0.496,-0.124l-0.248,-0.124c-7.57,-2.358 -15.388,-3.599 -23.081,-3.599c-7.818,0 -15.636,1.241 -23.082,3.599l-0.248,0.124c-3.226,0.992 -6.701,-0.373 -8.438,-3.227l-4.467,-7.569c-0.993,-1.614 -1.241,-3.599 -0.745,-5.46c0.496,-1.862 1.737,-3.351 3.351,-4.344c0.372,-0.248 0.744,-0.372 1.116,-0.496l0.373,-0.124c20.599,-7.073 43.432,-7.197 64.404,0c0.372,0.124 0.744,0.248 0.992,0.372l0.249,0.124c0.124,0 0.248,0.124 0.372,0.124" style="fill:#58585a;fill-rule:nonzero;"/><path d="M96.088,443.101c-11.789,10.672 -19.731,24.446 -23.081,39.833l0,0.373c-0.745,3.226 -3.723,5.584 -7.074,5.584l-8.81,0c-3.971,0 -7.198,-3.227 -7.198,-7.198c0,-0.372 0,-0.868 0.124,-1.241l0.125,-0.372c4.095,-21.344 15.511,-40.95 32.139,-55.469c0.249,-0.248 0.497,-0.497 0.869,-0.745l0.248,-0.248l0.248,-0.248c1.117,-0.621 2.358,-0.993 3.599,-0.993c2.482,0 4.84,1.241 6.205,3.475l4.343,7.445l0.248,0.497c1.489,2.854 0.993,6.328 -1.365,8.562c-0.124,0.372 -0.248,0.496 -0.62,0.745" style="fill:#58585a;fill-rule:nonzero;"/><path d="M93.606,571.164l-0.124,0.248c-2.11,3.351 -6.329,4.468 -9.679,2.482l-0.249,-0.248l-0.248,-0.248c-0.372,-0.248 -0.62,-0.497 -0.868,-0.745c-16.505,-14.394 -27.921,-34.001 -32.14,-55.345l-0.124,-0.372c-0.125,-0.373 -0.125,-0.745 -0.125,-1.241c0,-3.971 3.227,-7.198 7.198,-7.198l8.81,0c3.351,0 6.329,2.358 7.074,5.585l0,0.372c3.35,15.387 11.292,29.162 23.081,39.834l0.496,0.496c2.358,2.234 2.978,5.708 1.365,8.686l-4.467,7.694Z" style="fill:#58585a;fill-rule:nonzero;"/></g></svg>