<?xml version="1.0" encoding="UTF-8" standalone="no"?><!DOCTYPE svg PUBLIC "-//W3C//DTD SVG 1.1//EN" "http://www.w3.org/Graphics/SVG/1.1/DTD/svg11.dtd"><svg width="100%" height="100%" viewBox="0 0 998 998" version="1.1" xmlns="http://www.w3.org/2000/svg" xmlns:xlink="http://www.w3.org/1999/xlink" xml:space="preserve" xmlns:serif="http://www.serif.com/" style="fill-rule:evenodd;clip-rule:evenodd;stroke-linejoin:round;stroke-miterlimit:2;"><rect id="Sponsor-logos" serif:id="Sponsor logos" x="-1001.5" y="-344.5" width="2937.87" height="3510.43" style="fill:none;"/><clipPath id="_clip1"><rect id="nrwl-logo" x="105.007" y="375.825" width="787.397" height="245.739"/></clipPath><g clip-path="url(#_clip1)"><g id="LOGO"><path d="M346.851,592.833l0,28.73l45.191,0l0,-24.483l-45.191,-4.247Z" style="fill:#333;fill-rule:nonzero;"/><g id="whale"><g id="bdy"><path id="tusk" d="M283.225,581.814c0,-3.221 2.65,-5.872 5.871,-5.872l0.528,0c0.372,0 0.314,0 1.233,0.235l137.901,24.719l-140.543,-13.211c-2.881,-0.437 -5.023,-2.957 -4.99,-5.871Z" style="fill:#48c4e5;fill-rule:nonzero;"/><path d="M347.536,475.287l-0.372,0c-9.257,-1.605 -18.514,-8.416 -21.646,-17.262c-13.519,-48.4 -57.946,-82.118 -108.198,-82.118c-61.628,0 -112.34,50.712 -112.34,112.34c0,49.027 32.095,92.653 78.9,107.247c32.41,9.318 67.074,7.075 98.014,-6.341c7.398,-3.503 8.709,-9.061 8.709,-12.682c0,-3.621 -3.21,-6.009 -4.384,-7.613c-0.566,-0.653 -0.932,-1.455 -1.057,-2.31c-1.953,-28.057 -25.578,-50.099 -53.704,-50.103l-3.464,0c-0.006,0 -0.013,0 -0.019,0c-25.07,0 -45.699,-20.629 -45.699,-45.699c0,-11.962 4.697,-23.459 13.073,-31.999c11.191,-11.815 26.784,-18.492 43.057,-18.436c27.047,-0.043 50.914,18.271 57.873,44.407c-4.507,5.503 -10.831,9.223 -17.83,10.49c-12.431,2.185 -22.167,12.078 -24.151,24.543c11.508,0 19.16,15.657 40.532,15.657c7.867,0.006 14.99,-4.775 17.967,-12.056c2.988,7.281 10.116,12.059 17.986,12.056c5.793,0.041 11.521,-1.23 16.753,-3.718l0,-36.403Zm-126.803,93.942c0.685,-2.857 2.975,-1.644 5.989,-0.9c3.014,0.744 5.597,0.705 4.912,3.543c-0.713,2.365 -2.907,3.995 -5.377,3.995c-3.082,0 -5.617,-2.536 -5.617,-5.617c0,-0.343 0.031,-0.684 0.093,-1.021Z" style="fill:#48c4e5;fill-rule:nonzero;"/><path id="right_fin" d="M207.718,511.709c1.707,-7.829 8.342,-13.685 16.323,-14.404c-0.051,5.08 2.248,9.909 6.223,13.073c2.492,1.556 4.52,3.753 5.872,6.361l0,5.871l-28.418,0l0,-10.901Z" style="fill:#48c4e5;fill-rule:nonzero;"/></g><g id="highlights"><path d="M130.196,559.483c-16.293,-20.083 -25.191,-45.174 -25.191,-71.035c0,-51.348 35.077,-96.519 84.825,-109.237c-36.462,10.314 -77.249,43.585 -77.249,101.771c0,73.706 61.337,88.071 89.853,101.223c17.32,8.044 23.485,14.796 25.814,18.867l-4.227,0c-13.579,0.017 -27.092,-1.88 -40.141,-5.636c-13.387,-4.052 -28.672,-12.996 -39.338,-21.392c1.507,0.215 -7.535,-5.089 -16.421,-17.262" style="fill:#96d8e9;fill-rule:nonzero;"/><path d="M151.819,490.306c2.052,-0.475 4.27,1.523 4.95,4.459c0.68,2.936 -0.434,5.705 -2.486,6.181c-2.052,0.475 -4.27,-1.523 -4.95,-4.459c-0.68,-2.936 0.434,-5.705 2.486,-6.181Z" style="fill:#96d8e9;"/><path d="M163.762,512.182c2.135,-1.757 5.908,-0.706 8.421,2.346c2.512,3.053 2.819,6.958 0.684,8.715c-2.135,1.758 -5.908,0.706 -8.421,-2.346c-2.513,-3.052 -2.819,-6.957 -0.684,-8.715Z" style="fill:#96d8e9;"/><path d="M162.82,468.316c0.216,-3.006 2.097,-5.324 4.198,-5.173c2.101,0.151 3.631,2.714 3.415,5.72c-0.216,3.006 -2.097,5.324 -4.198,5.173c-2.101,-0.151 -3.631,-2.714 -3.415,-5.72Z" style="fill:#96d8e9;"/><path d="M153.356,472.958c1.057,-0.045 1.968,1.146 2.032,2.657c0.063,1.511 -0.743,2.774 -1.801,2.818c-1.058,0.045 -1.968,-1.145 -2.032,-2.656c-0.064,-1.511 0.743,-2.774 1.801,-2.819Z" style="fill:#96d8e9;"/><path id="left_fin" d="M179.731,582.616c-8.189,7.47 -18.403,12.36 -29.357,14.053c-1.579,0.234 -3.184,0.411 -4.815,0.528c-3.08,0.175 -6.169,0.103 -9.237,-0.215c-3.707,-0.38 -7.439,-0.445 -11.156,-0.196c-6.342,0.393 -12.593,1.712 -18.554,3.914c-1.005,-2.615 -1.521,-5.393 -1.521,-8.194c0,-11.945 9.371,-21.976 21.288,-22.787c4.471,-0.332 8.939,0.691 12.82,2.935c3.89,2.186 8.324,3.218 12.78,2.975c4.065,-0.265 7.986,-1.617 11.351,-3.914c3.365,-2.297 2.623,-2.29 8.807,1.703c8.984,5.832 7.594,9.198 7.594,9.198Z" style="fill:#96d8e9;fill-rule:nonzero;"/></g></g><path d="M456.804,461.078l0,85.527l-71.984,-85.527l-37.969,0l0,116.528l45.191,10.686l0,-52.236l71.983,85.507l37.969,0l0,-160.485l-45.19,0Z" style="fill:#333;fill-rule:nonzero;"/><path d="M583.47,499.497c7.93,-2.973 16.349,-4.427 24.816,-4.287l0,39.143c-3.347,-0.375 -6.711,-0.571 -10.079,-0.587c-9.473,0 -16.89,2.518 -22.253,7.555c-5.362,5.036 -8.024,12.76 -7.985,23.172l0,57.07l-44.251,0l0,-124.258l42.157,0l0,14.913c4.618,-5.741 10.696,-10.135 17.595,-12.721Z" style="fill:#333;fill-rule:nonzero;"/><path d="M813.806,497.305l-35.914,124.258l-42.861,0l-14.737,-56.952l-15.658,56.952l-42.861,0l-35.914,-124.258l41.942,0l16.812,62.745l17.751,-62.745l37.734,0l17.046,63.43l17.752,-63.43l38.908,0Z" style="fill:#333;fill-rule:nonzero;"/><path d="M874.712,431.877l-44.368,0l0,144.829c0,38.908 25.129,43.859 48.713,43.859c7.183,0 13.348,-0.685 13.348,-0.685l0,-33.78c0,0 -2.564,0.235 -5.383,0.235c-10.001,0 -12.31,-3.914 -12.31,-14.855l0,-139.603Z" style="fill:#333;fill-rule:nonzero;"/></g></g></svg>