<?xml version="1.0" encoding="UTF-8" standalone="no"?>
<!DOCTYPE svg PUBLIC "-//W3C//DTD SVG 1.1//EN" "http://www.w3.org/Graphics/SVG/1.1/DTD/svg11.dtd">
<svg width="100%" height="100%" viewBox="0 0 1995 1995" version="1.1" xmlns="http://www.w3.org/2000/svg" xmlns:xlink="http://www.w3.org/1999/xlink" xml:space="preserve" xmlns:serif="http://www.serif.com/" style="fill-rule:evenodd;clip-rule:evenodd;stroke-linejoin:round;stroke-miterlimit:2;">
    <g transform="matrix(1,0,0,1,-9935,-1125)">
        <g id="Sponsor-logos" serif:id="Sponsor logos" transform="matrix(1,0,0,1,17585,1981.49)">
            <rect x="-9652.96" y="-1545.49" width="5875.74" height="7020.86" style="fill:none;"/>
            <g id="productboard_logo_black_text" transform="matrix(2.84173,0,0,2.84173,-6652.55,140.901)">
                <g transform="matrix(1,0,0,1,-277.083,-45.8333)">
                    <g transform="matrix(4.16667,0,0,4.16667,0,0)">
                        <path d="M10.63,11.371l0,-10.63l10.629,0l-10.629,10.63Z" style="fill:#2295d1;fill-rule:nonzero;"/>
                        <path d="M10.63,11.371l0,-10.63l-10.63,0l10.63,10.63Z" style="fill:#5ebbe7;fill-rule:nonzero;"/>
                        <path d="M21.259,22l0,-10.629l10.631,0l-10.631,10.629Z" style="fill:#8e261c;fill-rule:nonzero;"/>
                        <path d="M21.259,22l0,-10.629l-10.629,0l10.629,10.629Z" style="fill:#cf3527;fill-rule:nonzero;"/>
                        <path d="M10.63,11.371l0,10.629l10.629,0l-10.629,-10.629Z" style="fill:#f8ad34;fill-rule:nonzero;"/>
                        <path d="M10.63,11.371l0,10.629l-10.63,0l10.63,-10.629Z" style="fill:#fcdf71;fill-rule:nonzero;"/>
                        <path d="M21.259,0.741l0,10.63l10.631,0l-10.631,-10.63Z" style="fill:#a92823;fill-rule:nonzero;"/>
                        <path d="M21.259,0.741l0,10.63l-10.629,0l10.629,-10.63Z" style="fill:#e74b3b;fill-rule:nonzero;"/>
                        <path d="M46.184,14.174c0.56,-0.686 0.826,-1.638 0.826,-2.87c0,-1.232 -0.266,-2.184 -0.812,-2.856c-0.532,-0.686 -1.302,-1.022 -2.296,-1.022c-0.504,0 -0.952,0.098 -1.33,0.28c-0.392,0.182 -0.728,0.476 -1.022,0.882l-0.056,0l-0.154,-1.022l-0.924,0l0,10.85l1.134,0l0,-3.08c0,-0.392 -0.028,-0.798 -0.084,-1.246l0.084,0c0.28,0.378 0.616,0.658 1.022,0.84c0.392,0.182 0.84,0.266 1.33,0.266c0.98,0 1.736,-0.336 2.282,-1.022Zm-0.896,-5.04c0.364,0.504 0.546,1.218 0.546,2.156c0,0.924 -0.182,1.638 -0.546,2.17c-0.364,0.518 -0.868,0.784 -1.526,0.784c-0.77,0 -1.33,-0.224 -1.68,-0.686c-0.35,-0.448 -0.532,-1.204 -0.532,-2.254l0,-0.252c0.014,-0.924 0.182,-1.596 0.532,-2.03c0.336,-0.42 0.896,-0.63 1.652,-0.63c0.672,0 1.19,0.252 1.554,0.742Z" style="fill:#4c575e;fill-rule:nonzero;"/>
                        <path d="M51.126,7.818c-0.392,0.266 -0.728,0.644 -1.008,1.134l-0.056,0l-0.126,-1.386l-0.938,0l0,7.49l1.134,0l0,-4.018c0,-0.728 0.21,-1.344 0.644,-1.834c0.434,-0.49 0.952,-0.742 1.554,-0.742c0.238,0 0.518,0.028 0.826,0.098l0.154,-1.05c-0.266,-0.056 -0.56,-0.084 -0.896,-0.084c-0.476,0 -0.896,0.126 -1.288,0.392Z" style="fill:#4c575e;fill-rule:nonzero;"/>
                        <path d="M60.254,8.476c-0.616,-0.7 -1.456,-1.05 -2.506,-1.05c-1.078,0 -1.932,0.336 -2.534,1.022c-0.616,0.686 -0.924,1.638 -0.924,2.856c0,0.784 0.14,1.484 0.42,2.072c0.294,0.588 0.686,1.036 1.204,1.344c0.518,0.322 1.12,0.476 1.792,0.476c1.078,0 1.932,-0.35 2.548,-1.036c0.616,-0.686 0.924,-1.638 0.924,-2.856c0,-1.19 -0.308,-2.128 -0.924,-2.828Zm-4.214,0.644c0.378,-0.49 0.938,-0.728 1.68,-0.728c0.742,0 1.316,0.252 1.708,0.742c0.378,0.49 0.574,1.218 0.574,2.17c0,0.966 -0.196,1.694 -0.574,2.198c-0.392,0.49 -0.952,0.742 -1.694,0.742c-0.742,0 -1.302,-0.252 -1.694,-0.756c-0.378,-0.504 -0.574,-1.232 -0.574,-2.184c0,-0.966 0.196,-1.694 0.574,-2.184Z" style="fill:#4c575e;fill-rule:nonzero;"/>
                        <path d="M68.416,15.056l0.924,0l0,-10.64l-1.134,0l0,3.052l0.028,0.532l0.042,0.532l-0.084,0c-0.546,-0.742 -1.316,-1.106 -2.338,-1.106c-0.98,0 -1.736,0.336 -2.282,1.022c-0.546,0.686 -0.826,1.652 -0.826,2.884c0,1.232 0.28,2.184 0.826,2.856c0.532,0.672 1.302,1.008 2.282,1.008c1.05,0 1.834,-0.378 2.352,-1.148l0.056,0l0.154,1.008Zm-3.962,-1.54c-0.35,-0.49 -0.532,-1.218 -0.532,-2.17c0,-0.938 0.182,-1.68 0.532,-2.198c0.35,-0.518 0.868,-0.77 1.526,-0.77c0.784,0 1.344,0.224 1.694,0.686c0.35,0.448 0.532,1.204 0.532,2.268l0,0.238c0,0.938 -0.168,1.624 -0.518,2.044c-0.35,0.42 -0.91,0.63 -1.694,0.63c-0.672,0 -1.19,-0.238 -1.54,-0.728Z" style="fill:#4c575e;fill-rule:nonzero;"/>
                        <path d="M71.664,7.566l0,4.9c0,0.952 0.224,1.652 0.686,2.086c0.448,0.434 1.134,0.644 2.044,0.644c0.532,0 0.994,-0.098 1.414,-0.294c0.406,-0.196 0.728,-0.476 0.966,-0.854l0.056,0l0.168,1.008l0.938,0l0,-7.49l-1.134,0l0,3.934c0,0.98 -0.182,1.68 -0.546,2.1c-0.364,0.434 -0.938,0.644 -1.722,0.644c-0.588,0 -1.022,-0.154 -1.302,-0.448c-0.28,-0.308 -0.42,-0.756 -0.42,-1.372l0,-4.858l-1.148,0Z" style="fill:#4c575e;fill-rule:nonzero;"/>
                        <path d="M85.23,14.804l0,-1.008c-0.658,0.266 -1.302,0.406 -1.918,0.406c-0.728,0 -1.288,-0.252 -1.652,-0.742c-0.378,-0.49 -0.56,-1.19 -0.56,-2.114c0,-1.946 0.756,-2.912 2.282,-2.912c0.224,0 0.49,0.028 0.784,0.098c0.294,0.07 0.574,0.154 0.826,0.252l0.35,-0.966c-0.21,-0.112 -0.49,-0.196 -0.854,-0.28c-0.35,-0.07 -0.714,-0.112 -1.078,-0.112c-1.12,0 -1.974,0.336 -2.576,1.022c-0.602,0.686 -0.91,1.652 -0.91,2.912c0,1.218 0.294,2.17 0.896,2.828c0.588,0.672 1.428,1.008 2.52,1.008c0.756,0 1.386,-0.126 1.89,-0.392Z" style="fill:#4c575e;fill-rule:nonzero;"/>
                        <path d="M88.543,13.894c-0.21,-0.238 -0.322,-0.588 -0.322,-1.036l0,-4.41l2.17,0l0,-0.882l-2.17,0l0,-1.736l-0.658,0l-0.476,1.596l-1.078,0.476l0,0.546l1.078,0l0,4.452c0,1.526 0.728,2.296 2.17,2.296c0.196,0 0.406,-0.014 0.644,-0.056c0.238,-0.042 0.42,-0.084 0.546,-0.154l0,-0.868c-0.112,0.042 -0.252,0.07 -0.448,0.098c-0.182,0.028 -0.378,0.042 -0.574,0.042c-0.378,0 -0.672,-0.126 -0.882,-0.364Z" style="fill:#4c575e;fill-rule:nonzero;"/>
                        <path d="M94.199,8.406l-0.084,0c0.056,-0.686 0.084,-1.204 0.084,-1.512l0,-2.478l-2.086,0l0,10.64l1.596,0l0.35,-0.84l0.14,0c0.518,0.658 1.218,0.98 2.114,0.98c0.91,0 1.624,-0.35 2.156,-1.036c0.518,-0.7 0.784,-1.68 0.784,-2.94c0,-1.218 -0.252,-2.184 -0.77,-2.898c-0.504,-0.7 -1.218,-1.05 -2.114,-1.05c-0.952,0 -1.68,0.378 -2.17,1.134Zm2.548,1.092c0.252,0.378 0.378,0.938 0.378,1.694c0,0.756 -0.126,1.33 -0.378,1.722c-0.252,0.392 -0.588,0.588 -1.022,0.588c-0.532,0 -0.91,-0.182 -1.162,-0.532c-0.238,-0.35 -0.364,-0.938 -0.364,-1.764l0,-0.224c0.014,-0.728 0.14,-1.246 0.364,-1.568c0.238,-0.322 0.616,-0.476 1.134,-0.476c0.448,0 0.798,0.182 1.05,0.56Z" style="fill:#4c575e;fill-rule:nonzero;"/>
                        <path d="M103.005,9.512c0.252,-0.378 0.644,-0.56 1.204,-0.56c0.56,0 0.966,0.196 1.204,0.574c0.252,0.378 0.378,0.938 0.378,1.694c0,0.756 -0.126,1.33 -0.364,1.722c-0.252,0.378 -0.644,0.574 -1.204,0.574c-0.56,0 -0.966,-0.196 -1.218,-0.574c-0.238,-0.392 -0.364,-0.966 -0.364,-1.722c0,-0.756 0.126,-1.33 0.364,-1.708Zm4.466,-0.392c-0.308,-0.588 -0.728,-1.05 -1.288,-1.372c-0.56,-0.322 -1.218,-0.476 -1.946,-0.476c-1.176,0 -2.1,0.35 -2.744,1.036c-0.658,0.7 -0.98,1.666 -0.98,2.912c0,0.812 0.154,1.512 0.448,2.114c0.308,0.602 0.728,1.064 1.288,1.386c0.56,0.322 1.218,0.476 1.946,0.476c1.176,0 2.086,-0.35 2.744,-1.05c0.658,-0.7 0.98,-1.68 0.98,-2.926c0,-0.798 -0.154,-1.498 -0.448,-2.1Z" style="fill:#4c575e;fill-rule:nonzero;"/>
                        <path d="M115.955,15.056l0,-5.096c0,-0.91 -0.28,-1.582 -0.826,-2.03c-0.546,-0.448 -1.33,-0.672 -2.352,-0.672c-1.078,0 -2.044,0.224 -2.926,0.686l0.686,1.414c0.826,-0.378 1.54,-0.56 2.156,-0.56c0.798,0 1.19,0.392 1.19,1.162l0,0.336l-1.33,0.042c-1.148,0.042 -2.002,0.252 -2.562,0.644c-0.574,0.378 -0.854,0.98 -0.854,1.792c0,0.77 0.21,1.372 0.63,1.792c0.42,0.42 1.008,0.63 1.736,0.63c0.602,0 1.078,-0.084 1.456,-0.252c0.364,-0.182 0.728,-0.476 1.078,-0.924l0.056,0l0.406,1.036l1.456,0Zm-2.072,-2.912c0,0.462 -0.14,0.826 -0.434,1.106c-0.294,0.28 -0.672,0.42 -1.162,0.42c-0.672,0 -1.008,-0.294 -1.008,-0.882c0,-0.406 0.14,-0.714 0.448,-0.924c0.294,-0.196 0.742,-0.308 1.344,-0.322l0.812,-0.028l0,0.63Z" style="fill:#4c575e;fill-rule:nonzero;"/>
                        <path d="M121.051,7.664c-0.406,0.266 -0.728,0.602 -0.966,1.036l-0.098,0l-0.308,-1.288l-1.582,0l0,7.644l2.086,0l0,-3.892c0,-0.616 0.182,-1.092 0.56,-1.428c0.364,-0.35 0.882,-0.518 1.554,-0.518c0.238,0 0.448,0.028 0.616,0.07l0.154,-1.96c-0.182,-0.042 -0.42,-0.056 -0.7,-0.056c-0.476,0 -0.91,0.126 -1.316,0.392Z" style="fill:#4c575e;fill-rule:nonzero;"/>
                        <path d="M129.045,14.062l0.084,0l0.406,0.994l1.596,0l0,-10.64l-2.086,0l0,2.45c0,0.448 0.056,0.952 0.154,1.526l-0.07,0c-0.504,-0.742 -1.232,-1.12 -2.198,-1.12c-0.91,0 -1.638,0.35 -2.156,1.05c-0.518,0.7 -0.784,1.68 -0.784,2.926c0,1.232 0.252,2.198 0.77,2.898c0.518,0.7 1.218,1.05 2.114,1.05c0.966,0 1.694,-0.378 2.17,-1.134Zm-2.548,-1.092c-0.266,-0.378 -0.392,-0.938 -0.392,-1.694c0,-0.756 0.126,-1.33 0.378,-1.722c0.266,-0.392 0.63,-0.588 1.092,-0.588c0.574,0 0.98,0.182 1.232,0.532c0.252,0.35 0.378,0.938 0.378,1.764l0,0.224c-0.014,0.742 -0.154,1.274 -0.406,1.582c-0.252,0.308 -0.644,0.462 -1.176,0.462c-0.476,0 -0.854,-0.182 -1.106,-0.56Z" style="fill:#4c575e;fill-rule:nonzero;"/>
                    </g>
                </g>
            </g>
        </g>
    </g>
</svg>
