<?xml version="1.0" encoding="UTF-8" standalone="no"?>
<!DOCTYPE svg PUBLIC "-//W3C//DTD SVG 1.1//EN" "http://www.w3.org/Graphics/SVG/1.1/DTD/svg11.dtd">
<svg width="100%" height="100%" viewBox="0 0 1995 1995" version="1.1" xmlns="http://www.w3.org/2000/svg" xmlns:xlink="http://www.w3.org/1999/xlink" xml:space="preserve" xmlns:serif="http://www.serif.com/" style="fill-rule:evenodd;clip-rule:evenodd;stroke-linejoin:round;stroke-miterlimit:2;">
    <g transform="matrix(1,0,0,1,-9935,-1125)">
        <g id="Sponsor-logos" serif:id="Sponsor logos" transform="matrix(1,0,0,1,17585,1981.49)">
            <rect x="-9652.96" y="-1545.49" width="5875.74" height="7020.86" style="fill:none;"/>
            <g id="purestorage_logo.svg.imgw.720.720" transform="matrix(3.17499,0,0,3.17499,-6652.55,140.901)">
                <g transform="matrix(1,0,0,1,-248,-44)">
                    <g>
                        <path d="M51.7,88l-21.5,0c-4.4,0 -8.5,-2.4 -10.7,-6.3l-17.8,-31.4c-2.2,-3.8 -2.2,-8.7 0,-12.5l17.9,-31.5c2.3,-3.8 6.3,-6.3 10.6,-6.3l36,0c4.4,0 8.5,2.4 10.7,6.3l18,31.5c2.2,3.8 2.2,8.7 0,12.5l-4.6,7.4c-2.2,3.8 -6.3,6.2 -10.7,6.2l-21.4,0l11.7,-20l-10.9,-18.8l-21.6,0l-10.8,19l25.1,43.9Z" style="fill:#f05423;fill-rule:nonzero;"/>
                        <g>
                            <g>
                                <path d="M128.6,64.3l-10,0l0,-39l14.2,0c9,0 14.6,4.2 14.6,12.4c0,9.1 -6.5,13.6 -15.8,13.6l-2.9,0l0,13l-0.1,0Zm2.2,-20.8c3.9,0 6.3,-1.1 6.3,-5.2c0,-3.9 -2.1,-5.1 -5.7,-5.1l-2.8,0l0,10.2c0,0.1 2.2,0.1 2.2,0.1Z" style="fill:#222;fill-rule:nonzero;"/>
                                <path d="M163.1,25.3l0,25.4c0,4.5 2.2,5.8 5.4,5.8c3.1,0 5.1,-1.8 5.1,-5.5l0,-25.7l10,0l0,27c0,7.9 -6.3,12.6 -15.3,12.6c-10,0 -15.1,-4.1 -15.1,-13.6l0,-26l9.9,0Z" style="fill:#222;fill-rule:nonzero;"/>
                                <path d="M226.2,25.3l25.2,0l0,8.8l-15.3,0l0,5.9l13.1,0l0,8.8l-13.1,0l0,6.7l15.7,0l0,8.8l-25.6,0l0,-39Z" style="fill:#222;fill-rule:nonzero;"/>
                                <path d="M261.6,57.6c1.8,1.3 6,3.4 10.4,3.4c3.9,0 8.1,-1.3 8.1,-7.2c0,-4.6 -4,-6.2 -8.8,-7.4c-5.6,-1.5 -11,-3.7 -11,-10.8c0,-6.5 5,-10.8 12.2,-10.8c5.3,0 9.7,2.5 12.5,5.2l-2.5,3.1c-3.1,-2.7 -6.4,-4.4 -10,-4.4c-3.2,0 -7.4,1.4 -7.4,6.3c0,4.6 3.9,6 8.9,7.4c5.3,1.7 10.8,3.8 10.8,11.1c0,7.3 -4.9,11.4 -12.9,11.4c-5.6,0 -10.7,-2.2 -12.2,-3.5l1.9,-3.8Z" style="fill:#222;fill-rule:nonzero;"/>
                                <path d="M317.2,25.3l0,4.1l-11.7,0l0,35l-4.5,0l0,-35l-11.5,0l0,-3.9l27.8,0l0,-0.2l-0.1,0Z" style="fill:#222;fill-rule:nonzero;"/>
                                <path d="M335.8,65c-9.9,0 -15.8,-6.7 -15.8,-20.1c0,-15 8.6,-20.2 16.4,-20.2c8.3,0 15.6,5.3 15.6,20.2c-0.1,13.4 -6.3,20.1 -16.2,20.1Zm0.4,-3.9c8.3,0 11,-8 11,-16c0,-6.9 -2.2,-16.4 -11.1,-16.4c-8.5,0 -11.5,8.1 -11.5,16.1c0,7.6 2,16.3 11.6,16.3Z" style="fill:#222;fill-rule:nonzero;"/>
                                <path d="M389.2,64.3l13.6,-38.9l5.4,0l13.9,38.9l-4.9,0l-4.2,-11.9l-15,0l-4.2,11.9c0.1,0 -4.6,0 -4.6,0Zm9.8,-15.7l13,0l-6.5,-19l-6.5,19Z" style="fill:#222;fill-rule:nonzero;"/>
                                <path d="M453.1,61.4c-3.2,2.1 -7.8,3.5 -12.8,3.5c-10.1,0 -16.4,-6.5 -16.4,-20.1c0,-15.2 8.8,-20.2 16.4,-20.2c3.9,0 9,1.3 12.9,6.3l-3.3,2.7c-2.5,-3.1 -5.6,-4.9 -9.7,-4.9c-7.4,0 -11.7,6 -11.7,15.9c0,10.5 3.8,16.7 12.1,16.7c3.1,0 6.4,-1.1 7.8,-2.1l0,-11.7l-8.6,0l0,-3.9l13.2,0l0.1,17.8Z" style="fill:#222;fill-rule:nonzero;"/>
                                <path d="M461,25.3l21.5,0l0,4.1l-17,0l0,13.1l14.6,0l0,3.9l-14.6,0l0,13.9l17.5,0l0,3.9l-22,0l0,-38.9Z" style="fill:#222;fill-rule:nonzero;"/>
                                <path d="M380.1,52.1c-0.8,-2 -1.4,-2.9 -2.6,-3.5c4.3,-2 6.9,-5.8 6.9,-11.5c0,-7.6 -4.9,-11.7 -12.9,-11.7l-12.5,0l0,38.9l4.6,0l0,-14.3l8.1,0c2.4,0 3.5,1.5 4.4,3.7l4.9,10.7l4.9,0l-5.8,-12.3Zm-10.9,-5.9l-5.8,0l0,-17l5,0c6.5,0 11.1,0.7 11.1,8.4c0.2,6.3 -4.1,8.6 -10.3,8.6Z" style="fill:#222;fill-rule:nonzero;"/>
                                <path d="M215.9,51.9c-0.6,-1.4 -1.5,-2.5 -2.5,-3.1c3.6,-2.2 5.8,-5.9 5.8,-11.2c0,-8.1 -5.6,-12.4 -14.6,-12.4l-14.2,0l0,38.9l10,0l0,-12.9l2.5,0c1.4,0.1 2.2,0.8 2.8,2.2l4.7,10.7l10.7,0l-5.2,-12.2Zm-15.3,-8.4l0,-10.2l2.8,0c3.6,0 5.7,1.1 5.7,5.1c0,4.1 -2.4,5.2 -6.3,5.2c0,-0.1 -2.2,-0.1 -2.2,-0.1Z" style="fill:#222;fill-rule:nonzero;"/>
                            </g>
                            <path d="M490.9,34.7c-2.9,0 -5.1,-2.2 -5.1,-5.2c0,-3.1 2.4,-5.2 5.1,-5.2c2.7,0 5.1,2.1 5.1,5.2c-0.1,3.1 -2.5,5.2 -5.1,5.2Zm0,-9.6c-2.2,0 -4,1.8 -4,4.4c0,2.4 1.5,4.4 4,4.4c2.2,0 4,-1.8 4,-4.4c-0.1,-2.7 -1.8,-4.4 -4,-4.4Zm-1.1,7.3l-1,0l0,-5.8l2.2,0c1.4,0 2.1,0.4 2.1,1.7c0,1 -0.7,1.5 -1.5,1.5l1.7,2.5l-1.1,0l-1.5,-2.5l-0.8,0l0,2.6l-0.1,0Zm1.1,-3.3c0.7,0 1.4,-0.1 1.4,-0.8c0,-0.7 -0.7,-0.8 -1.3,-0.8l-1.3,0l0,1.7l1.2,0l0,-0.1Z" style="fill:#222;fill-rule:nonzero;"/>
                        </g>
                    </g>
                </g>
            </g>
        </g>
    </g>
</svg>
