<svg xmlns="http://www.w3.org/2000/svg" fill-rule="evenodd" stroke-linejoin="round" stroke-miterlimit="2" clip-rule="evenodd" viewBox="0 0 998 998">
  <defs/>
  <path fill="none" d="M-1001.5-344.5h2937.9v3510.4h-2937.9z"/>
  <path fill="#00b4cd" d="M105 105h787.4v787.4H105z"/>
  <path fill="#f7ece7" fill-rule="nonzero" d="M355.5 550.3c5.6 0 9.6-2.7 9.6-9.3 0-6.7-4-9.3-9.6-9.3h-14.8v18.6h14.8zm-30-32.8h30c16.5 0 25.2 9.7 25.2 23.3 0 10.9-5.4 19-15.4 22l22.6 37h-17l-22.2-35.5h-8v35.5h-15.2v-82.3zM441.1 563.9c-1.4-6.4-5.4-12.2-14-12.2-8 0-12.7 6-13.9 12.2h28zm-42.4 6.2c0-14 8.1-30.6 28.5-30.6 19.7 0 27.6 16.4 27.6 29.3v6H413c.3 6.5 6 13.3 15 13.3 6.6 0 11.4-3.8 14.5-8.4l11.6 6a29 29 0 01-27 14.8c-20.4.2-28.5-16.3-28.5-30.4M510.3 575.6v-1.3h-10.8c-6.8 0-11 2.6-11 8.4 0 3 2.1 6.2 6.6 6.2 7.3-.1 15.2-5 15.2-13.3m-35.2 7.1c0-11.7 10.3-19.4 25.3-19.4h9.9v-2.6c0-6.5-5-9.4-10.4-9.4-4 0-8.4 2-10.3 8.2l-12.3-3.5a22.9 22.9 0 0122.6-16.3c14.1 0 24.3 6 24.3 24.8v35.3h-11.3l-1.5-7.5a22 22 0 01-18.3 8.4c-10.2 0-18-6.2-18-18M545 570.1c0-16.5 10.3-30.6 28.4-30.6 12.2 0 20.8 5.2 25.8 16.4l-12.5 5.2c-3.2-7-7.4-9.1-13.3-9.1-8 0-13.9 6.5-13.9 18.1 0 11.6 5.8 18.1 14 18.1 5.8 0 10-2 13.2-9.1l12.5 5.2c-4.8 11-13.4 16.4-25.8 16.4-18.1 0-28.4-14-28.4-30.6M630.5 575.9V553H616v-12.5h14.6v-14.7l14.7-9.2v24h25.9V553h-26v23.2c0 8.3 3.6 12 9.7 12 4 0 7.8-1.9 12-7l5 11.8a23.3 23.3 0 01-17.2 7.7c-15.4 0-24-8.3-24-24.8M362.5 677c0-4.9-3.5-8.2-8.1-8.2a7.9 7.9 0 00-8.1 8.3c0 4.7 3.4 8 8 8 4.9 0 8.2-3.3 8.2-8m4.4 45.5c0-5-4-6.1-9.6-6.1h-8c-2.5 0-4.6-.2-6.8-.5-.9 1.5-1.3 3.2-1.3 5.4 0 5.7 5.6 8.4 13.3 8.4 7 .2 12.4-1.9 12.4-7.2m-39.2 0c0-4.8 1.7-9 4.8-11.8-2-2.1-3.1-5.3-3.1-9.1 0-5.7 3-9.9 7.3-12.5-2.7-3.2-4.1-7.2-4.1-12.1 0-12.4 9.7-20 21.8-20 4 0 7.7.8 10.9 2.6l11.2-6 5.8 9.6-8.4 4.2c1.5 2.7 2.3 6 2.3 9.4 0 12.5-9.8 19.7-21.8 19.7-3 0-6-.4-8.6-1.3a5.1 5.1 0 00-2.7 4.5c0 2.8 2 4.4 5.5 4.4h12c12.5 0 20.8 5.9 20.8 17.4 0 14.6-13.8 20.4-27 20.4-15 .1-26.7-6.4-26.7-19.4M416.6 641c0-5.2 4-9.4 9.4-9.4s9.4 4 9.4 9.4c0 5.2-4 9.4-9.4 9.4s-9.4-4-9.4-9.4M401 704.7h18.3v-34.2h-15.2v-12.4h30v46.8h18.3v12.4H401v-12.6zM473 658h14.6v9c6-8.3 15.1-10 20.5-10 10.6 0 17.8 7.2 18.6 20.3h-14.4c-.3-6.6-3.8-8.4-7.6-8.4-9.4 0-17.1 12.2-17.1 30.2v18.1h-14.7v-59.1zM557.2 694.9v-47.4h-15.3V635h29.8v56.7c0 10.1 4.4 12.3 9 12.3 6.1 0 8.9-4.2 9.9-10l12.8 2.6c-2.2 14.4-10.6 21.5-22.7 21.5-13.6.1-23.5-8.3-23.5-23.2M620.8 700.4l13.2-4.6c2.2 6.8 6.1 9.8 13.4 9.8 5.5 0 9.7-2.2 9.7-5.6 0-3.2-3-4.8-12.5-6.9-12-2.6-20-8.4-20-19 0-10.5 10.3-17 21-17 11.4 0 18.8 5.2 23.3 13.3l-10.5 7.2c-3-5.9-7.7-8-12.6-8-4 0-7.7 2-7.7 5 0 2.7 1.9 5 10.7 6.7 13.8 2.7 21.8 7 21.8 17.8 0 12.2-10.7 19-23.8 19-11.8.1-21.5-4.7-26-17.7M606.1 358.2c-.7 1.5-2 3-3.7 4.8a53 53 0 01-13.6 8.7c-4.9 2.3-10.6 4.5-17.1 6.2l-4-11.4a191 191 0 00-5.6-13c3.8-8.2 7.1-16.4 9.6-24.3l2.8 1c11 3.2 19.7 7.6 25.4 12 2.7 2.1 4.8 4.3 6 6.2.5 1 1 1.9 1.2 2.7.3.9.5 1.6.5 2.5a13 13 0 01-1.5 4.6M563.7 402c1.2 6 1.8 11.6 1.8 16.5 0 5.5-.8 10-2 13.2-.7 1.6-1.4 2.9-2.1 3.8a8.6 8.6 0 01-4.7 3c-.8.2-1.7.3-2.7.3-1.8 0-3.8-.3-6.1-1-4-1.3-9-3.8-14.4-7.5-4.4-3-8.9-6.9-13.7-11.4 1.2-1.1 2.2-2.4 3.4-3.7 4.3-5 8.7-10.7 13-16.7a178 178 0 0025.8-3.9c.7 2.6 1.3 5 1.7 7.4m-83.4 32.5a37.5 37.5 0 01-7.7 3.3c-2.3.7-4.3 1-6 1-1 0-2-.1-2.8-.3-.9-.1-1.5-.4-2.2-.9a8.6 8.6 0 01-2.5-2.1 16.4 16.4 0 01-2.9-6.4c-.7-3-1.1-6.4-1.1-10.6a90.1 90.1 0 013.3-23.9l4.5.9c6.8 1.3 14 2.1 21.4 2.9 5.2 7.4 10.7 14.3 16.2 20.4-.6.6-1.1 1.2-1.7 1.6a94.5 94.5 0 01-18.5 14M420.6 365a25.8 25.8 0 01-6-6.2c-.5-1-1-1.9-1.2-2.8-.3-.8-.5-1.5-.5-2.4a8 8 0 011.3-4.5c.8-1.5 2-3 3.8-4.8 3-2.9 7.7-6 13.5-8.7 5-2.3 10.6-4.5 17.2-6.2 1.1 3.8 2.6 7.5 4 11.4 1.6 4.2 3.5 8.6 5.6 13a216 216 0 00-9.6 24.3l-2.8-.9a80.3 80.3 0 01-25.3-12.2m36.2-59.7c-1.2-6-1.7-11.6-1.7-16.5 0-5.5.7-10 2-13.2a13 13 0 012-3.8c.7-1 1.6-1.5 2.5-2.1.7-.5 1.3-.8 2.2-.9.8-.1 1.7-.3 2.7-.3 1.8 0 3.8.3 6.1 1 4.1 1.3 9 3.8 14.4 7.6 4.4 3 8.9 6.8 13.7 11.3-1.2 1.1-2.2 2.4-3.4 3.7-4.3 5.1-8.7 10.8-12.9 16.7a178.4 178.4 0 00-25.9 4 89 89 0 01-1.7-7.5m53.5-6.8l2.3 2.6 5.4 6.7-7.7-.2c-2.7 0-5.3 0-7.7.2 2.4-3.3 5-6.4 7.7-9.3m-40 32.2l-3.8 6.7c-1.6-4-2.9-7.7-4.2-11.4l3.2-.5 8.7-1.5-3.9 6.7m-3.8 39.3a271.2 271.2 0 007.7 13.3l-3.5-.6-8.4-1.4c1-3.2 2.2-6.4 3.5-9.6l.7-1.7m43.8 38.8l-2.4-2.6-5.3-6.7 7.7.2c2.6 0 5.2 0 7.7-.2l-7.7 9.3m27.7-39.1c-3 5.3-6.4 10.6-9.6 15.3a250.5 250.5 0 01-36.3 0 229.5 229.5 0 01-18.2-31.4 288.9 288.9 0 0118.2-31.5 250.4 250.4 0 0136.3 0 229.8 229.8 0 0118.2 31.5c-2.6 5.3-5.4 10.7-8.6 16m15.8.4c1.6 3.9 3 7.6 4.2 11.3l-3.1.5-8.8 1.5 4-6.7c1.3-2.1 2.6-4.5 3.7-6.6m0-32.6c-1.1-2.2-2.4-4.5-3.7-6.7l-6.1 3.5 6-3.5c-1.2-2.3-2.6-4.5-3.9-6.7 1.2.2 2.4.3 3.5.6l8.4 1.4c-1 3.2-2.1 6.4-3.4 9.6l-.8 1.8M540 272.9c2.8-1.6 5.4-2.6 7.7-3.4 2.4-.7 4.4-1 6.1-1 1 0 2 .2 2.8.3.9.1 1.4.4 2.2.9.8.6 1.7 1.1 2.4 2.1 1.2 1.5 2.2 3.5 3 6.4.7 3 1.1 6.4 1.1 10.6a90.1 90.1 0 01-3.3 24l-4.5-1c-6.9-1.3-14-2.1-21.4-2.9a219 219 0 00-16.3-20.4l1.8-1.6a99 99 0 0118.4-14m78.3 69.5a31 31 0 00-6.4-8c-4.5-4.4-10.3-8-17.1-11.2-5.7-2.7-12.2-5.1-19.2-7.2l1.8-8c1.3-6.9 1.9-13.3 2-19 0-6.7-.9-13-3-18.3a23.4 23.4 0 00-16.4-15.2 29.3 29.3 0 00-16.2.8c-6 2-12 5.1-18.1 9.5-5.1 3.4-10.2 7.8-15.3 12.7l-1.9-1.7a113 113 0 00-21.2-15.8c-3.5-2-7-3.5-10.3-4.5a29.2 29.2 0 00-16.3-.9 22.2 22.2 0 00-12.2 7.8A31.8 31.8 0 00443 275c-1.2 4.4-1.6 9-1.6 14 0 6 .7 12.4 2 19l1.8 8.2-3 .9a99.1 99.1 0 00-29.9 14.3 31.3 31.3 0 00-12 16c-.6 2-1 4.3-1 6.5 0 3.9 1.1 7.8 2.9 11.1a31 31 0 006.4 8.1c4.5 4.4 10.3 8 17.1 11.2 5.7 2.6 12.2 5 19.2 7.1l-1.8 8.1c-1.3 6.8-1.8 13.2-2 19 0 6.7.9 13 3 18.3a23.4 23.4 0 0016.4 15.2 29.2 29.2 0 0016.2-.9c6-1.9 12-5 18.2-9.4 5-3.5 10.1-7.8 15.2-12.8l1.9 1.8c7.3 6.7 14.4 12 21.2 15.8a57 57 0 0010.3 4.5 29.2 29.2 0 0016.3.9A22 22 0 00572 444c2.6-3.3 4.3-7.2 5.5-11.6 1.2-4.3 1.6-9 1.6-14 0-6-.7-12.4-2-19l-1.8-8.1 3-.9a99 99 0 0029.9-14.4 31.5 31.5 0 0012-16 21.7 21.7 0 00-1.9-17.7"/>
</svg>
