<?xml version="1.0" encoding="UTF-8" standalone="no"?>
<!DOCTYPE svg PUBLIC "-//W3C//DTD SVG 1.1//EN" "http://www.w3.org/Graphics/SVG/1.1/DTD/svg11.dtd">
<svg width="100%" height="100%" viewBox="0 0 1995 1995" version="1.1" xmlns="http://www.w3.org/2000/svg" xmlns:xlink="http://www.w3.org/1999/xlink" xml:space="preserve" xmlns:serif="http://www.serif.com/" style="fill-rule:evenodd;clip-rule:evenodd;stroke-linejoin:round;stroke-miterlimit:2;">
    <g transform="matrix(1,0,0,1,-9935,-1125)">
        <g id="Sponsor-logos" serif:id="Sponsor logos" transform="matrix(1,0,0,1,17585,1981.49)">
            <rect x="-9652.96" y="-1545.49" width="5875.74" height="7020.86" style="fill:none;"/>
            <g id="Layer-1" serif:id="Layer 1" transform="matrix(1.8527,0,0,1.8527,-7695.62,-187.004)">
                <g transform="matrix(1,0,0,1,199.491,246.38)">
                    <path d="M0,-78.832c-3.915,0 -7.062,0.719 -9.439,2.166c-2.387,1.437 -3.575,3.613 -3.575,6.497c0,3.067 1.869,5.539 5.616,7.399c3.737,1.878 9.693,3.919 17.858,6.133c9.861,2.894 18.069,5.73 24.62,8.548c6.545,2.799 12.204,7.053 16.967,12.746c4.763,5.711 7.144,13.148 7.144,22.328c0,13.954 -5.4,24.879 -16.2,32.794c-10.805,7.907 -24.879,11.865 -42.229,11.865c-11.735,0 -22.961,-1.668 -33.676,-4.984c-10.718,-3.316 -20.244,-8.203 -28.577,-14.662l14.289,-29.344c7.82,5.443 16.028,9.65 24.619,12.631c8.587,2.97 16.713,4.466 24.366,4.466c4.422,0 7.949,-0.729 10.589,-2.176c2.635,-1.447 3.958,-3.527 3.958,-6.248c0,-3.402 -1.916,-6.037 -5.74,-7.907c-3.829,-1.877 -9.828,-3.909 -17.988,-6.133c-9.698,-2.884 -17.696,-5.73 -23.987,-8.548c-6.291,-2.798 -11.778,-7.015 -16.454,-12.621c-4.682,-5.616 -7.02,-12.928 -7.02,-21.946c0,-13.943 5.271,-24.868 15.822,-32.784c10.541,-7.916 24.15,-11.864 40.82,-11.864c10.038,0 19.943,1.361 29.727,4.082c9.78,2.722 19.008,6.728 27.681,11.989l-15.309,29.603c-17.859,-9.353 -32.487,-14.03 -43.882,-14.03" style="fill:#022e3c;fill-rule:nonzero;"/>
                </g>
                <g transform="matrix(1,0,0,1,500.994,261.674)">
                    <path d="M0,-111.223c9.013,9.526 13.522,22.367 13.522,38.525l0,86.996l-45.415,0l0,-73.982c0,-7.82 -2.042,-13.992 -6.124,-18.496c-4.082,-4.514 -9.612,-6.766 -16.584,-6.766c-7.997,0.173 -14.331,3.105 -19.008,8.798c-4.682,5.702 -7.015,13.148 -7.015,22.329l0,68.117l-45.419,0l0,-73.982c0,-7.82 -2.042,-13.992 -6.124,-18.496c-4.083,-4.514 -9.612,-6.766 -16.584,-6.766c-7.998,0.173 -14.375,3.105 -19.133,8.798c-4.768,5.702 -7.144,13.148 -7.144,22.329l0,68.117l-45.161,0l0,-138.027l45.161,0l0,22.703c4.757,-7.993 10.924,-14.069 18.495,-18.237c7.566,-4.169 16.368,-6.258 26.407,-6.258c11.227,0 20.834,2.721 28.831,8.165c7.997,5.453 13.694,13.014 17.097,22.712c4.422,-10.206 10.757,-17.901 19.008,-23.096c8.246,-5.174 17.988,-7.781 29.214,-7.781c14.965,0 26.958,4.772 35.976,14.298" style="fill:#022e3c;fill-rule:nonzero;"/>
                </g>
                <g transform="matrix(1,0,0,1,0,-60.543)">
                    <path d="M542.269,200.022l45.161,0l0,138.027l-45.161,0l0,-138.027Zm39.421,-56.771c4.504,4.513 6.761,10.34 6.761,17.479c0,6.977 -2.257,12.755 -6.761,17.355c-4.509,4.581 -10.25,6.881 -17.226,6.881c-6.977,0 -12.717,-2.3 -17.221,-6.881c-4.509,-4.6 -6.761,-10.378 -6.761,-17.355c0,-7.139 2.252,-12.966 6.761,-17.479c4.504,-4.505 10.244,-6.757 17.221,-6.757c6.976,0 12.717,2.252 17.226,6.757" style="fill:#0096ff;fill-rule:nonzero;"/>
                </g>
                <g transform="matrix(1,0,0,1,602.557,275.972)">
                    <path d="M0,-137.797l153.341,0l0,38.534l-53.579,0l0,99.263l-46.695,0l0,-99.263l-53.067,0l0,-38.534Z" style="fill:#022e3c;fill-rule:nonzero;"/>
                </g>
                <g transform="matrix(1,0,0,1,0,-60.543)">
                    <path d="M815.674,338.049l-45.161,0l0,-138.027l45.161,0l0,138.027Zm-22.195,-201.555c6.977,0 12.717,2.252 17.222,6.757c4.508,4.513 6.76,10.34 6.76,17.479c0,6.977 -2.252,12.755 -6.76,17.355c-4.505,4.581 -10.245,6.881 -17.222,6.881c-6.976,0 -12.717,-2.3 -17.226,-6.881c-4.503,-4.6 -6.76,-10.378 -6.76,-17.355c0,-7.139 2.257,-12.966 6.76,-17.479c4.509,-4.505 10.25,-6.757 17.226,-6.757" style="fill:#0096ff;fill-rule:nonzero;"/>
                </g>
                <g transform="matrix(1,0,0,1,891.041,231.324)">
                    <path d="M0,-48.731c-5.443,6.296 -8.165,14.547 -8.165,24.744c0,10.388 2.722,18.726 8.165,25.012c5.443,6.287 12.587,9.44 21.433,9.44c9.013,0 16.244,-3.153 21.687,-9.44c5.443,-6.286 8.165,-14.624 8.165,-25.012c0,-10.197 -2.765,-18.448 -8.29,-24.744c-5.529,-6.287 -12.722,-9.439 -21.562,-9.439c-8.846,0 -15.99,3.152 -21.433,9.439m60.983,-37.375c11.39,5.866 20.24,14.117 26.531,24.745c6.292,10.637 9.444,22.922 9.444,36.876c0,14.116 -3.152,26.488 -9.444,37.116c-6.291,10.628 -15.141,18.888 -26.531,24.753c-11.399,5.865 -24.586,8.798 -39.55,8.798c-14.969,0 -28.151,-2.933 -39.545,-8.798c-11.4,-5.865 -20.202,-14.125 -26.407,-24.753c-6.214,-10.628 -9.315,-23 -9.315,-37.116c0,-13.954 3.101,-26.239 9.315,-36.876c6.205,-10.628 15.007,-18.879 26.407,-24.745c11.394,-5.864 24.576,-8.807 39.545,-8.807c14.964,0 28.151,2.943 39.55,8.807" style="fill:#022e3c;fill-rule:nonzero;"/>
                </g>
            </g>
        </g>
    </g>
</svg>
