<?xml version="1.0" encoding="UTF-8" standalone="no"?>
<!DOCTYPE svg PUBLIC "-//W3C//DTD SVG 1.1//EN" "http://www.w3.org/Graphics/SVG/1.1/DTD/svg11.dtd">
<svg width="100%" height="100%" viewBox="0 0 1995 1995" version="1.1" xmlns="http://www.w3.org/2000/svg" xmlns:xlink="http://www.w3.org/1999/xlink" xml:space="preserve" xmlns:serif="http://www.serif.com/" style="fill-rule:evenodd;clip-rule:evenodd;stroke-linejoin:round;stroke-miterlimit:2;">
    <g transform="matrix(1,0,0,1,-9935,-1125)">
        <g id="Sponsor-logos" serif:id="Sponsor logos" transform="matrix(1,0,0,1,17585,1981.49)">
            <rect x="-9652.96" y="-1545.49" width="5875.74" height="7020.86" style="fill:none;"/>
            <g id="logo-vertical-black" transform="matrix(3.87519,0,0,3.87519,-6652.55,140.901)">
                <g transform="matrix(1,0,0,1,-301,-171)">
                    <g id="logo-vertical" transform="matrix(1,0,0,1,180,0)">
                        <g id="snyk-wordmark" transform="matrix(1,0,0,1,0,200)">
                            <path d="M202.463,69.428l-1.537,0l0,26.509l-19.08,0l0,-66.002l19.08,-29.755l0,61.584c3.798,-4.644 16.593,-22.271 16.593,-22.271l23.556,0l-22.335,23.578l23.103,32.911l-24.098,0l-15.282,-26.554Zm-53.17,-4.328l7.822,-25.427l18.899,0l-22.155,56.084c-6.601,16.861 -16.05,28.267 -30.157,28.267c-5.425,0 -9.992,-1.398 -12.388,-2.75l7.596,-11.722c1.13,0.135 2.306,0.18 3.481,0.18c6.511,0 11.394,-6.311 14.559,-13.795l-23.24,-56.264l21.386,0l8.364,25.112c1.628,4.778 2.804,13.885 2.804,13.885c0,0 1.492,-8.791 3.029,-13.57Zm-57.647,-1.307c0,-7.349 -3.255,-10.82 -9.449,-10.82c-3.029,0 -6.194,0.856 -8.364,2.164l0,40.8l-19.08,0l0,-55.723l18.673,-1.533l-0.452,9.107l0.632,0c4.024,-5.41 10.852,-9.512 18.99,-9.512c9.766,0 18.221,6.041 18.221,20.332l0,37.329l-19.171,0l0,-32.144Zm-91.51,29.259l1.718,-12.984c5.968,2.93 12.705,4.328 18.356,4.328c4.115,0 6.827,-1.398 6.827,-3.877c0,-7.124 -25.726,-5.41 -25.726,-24.03c0,-11.902 10.942,-18.168 24.641,-18.168c6.827,0 13.881,1.848 18.447,3.471l-1.854,12.759c-4.792,-1.849 -11.303,-3.562 -16.728,-3.562c-3.346,0 -6.059,1.172 -6.059,3.336c0,7.033 26.269,5.636 26.269,23.804c0,12.082 -10.761,19.025 -25.5,19.025c-8.139,0 -14.74,-1.397 -20.391,-4.102Z" style="fill:#091c30;fill-rule:nonzero;"/>
                        </g>
                        <g id="dog" transform="matrix(1,0,0,1,56.4667,15.73)">
                            <path id="shield-outline-ears" d="M112.133,54.062l-94.909,0c0,-5.932 8.579,-23.863 25.736,-53.792c0,0 2.376,15.785 7.127,47.354l28.995,0.001l7.117,-47.355c17.289,30.326 25.934,48.257 25.934,53.792Z" style="fill:#fff;fill-rule:nonzero;"/>
                            <path id="shield-outline" d="M64.533,204.13l-64.533,-45.155l0,-105.389c0,0 23.86,-8.793 64.616,-8.793c40.756,0 64.442,8.793 64.442,8.793l0,105.389l-64.525,45.155Z" style="fill:#fff;fill-rule:nonzero;"/>
                            <path id="shield-left" d="M64.533,197.783l-60.41,-42.094l0,-97.873c0,0 22.591,-8.166 60.41,-8.166l0,148.133Z" style="fill:#dbdbdb;fill-rule:nonzero;"/>
                            <path id="shield-right" d="M64.616,49.65c-0.028,0 -0.055,0.001 -0.083,0l0,148.009l0.001,0l59.88,-41.972l0,-97.871c0,0 -21.979,-8.166 -59.798,-8.166Z" style="fill:#c6c6c6;fill-rule:nonzero;"/>
                            <path id="neck-right" d="M97.221,174.754l-5.094,-44.207l-27.997,0l0,67.339l0.403,0.38c10.892,-7.44 21.788,-15.278 32.688,-23.512Z" style="fill:#3b3b63;fill-rule:nonzero;"/>
                            <path id="neck-left" d="M31.863,175.103l32.67,23.163l0.017,-69.065l-28.294,0l-4.393,45.902Z" style="fill:#53537a;fill-rule:nonzero;"/>
                            <path id="chin" d="M78.513,162.018c0,7.595 -7.216,11.36 -13.837,11.36c-6.62,0 -13.982,-3.765 -13.982,-11.36" style="fill:#bc9375;fill-rule:nonzero;"/>
                            <path id="teeth" d="M64.603,165.946c-5.315,0 -7.899,-3.833 -7.899,-11.713l2.534,0c0,9.225 3.623,9.225 5.365,9.225c1.742,0 5.365,0 5.365,-9.225l2.534,0c0,7.88 -2.585,11.713 -7.899,11.713Z" style="fill:#fff;fill-rule:nonzero;"/>
                            <path id="face-right" d="M64.533,156.156c1.636,4.227 4.796,6.34 9.483,6.34c4.588,0 9.376,-2.374 11.556,-8.24c3.046,-8.205 3.015,-19.625 3.015,-19.625c0,0 13.534,-16.649 13.534,-22.279l-37.588,0l0,43.804Z" style="fill:#c49a7e;fill-rule:nonzero;"/>
                            <path id="face-left" d="M26.401,112.352c0,6.52 13.416,22.279 13.416,22.279c0,0 -0.033,11.417 3.016,19.625c2.175,5.862 6.968,8.24 11.558,8.24c4.686,0 8.067,-2.113 10.142,-6.34l0,-43.804l-38.132,0Z" style="fill:#d8b7a0;fill-rule:nonzero;"/>
                            <path id="brow-right" d="M100.505,74.865c-10.433,-10.511 -13.042,-32.43 -13.042,-32.43c-1.948,6.906 -6.181,27.27 -6.181,27.27c0,0 -8.224,-2.613 -17.081,-2.627c-0.291,0 -0.291,27.438 0,82.312l8.432,-5.989l1.568,-29.066l8.979,10.067l11.566,3.321c0,0 4.328,-3.032 4.328,-3.021c1.838,-2.529 2.447,-4.683 2.891,-5.801c1.607,-4.067 -2,-35.169 -2,-35.169c-1.281,-2.634 0.54,-8.867 0.54,-8.867Z" style="fill:#3b3b63;fill-rule:nonzero;"/>
                            <path id="brow-left" d="M48.005,69.704c0,0 -4.235,-20.363 -6.181,-27.271c0,0 -2.608,21.919 -13.042,32.431c0,0 1.821,6.233 0.54,8.866c0,0 -3.607,31.104 -2.001,35.165c0.444,1.118 1.058,3.272 2.893,5.801c0,-0.012 4.331,3.021 4.331,3.021l11.564,-3.322l8.977,-10.065l1.572,29.066l7.884,5.831l0,-82.303c-8.891,0.015 -16.537,2.78 -16.537,2.78Z" style="fill:#53537a;fill-rule:nonzero;"/>
                            <path id="face-outline" d="M93.204,22.122c1.731,3.17 16.612,32.476 16.612,42.625l-6.6,17.665c1.116,9.967 3.337,31.625 1.66,35.856c-1.034,2.617 -4.98,8.001 -8.354,12.361l4.613,41.378l-6.236,4.413l-3.468,-30.234c-0.476,3.068 -1.193,6.345 -2.286,9.286c-1.444,3.894 -3.997,6.845 -7.263,8.592c-0.191,9.335 -8.952,14.371 -17.206,14.371c-8.322,0 -17.156,-5.032 -17.35,-14.363c-3.272,-1.751 -5.829,-4.702 -7.275,-8.6c-1.049,-2.828 -1.756,-5.959 -2.235,-8.925l-3.317,30.429l-6.27,-4.485l4.528,-41.735c-3.401,-4.38 -7.422,-9.844 -8.467,-12.49c-1.676,-4.233 0.458,-25.887 1.576,-35.856l-6.992,-18.284l0,-0.595c0,-10.149 15.27,-38.239 17.003,-41.409l4.946,-8.9c3.011,20.62 4.515,30.939 4.513,30.957l2.435,16.709l3.204,5.176c3.078,-1.021 8.304,-2.439 13.596,-2.439c5.297,0 10.559,1.423 13.65,2.442l3.202,-5.178l6.938,-47.667l4.843,8.9Zm-28.528,149.678c3.654,0 8.856,-1.623 10.155,-5.925c-0.139,0.004 -0.274,0.015 -0.413,0.015c-0.711,0 -1.375,-0.066 -2.02,-0.152c-1.885,2.575 -4.82,3.356 -7.794,3.356c-2.969,0 -5.899,-0.789 -7.78,-3.36c-0.649,0.091 -1.321,0.156 -2.038,0.156c-0.136,0 -0.268,-0.011 -0.403,-0.015c1.312,4.302 6.585,5.925 10.293,5.925Zm-4.278,-7.072c1.133,0.834 2.533,1.298 4.208,1.298c1.666,0 3.06,-0.467 4.191,-1.298c-0.902,-0.394 -1.718,-0.863 -2.438,-1.376c-0.652,0.19 -1.275,0.185 -1.756,0.185c-0.483,0 -1.113,0 -1.77,-0.189c-0.718,0.517 -1.533,0.986 -2.435,1.38Zm25.958,-32.099c4.489,-5.476 11.246,-14.295 12.225,-16.763c0.738,-2.541 -0.521,-19.387 -2.123,-33.506l-0.089,-0.783l1.325,-3.508c-4.367,-4.572 -7.413,-10.837 -9.494,-16.754l-0.271,1.859l-6.894,11.129l-2.692,-1.127c-0.066,-0.028 -7.096,-2.919 -13.768,-2.919c-6.715,0 -13.631,2.888 -13.698,2.916l-2.697,1.137l-6.902,-11.134l-0.205,-1.426c-2.103,5.859 -5.153,12.014 -9.499,16.487l1.265,3.342l-0.088,0.784c-1.603,14.116 -2.862,30.962 -2.1,33.567c0.955,2.408 7.713,11.227 12.199,16.699l0.748,0.914l-0.004,1.171c0,0.11 0.013,10.942 2.812,18.48c2.032,5.468 6.54,6.052 8.386,6.052c4.641,0 6.605,-4.182 6.686,-4.361c1.087,-2.101 1.631,-5.554 1.631,-10.358l2.806,0c0,3.859 0.585,7.32 1.755,10.381c0.071,0.151 2.084,4.349 6.748,4.349c1.842,0 6.351,-0.591 8.382,-6.059c2.808,-7.564 2.811,-18.374 2.811,-18.48l-0.003,-1.171l0.748,-0.918Z" style="fill:#333152;fill-rule:nonzero;"/>
                            <path id="eye-shadow-right" d="M85.591,103.187l-10.135,0l-3.377,0l0,0.14c0,4.634 4.08,8.387 8.866,8.387c4.788,0 8.868,-3.754 8.868,-8.387l0,-0.14l-4.222,0Z" style="fill:#333152;fill-rule:nonzero;"/>
                            <path id="eye-right" d="M75.456,103.187l0,0.14c0,2.756 2.26,4.99 5.069,4.99c2.808,0 5.067,-2.234 5.067,-4.99l0,-0.14l-10.136,0Z" style="fill:#fff;fill-rule:nonzero;"/>
                            <path id="eye-pupil-right" d="M79.713,103.187c-0.023,0 -0.043,0.011 -0.063,0.015c0.294,0.061 0.457,0.717 0.394,1.153c-0.095,0.667 -0.674,1.13 -1.337,1.141c0.193,0.872 0.917,1.573 1.879,1.706c1.228,0.171 2.364,-0.656 2.538,-1.862c0.125,-0.887 -0.309,-2.153 -1.036,-2.153l-2.375,0Z" style="fill:#333152;fill-rule:nonzero;"/>
                            <path id="eye-shadow-left" d="M52.972,103.187l-10.133,0l-3.379,0l0,0.14c0,4.634 4.082,8.387 8.867,8.387c4.788,0 8.869,-3.754 8.869,-8.387l0,-0.14l-4.224,0Z" style="fill:#333152;fill-rule:nonzero;"/>
                            <path id="eye-left" d="M42.839,103.187l0,0.14c0,2.756 2.261,4.99 5.066,4.99c2.809,0 5.068,-2.234 5.068,-4.99l0,-0.14l-10.134,0Z" style="fill:#fff;fill-rule:nonzero;"/>
                            <path id="eye-pupil-left" d="M49.471,103.187l-2.378,0c-0.02,0 -0.043,0.011 -0.062,0.015c0.294,0.061 0.456,0.717 0.395,1.153c-0.096,0.667 -0.672,1.13 -1.339,1.141c0.196,0.872 0.92,1.573 1.88,1.706c1.227,0.171 2.365,-0.656 2.537,-1.862c0.127,-0.887 -0.307,-2.153 -1.033,-2.153Z" style="fill:#333152;fill-rule:nonzero;"/>
                            <path id="brow-right1" serif:id="brow-right" d="M84.572,99.232c0.567,-0.611 5.384,-5.976 -1.058,-5.976c-5.821,0 -10.01,4.611 -11.12,5.976l12.178,0Z" style="fill:#c49a7e;fill-rule:nonzero;"/>
                            <path id="brow-left1" serif:id="brow-left" d="M56.785,99.232c-1.11,-1.365 -5.298,-5.976 -11.121,-5.976c-6.439,0 -1.622,5.365 -1.058,5.976l12.179,0Z" style="fill:#d8b7a0;fill-rule:nonzero;"/>
                            <path id="ear-left" d="M25.815,62.991c0.382,-5.265 5.961,-17.878 11.283,-28.507l1.418,9.719c-0.541,3.634 -3.013,17.885 -9.645,26.868l-3.056,-8.08Z" style="fill:#d8b7a0;fill-rule:nonzero;"/>
                            <path id="ear-right" d="M90.803,43.446l1.307,-8.961c5.321,10.628 10.903,23.242 11.285,28.506l-2.984,7.889c-7.165,-9.889 -9.413,-25.965 -9.608,-27.434Z" style="fill:#c49a7e;fill-rule:nonzero;"/>
                            <path id="nose" d="M59.635,150.429c-2.499,-1.861 -5.063,-4.21 -5.063,-6.011c0,-1.184 2.132,-4.832 2.132,-4.832l15.851,0c0,0 2.079,3.234 2.079,4.832c0,1.677 -2.587,3.961 -5.169,5.823c-0.879,-1.486 -1.997,-1.744 -2.514,-0.573c-0.267,0.607 -0.319,1.48 -0.189,2.394c-1.406,0.892 -2.434,1.467 -2.434,1.467c0,0 -0.793,-0.455 -1.928,-1.188c0.183,-1.013 0.148,-2.005 -0.146,-2.673c-0.522,-1.187 -1.662,-0.906 -2.548,0.633c-0.024,0.042 -0.048,0.085 -0.071,0.128Z" style="fill:#333152;fill-rule:nonzero;"/>
                        </g>
                    </g>
                </g>
            </g>
        </g>
    </g>
</svg>
