<svg xmlns="http://www.w3.org/2000/svg" fill-rule="evenodd" stroke-linejoin="round" stroke-miterlimit="2" clip-rule="evenodd" viewBox="0 0 998 998">
  <defs/>
  <path fill="none" d="M-1001.5-344.5h2937.9v3510.4h-2937.9z"/>
  <path fill="#333" fill-rule="nonzero" d="M890.3 484.6c-.6-1.8-1.6-3.4-3-4.7a20.9 20.9 0 00-5.2-3.7c-2.1-1.1-4.7-2.2-7.7-3.4a46.5 46.5 0 01-7.7-3.6 5.2 5.2 0 01-1.6-2c-.3-.6-.5-1.4-.5-2.4 0-1.8.8-3.1 2.4-4 1.6-.9 3.8-1.3 6.3-1.3a32.3 32.3 0 0113 2.5l2.3-10.3a45 45 0 00-15.9-2.7 24 24 0 00-15.2 4.4c-3.7 3-5.5 7-5.5 12a13.7 13.7 0 004.5 11.2c1.4 1.2 3 2.3 5 3.3 2 .9 4 1.8 6.4 2.6 3.8 1.5 6.5 2.8 8.1 4a5.4 5.4 0 012.5 4.5c0 2-.8 3.3-2.3 4.1-1.6.8-4 1.2-7.4 1.2a35 35 0 01-9-1 57 57 0 01-6.6-2.1l-2.4 10.5a45.8 45.8 0 0017.9 3.2c7.2 0 12.8-1.4 16.7-4 4-2.8 5.8-6.8 5.8-12 0-2.5-.2-4.6-.9-6.3m-44.5-33.4v-.2a27.9 27.9 0 00-5.6-1.3 57.1 57.1 0 00-6.3-.6 55.9 55.9 0 00-21.2 3.8v52.5h12.6v-44.2c.6-.2 1.7-.5 3.3-.7a31.1 31.1 0 0115 1.2l2.2-10.5zm-80.1 21.2c.2-1.6.6-3.2 1.1-4.8.6-1.5 1.4-2.9 2.4-4 1-1.2 2.3-2.2 3.7-3 1.5-.7 3.2-1 5.2-1 1.9 0 3.5.3 4.9 1a10 10 0 013.5 2.7c1 1.1 1.6 2.5 2.1 4 .5 1.7.8 3.3.8 5h-23.7zm30-16.4c-4.2-4.7-10.1-7-17.7-7a25.5 25.5 0 00-17.7 7.3 26.5 26.5 0 00-5.8 9 34.9 34.9 0 00-2.1 12.8c0 4.2.5 8 1.7 11.4 1.1 3.5 2.8 6.6 5.1 9.1 2.3 2.6 5.3 4.6 8.9 6a34 34 0 0012.6 2.2 48.4 48.4 0 0017.8-3.3l-2.3-10.2a38.6 38.6 0 01-13.9 2.4c-5.3 0-9.3-1.2-12-3.6a14.6 14.6 0 01-4.8-10.3H802a51.1 51.1 0 00.2-4.7c0-9.4-2.1-16.4-6.4-21.1m-119.6 40c-2 .3-5 .6-9 .6-3.1 0-5.7-.6-7.6-1.8-2-1.1-2.8-3.2-2.8-6.2 0-1.6.3-2.9 1-3.9s1.6-1.8 2.8-2.4c1.1-.5 2.5-1 3.9-1.1a28.7 28.7 0 0111.7.6v14.1zm11.5-34.4a17 17 0 00-3.8-7c-1.8-2-4-3.4-7-4.5-3-1-6.6-1.6-10.9-1.6a55.9 55.9 0 00-17.2 2.6l2.3 10.2 5.4-1.2c2.5-.4 5.3-.7 8.3-.7 2.2 0 4 .3 5.5.9 1.4.6 2.6 1.4 3.5 2.4 1 1 1.5 2.3 1.9 3.6.4 1.4.5 2.8.5 4.3v2.2a41.8 41.8 0 00-18.4-.3c-2.8.6-5.3 1.6-7.4 3a15.7 15.7 0 00-5.1 5.4c-1.3 2.2-2 5-2 8.2 0 3.3.6 6.2 1.8 8.5 1 2.2 2.6 4.1 4.6 5.5 2 1.5 4.3 2.5 7.1 3.2 2.8.6 5.9 1 9.2 1a94 94 0 0022.8-2.6v-34c0-3.3-.4-6.3-1.1-9m-155.1 34.2c-2 .4-5 .7-9 .7-3.2 0-5.8-.6-7.7-1.8-1.9-1.1-2.8-3.2-2.8-6.2 0-1.6.3-2.9 1-3.9a7 7 0 012.8-2.4c1.2-.5 2.5-1 4-1.1a28.7 28.7 0 0111.7.6v14.1zm11.4-34.3c-.8-2.7-2-5-3.8-7-1.7-2-4-3.4-7-4.5-3-1-6.6-1.6-10.8-1.6A55.6 55.6 0 00505 451l2.3 10.3a48.2 48.2 0 0113.7-1.9c2.2 0 4 .3 5.5.9a8.8 8.8 0 015.4 6c.4 1.4.6 2.8.6 4.3v2.2a43.2 43.2 0 00-18.5-.3c-2.8.6-5.3 1.6-7.4 3a15.6 15.6 0 00-5.1 5.4c-1.3 2.2-2 5-2 8.2 0 3.4.6 6.2 1.8 8.5 1 2.3 2.6 4.1 4.6 5.6 2 1.4 4.3 2.4 7.1 3 2.8.7 5.9 1 9.3 1a93.9 93.9 0 0022.7-2.4v-34c0-3.4-.4-6.4-1.1-9.2m-81.2 32.2a31.3 31.3 0 01-11.3 2c-5.9 0-10-1.6-12.5-4.8a20.9 20.9 0 01-3.7-13c0-5.7 1.3-10 4-13.2 2.5-3.1 6.3-4.7 11.3-4.7a26.7 26.7 0 0111 2.2l2.4-10.6a38.7 38.7 0 00-14.4-2.7c-4.2 0-8 .8-11.4 2.3a25 25 0 00-14 15.3 37.8 37.8 0 00-.2 23 23.3 23.3 0 0013.7 15.2 32 32 0 0012.3 2 46 46 0 0015.1-2.6l-2.3-10.4zm-110.2-9.2c-.6-1.8-1.6-3.4-3-4.7a20.7 20.7 0 00-5.2-3.7c-2.1-1.1-4.7-2.2-7.7-3.4a45.7 45.7 0 01-7.7-3.6 5.1 5.1 0 01-1.6-2c-.3-.6-.5-1.4-.5-2.4 0-1.8.8-3.1 2.4-4 1.6-.9 3.7-1.3 6.3-1.3a32 32 0 0113 2.5l2.3-10.3a46.2 46.2 0 00-16-2.6 24 24 0 00-15 4.3c-3.8 3-5.7 7-5.7 12 0 2.6.5 4.8 1.3 6.6.8 1.7 1.9 3.3 3.3 4.5a22 22 0 005 3.4c2 .9 4 1.8 6.4 2.6a36 36 0 018.1 4 5.4 5.4 0 012.5 4.5c0 2-.8 3.3-2.3 4.1-1.6.8-4 1.2-7.4 1.2-3.4 0-6.4-.3-9-1-2.6-.7-4.8-1.4-6.6-2.1l-2.4 10.5a46 46 0 0017.9 3.1 29 29 0 0016.7-4c4-2.7 5.9-6.7 5.9-12 0-2.4-.4-4.5-1-6.2m136.8 20.8v-56.5l-12.6 2.2v54.3h12.6zm81.6 0v-80.6l-12.5 2.2v78.4h12.5zm143-33.6l5-5.4 5.3-5.7 4.9-5.6 4-4.7h14.8a907 907 0 01-22.4 24.5 115.7 115.7 0 0119.1 22.7c1.9 2.8 3.4 5.4 4.7 7.8h-14.5a108.8 108.8 0 00-15.3-20.2c-2-2-3.8-3.7-5.7-5v25.2h-12.5v-78.1l12.5-2.3v46.8zm-90 6c0-5.4-1.2-9.7-3.3-12.8-2.2-3.2-5.5-4.8-10.2-4.8-2 0-4 .3-6 1-1.8.6-3.3 1.3-4.4 2V495a33.6 33.6 0 008.7.8c4.7 0 8.4-1.6 11.1-4.8 2.7-3.2 4-7.6 4-13.2m11.8 0c0 4.4-.7 8.3-2 11.8a23.6 23.6 0 01-14.2 14.7c-3.3 1.3-7.2 2-11.5 2a74 74 0 01-21.3-3v-75.7l12.6-2.2v27c1.5-.7 3.3-1.4 5.4-2 2-.6 4.4-1 7-1 3.8 0 7.2.8 10.2 2.1a20 20 0 017.5 5.8c2 2.5 3.6 5.5 4.6 9a39 39 0 011.7 11.5m-144.9-43.5c0 2.4-.8 4.3-2.3 5.7a7.8 7.8 0 01-5.5 2 8 8 0 01-5.6-2 7.3 7.3 0 01-2.3-5.7c0-2.5.8-4.4 2.3-5.8a8 8 0 015.6-2.1c2.1 0 4 .7 5.5 2a7.4 7.4 0 012.3 5.9m-90.1 43.6c0-5.5-1.2-9.8-3.6-13a11.6 11.6 0 00-9.8-4.8c-4.2 0-7.5 1.6-9.9 4.8a21.5 21.5 0 00-3.5 13c0 5.6 1.2 10 3.5 13.2 2.4 3.2 5.7 4.8 9.9 4.8s7.5-1.6 9.8-4.8a22 22 0 003.6-13.2m13 0c0 4.4-.6 8.3-1.9 12a24.4 24.4 0 01-13.8 15 27 27 0 01-10.7 2 24.4 24.4 0 01-24.5-17.2c-1.3-3.5-2-7.4-2-11.8s.7-8.3 2-11.8a24.3 24.3 0 0113.8-15 27 27 0 0110.7-2c3.8 0 7.4.6 10.7 2 3.2 1.4 6 3.3 8.3 5.8 2.4 2.6 4.2 5.6 5.5 9.2 1.3 3.5 2 7.4 2 11.8"/>
  <path fill="#fff" d="M106.2 394.7h166.4v166.4H106.2z"/>
  <path fill="#96285f" fill-rule="nonzero" d="M153.5 441c2.4-.2 4.9-.1 7.3.3A18.5 18.5 0 00179 434a28.7 28.7 0 0150.8 10.2 24 24 0 014.4 46.7l3 35-7.2-2.7a77.5 77.5 0 00-66.9 5.8l-6.7 4-3-35a28.7 28.7 0 010-57.1M106.2 561h83.2l41.6 41.6v-41.6h41.6V394.7H106.2V561z"/>
  <path fill="#96285f" fill-rule="nonzero" d="M157.6 488c1.7-.2 3-.5 4.8-1.1l2.6 29.8a87.3 87.3 0 0161.2-5.3l-2.6-30c1.8.4 3.4.5 5 .4a14.1 14.1 0 002-27.8 29 29 0 01-13.2 21l-7.2-7.1a18.9 18.9 0 10-23.2-28.3 28.1 28.1 0 01-27.9 11 18.9 18.9 0 10-1.5 37.4"/>
</svg>
