<?xml version="1.0" encoding="UTF-8" standalone="no"?>
<!DOCTYPE svg PUBLIC "-//W3C//DTD SVG 1.1//EN" "http://www.w3.org/Graphics/SVG/1.1/DTD/svg11.dtd">
<svg width="100%" height="100%" viewBox="0 0 1995 1995" version="1.1" xmlns="http://www.w3.org/2000/svg" xmlns:xlink="http://www.w3.org/1999/xlink" xml:space="preserve" xmlns:serif="http://www.serif.com/" style="fill-rule:evenodd;clip-rule:evenodd;stroke-linejoin:round;stroke-miterlimit:2;">
    <g transform="matrix(1,0,0,1,-9935,-1125)">
        <g id="Sponsor-logos" serif:id="Sponsor logos" transform="matrix(1,0,0,1,17585,1981.49)">
            <rect x="-9652.96" y="-1545.49" width="5875.74" height="7020.86" style="fill:none;"/>
            <g id="startupjobs-raw" transform="matrix(10.2928,0,0,10.2928,-6652.55,140.901)">
                <g transform="matrix(1,0,0,1,-76.5,-15)">
                    <g>
                        <g>
                            <path d="M26.494,25.103c-1.396,0.533 -2.76,0.685 -3.006,0.356l-0.008,0.003c-3.424,-2.943 -7.924,-4.763 -12.279,-4.763c-4.265,0 -7.274,1.792 -9.239,4.681l-0.008,0c-0.028,0.079 -0.243,0.164 -0.48,0.164c-0.265,0 -0.474,-0.054 -0.474,-0.179c0,-0.009 0,-0.017 0.002,-0.023c0,-0.004 0,-0.008 0.002,-0.012c2.336,-5.067 6.65,-8.32 12.876,-8.32c5.278,0 10.954,2.423 15.037,6.25l-0.007,0.003c0.038,0.028 0.064,0.063 0.078,0.103c0.138,0.381 -0.942,1.141 -2.494,1.737Z" style="fill:#2c659d;fill-rule:nonzero;"/>
                            <path d="M23.643,18.696c-0.037,-0.021 -0.392,-0.194 -0.623,-0.313c-0.429,-0.214 -1.035,-0.466 -1.797,-0.75c-0.096,-0.036 -0.19,-0.071 -0.285,-0.104c-0.168,-0.062 -0.342,-0.125 -0.521,-0.189c-1.087,-0.386 -2.348,-0.711 -3.777,-0.906c-0.242,-0.035 -0.527,-0.065 -0.839,-0.091c-0.591,-0.059 -1.181,-0.089 -1.764,-0.089c-0.294,0 -0.584,0.01 -0.87,0.021c-0.292,0.012 -0.572,0.028 -0.833,0.056c-1.688,0.172 -2.646,0.498 -2.934,0.599c-0.176,0.062 -0.369,0.03 -0.393,-0.125c-0.042,-0.287 0.067,-0.921 0.119,-1.312c0.228,-1.712 0.336,-3.627 -0.215,-5.619c-0.552,-1.995 -1.942,-3.864 -2.327,-4.454c-0.425,-0.653 -0.133,-0.878 0.357,-0.971c2.146,-0.402 6.667,0.792 8.922,1.834c2.684,1.236 7.684,5.193 8.064,11.974c0.026,0.431 -0.075,0.558 -0.284,0.439Z" style="fill:#4e99e3;fill-rule:nonzero;"/>
                        </g>
                        <g>
                            <path d="M43.161,22.362c-1.773,0 -3.422,-0.203 -4.951,-0.612l0,-1.732c1.529,0.545 3.178,0.817 4.951,0.817c2.506,0 3.758,-0.921 3.758,-2.751c0,-1.562 -0.923,-2.346 -2.768,-2.346l-1.876,0c-3.05,0 -4.573,-1.324 -4.573,-3.972c0,-2.783 1.95,-4.175 5.857,-4.175c1.695,0 3.275,0.202 4.737,0.61l0,1.731c-1.462,-0.542 -3.042,-0.816 -4.737,-0.816c-2.648,0 -3.974,0.884 -3.974,2.649c0,1.563 0.896,2.344 2.689,2.344l1.876,0c3.102,0 4.651,1.325 4.651,3.974c0.002,2.852 -1.88,4.279 -5.64,4.279Zm8.505,-12.53l1.181,0l0.407,1.732l2.892,0l0,1.527l-2.598,0l0,6.144c0,0.999 0.432,1.498 1.294,1.498l1.304,0l0,1.526l-1.791,0c-1.792,0 -2.689,-0.959 -2.689,-2.882l0,-9.545Zm10.497,12.427c-2.544,0 -3.818,-1.076 -3.818,-3.229c0,-2.192 1.445,-3.292 4.336,-3.292c0.934,0 1.862,0.07 2.793,0.207l0,-1.01c0,-1.229 -0.96,-1.845 -2.883,-1.845c-1.102,0 -2.227,0.171 -3.383,0.51l0,-1.526c1.156,-0.341 2.281,-0.511 3.383,-0.511c3.177,0 4.769,1.107 4.769,3.322l0,7.374l-1.062,0l-0.653,-1.06c-1.065,0.708 -2.227,1.06 -3.482,1.06Zm3.311,-4.786c-0.931,-0.137 -1.859,-0.206 -2.793,-0.206c-1.635,0 -2.452,0.578 -2.452,1.732c0,1.154 0.645,1.733 1.935,1.733c1.306,0 2.407,-0.346 3.311,-1.04l0,-2.219l-0.001,0Zm5.254,4.785l0,-10.695l1.276,0l0.335,1.364c0.935,-0.91 2.063,-1.364 3.383,-1.364l0,1.567c-1.278,0 -2.316,0.453 -3.108,1.356l0,7.772l-1.886,0Zm7.92,-12.426l1.181,0l0.404,1.732l2.896,0l0,1.527l-2.599,0l0,6.144c0,0.999 0.431,1.498 1.292,1.498l1.307,0l0,1.526l-1.793,0c-1.793,0 -2.688,-0.959 -2.688,-2.882l0,-9.545Zm17.138,1.732l0,10.694l-1.294,0l-0.327,-1.363c-1.296,0.909 -2.6,1.363 -3.911,1.363c-2.457,0 -3.688,-1.328 -3.688,-3.982l0,-6.713l1.884,0l0,6.745c0,1.587 0.788,2.384 2.364,2.384c1.081,0 2.108,-0.453 3.087,-1.355l0,-7.773l1.885,0Zm3.366,0.437c1.42,-0.291 2.887,-0.438 4.399,-0.438c3.432,0 5.146,1.695 5.146,5.083c0,3.744 -1.724,5.612 -5.175,5.612c-0.856,0 -1.684,-0.17 -2.487,-0.509l0,4.381l-1.883,0l0,-14.129Zm1.883,8.08c0.739,0.366 1.568,0.548 2.478,0.548c2.221,0 3.333,-1.335 3.333,-4.003c0,-2.329 -1.106,-3.495 -3.312,-3.495c-0.952,0 -1.783,0.083 -2.499,0.246l0,6.704Zm14.191,-12.388l0,10.37c0,2.8 -1.649,4.196 -4.942,4.196l0,-1.526c2.039,0 3.057,-0.891 3.057,-2.67l0,-10.37l1.885,0Zm8.257,14.555c-3.381,0 -5.081,-1.778 -5.093,-5.337c0,-3.565 1.696,-5.348 5.093,-5.348c3.396,0 5.093,1.783 5.093,5.348c0,3.559 -1.697,5.337 -5.093,5.337Zm-3.209,-5.377c0,2.572 1.07,3.861 3.209,3.861c2.139,0 3.208,-1.289 3.208,-3.861c0,-2.521 -1.069,-3.781 -3.208,-3.781c-2.139,0 -3.209,1.261 -3.209,3.781Zm11.164,-9.178l1.881,0l0,4.381c0.812,-0.341 1.675,-0.511 2.6,-0.511c3.381,0 5.072,1.711 5.072,5.136c0,3.706 -1.777,5.56 -5.329,5.56c-1.531,0 -2.942,-0.146 -4.224,-0.438l0,-14.128Zm1.881,12.704c0.62,0.193 1.369,0.295 2.255,0.295c2.374,0 3.562,-1.355 3.562,-4.066c0,-2.289 -1.077,-3.433 -3.229,-3.433c-0.979,0 -1.841,0.183 -2.588,0.55l0,6.654Zm14.24,1.862c-1.286,0 -2.554,-0.17 -3.812,-0.509l0,-1.63c1.259,0.409 2.526,0.612 3.812,0.612c1.702,0 2.556,-0.51 2.556,-1.527c0,-0.951 -0.596,-1.427 -1.782,-1.427l-1.528,0c-2.308,0 -3.466,-1.052 -3.466,-3.159c0,-2.038 1.485,-3.056 4.453,-3.056c1.278,0 2.545,0.169 3.799,0.511l0,1.629c-1.254,-0.409 -2.521,-0.613 -3.799,-0.613c-1.779,0 -2.67,0.51 -2.67,1.529c0,0.95 0.562,1.426 1.683,1.426l1.528,0c2.445,0 3.668,1.052 3.668,3.16c-0.001,2.035 -1.482,3.054 -4.442,3.054Z" style="fill:#565555;fill-rule:nonzero;"/>
                        </g>
                    </g>
                </g>
            </g>
        </g>
    </g>
</svg>
