<?xml version="1.0" encoding="UTF-8" standalone="no"?>
<!DOCTYPE svg PUBLIC "-//W3C//DTD SVG 1.1//EN" "http://www.w3.org/Graphics/SVG/1.1/DTD/svg11.dtd">
<svg width="100%" height="100%" viewBox="0 0 1995 1995" version="1.1" xmlns="http://www.w3.org/2000/svg" xmlns:xlink="http://www.w3.org/1999/xlink" xml:space="preserve" xmlns:serif="http://www.serif.com/" style="fill-rule:evenodd;clip-rule:evenodd;stroke-linejoin:round;stroke-miterlimit:2;">
    <g transform="matrix(1,0,0,1,-9935,-1125)">
        <g id="Sponsor-logos" serif:id="Sponsor logos" transform="matrix(1,0,0,1,17585,1981.49)">
            <rect x="-9652.96" y="-1545.49" width="5875.74" height="7020.86" style="fill:none;"/>
            <g id="sticker-mule" serif:id="sticker mule" transform="matrix(3.02329,0,0,3.02329,-6652.55,140.901)">
                <g transform="matrix(1,0,0,1,-330,-112.5)">
                    <path d="M176.5,146.1c-7.2,0 -13.8,-0.8 -19.6,-6.6l7.5,-7.5c3.8,3.8 8.7,4.3 12.3,4.3c4,0 8.1,-1.3 8.1,-4.8c0,-2.3 -1.2,-3.9 -4.9,-4.2l-7.2,-0.7c-8.3,-0.8 -13.4,-4.4 -13.4,-12.9c0,-9.5 8.4,-14.7 17.8,-14.7c7.2,0 13.2,1.2 17.6,5.4l-7.1,7.2c-2.7,-2.4 -6.7,-3.1 -10.7,-3.1c-4.6,0 -6.5,2.1 -6.5,4.4c0,1.7 0.7,3.6 4.8,4l7.2,0.7c9.1,0.9 13.7,5.7 13.7,13.5c0,10.2 -8.7,15 -19.6,15Z" style="fill:#4e2817;fill-rule:nonzero;"/>
                    <path d="M216.1,145.6c-9.4,0 -13.3,-6.6 -13.3,-13.2l0,-22.8l-4.9,0l0,-8.7l4.9,0l0,-13.6l11.5,0l0,13.6l8.1,0l0,8.7l-8.1,0l0,22.1c0,2.6 1.2,4.2 4,4.2l4.2,0l0,9.7l-6.4,0Z" style="fill:#4e2817;fill-rule:nonzero;"/>
                    <path d="M227.5,91.7l0,-9.4l11.8,0l0,9.4l-11.8,0Zm0.2,53.9l0,-46l11.5,0l0,46l-11.5,0Z" style="fill:#4e2817;fill-rule:nonzero;"/>
                    <path d="M265.1,146.1c-9.2,0 -20.6,-4.9 -20.6,-23.6c0,-18.6 11.4,-23.5 20.6,-23.5c6.4,0 11.1,1.9 15.2,6.2l-7.8,7.8c-2.4,-2.6 -4.4,-3.6 -7.4,-3.6c-2.7,0 -4.9,1 -6.5,3c-1.8,2.2 -2.6,5.3 -2.6,10.2c0,4.9 0.8,8 2.6,10.3c1.7,2 3.8,3 6.5,3c3,0 5,-1.1 7.4,-3.6l7.8,7.7c-4.1,4.1 -8.8,6.1 -15.2,6.1Z" style="fill:#4e2817;fill-rule:nonzero;"/>
                    <path d="M312,145.6l-11.3,-19.2l-4.9,5.5l0,13.7l-11.5,0l0,-62.9l11.5,0l0,35.7l15.3,-18.8l13.9,0l-16.4,18.6l17.7,27.5l-14.3,0l0,-0.1Z" style="fill:#4e2817;fill-rule:nonzero;"/>
                    <path d="M335.8,126.1c0,5.9 3.6,10.2 10.1,10.2c5,0 7.5,-1.4 10.4,-4.3l7,6.8c-4.7,4.7 -9.2,7.2 -17.5,7.2c-10.9,0 -21.3,-4.9 -21.3,-23.6c0,-15 8.1,-23.5 20.1,-23.5c12.8,0 20.1,9.4 20.1,22l0,5.1l-28.9,0l0,0.1Zm16.5,-12.8c-1.2,-2.7 -3.8,-4.8 -7.7,-4.8c-3.9,0 -6.5,2 -7.7,4.8c-0.7,1.7 -1,2.9 -1.1,4.9l17.5,0c-0.1,-2 -0.3,-3.2 -1,-4.9Z" style="fill:#4e2817;fill-rule:nonzero;"/>
                    <path d="M395.1,112.1c-1.8,-1.8 -3.3,-2.7 -6.1,-2.7c-3.5,0 -7.4,2.7 -7.4,8.5l0,27.7l-11.5,0l0,-46l11.2,0l0,4.4c2.2,-2.7 6.6,-4.9 11.6,-4.9c4.5,0 7.7,1.1 10.9,4.3l-8.7,8.7Z" style="fill:#4e2817;fill-rule:nonzero;"/>
                    <path d="M121.5,150.7c-0.7,0.3 -1.6,0.2 -2.5,0.3c-0.8,0 -1.9,0 -2.4,-0.4c-0.3,-0.2 -0.3,-0.7 -0.3,-1c0,-0.3 0.1,-0.8 0.1,-1.1c0.1,-0.4 0.2,-1 0,-1.3c-0.2,-0.3 -0.9,-0.2 -1.3,-0.4c-0.4,-0.2 -0.5,-0.8 -0.6,-1.4c0,-0.2 -0.2,-0.4 -0.2,-0.5c-0.1,-0.9 0.2,-2.2 0.4,-3.1c0.2,-1 0.5,-1.9 0.7,-2.9c0.3,-1.4 0.3,-3 0.2,-4.5c0,-0.8 -0.2,-1.4 0,-2c0.1,-0.6 0.4,-1.1 0.5,-1.7l0,-0.6c0,-0.2 0.1,-0.3 0.1,-0.5c0,-0.4 -0.1,-0.9 -0.1,-1.4c-0.1,-1.3 0,-3.2 0.1,-4.3c0,-0.4 0.2,-0.8 -0.1,-1c-1.4,0 -2.6,0.2 -3.9,0.4c-3.4,0.4 -7.8,0.5 -11.1,-0.2c-0.3,-0.1 -0.6,-0.1 -0.9,-0.1c-2.4,-0.5 -4.5,-1.6 -6.2,-2.9c-0.3,-0.2 -0.6,-0.4 -0.9,-0.7c-0.3,-0.2 -0.6,-0.5 -0.9,-0.7c-1.3,-0.6 -3.1,0.1 -3.7,1c-0.2,0.3 -0.4,0.8 -0.6,1.2c-0.2,0.4 -0.4,0.8 -0.5,1.2c-0.9,2 -1.9,4 -2.8,6c-0.5,1.2 -1.1,2.5 -1.5,3.8c-0.8,2.8 -0.1,6.5 0.6,9.2c0.1,0.2 0.2,0.5 0.3,0.8c0.2,0.6 0.6,1.5 1.1,1.9c0.3,0.2 0.7,0.4 1,0.6c0.4,0.3 0.6,0.9 0.9,1.5c0.1,0.2 0.3,0.5 0.4,0.8c0.3,0.6 0.5,1.1 -0.2,1.5c-0.5,0.3 -1.3,0.3 -2,0.4c-0.3,0.1 -0.2,0.5 -0.4,0.7c-0.1,0.1 -0.6,0.3 -0.8,0.4c-0.9,0.3 -2.5,0.3 -3.2,0c-0.4,-0.1 -0.8,-0.4 -0.9,-0.7c-0.2,-0.6 0.3,-1.3 -0.1,-1.7c-0.2,-0.2 -0.6,-0.2 -0.9,-0.3c-0.5,-0.2 -0.9,-0.7 -1.2,-1.2c-0.5,-1.4 -0.2,-3.5 -0.3,-5.2c0,-0.5 -0.1,-1 -0.1,-1.6c0,-1 -0.3,-2 -0.4,-3c-0.1,-0.5 -0.2,-0.9 -0.3,-1.3c-0.2,-0.7 -0.3,-1.5 -0.5,-2.2c-0.2,-0.8 -0.2,-1.6 0,-2.2c0.1,-0.2 0.3,-0.4 0.4,-0.6c0.2,-0.4 0.2,-0.8 0.2,-1.2c-0.1,-0.2 -0.6,0 -0.7,-0.2c-0.3,-2.2 -0.6,-4.3 -0.8,-6.6c-0.1,-0.8 -0.1,-1.5 -0.1,-2.3c-0.1,-1.5 0,-3.1 -0.2,-4.6c-0.1,-0.7 -0.2,-1.4 -0.3,-2.1c-0.3,-2 -0.8,-4.5 -0.4,-6.6c0.3,-1.3 0.7,-2.4 1.5,-3.4c0.5,-0.7 1.1,-1.3 1.7,-2c0.6,-0.6 1.3,-1.2 2,-1.7c0.5,-0.3 1,-0.7 1.5,-1c1.1,-0.5 2.6,-1 4.2,-1.1c1.6,-0.1 3.4,-0.1 4.9,0.2c1.5,0.3 3,0.5 4.5,0.8c1.4,0.3 2.8,0.7 4.2,1c0.2,0 0.3,0.2 0.5,0.2c0.4,0.1 0.9,0.1 1.4,0.3c1.3,0.3 2.9,0.5 4.5,0.5c1.7,0 3.2,0 4.6,-0.4c0.2,-0.1 0.4,-0.2 0.6,-0.2c0.2,-0.1 0.5,-0.1 0.7,-0.1c0.1,0 0.3,-0.2 0.4,-0.3c0.8,-0.4 1.5,-0.8 2.2,-1.3c0.6,-0.4 1,-0.7 1.8,-1c0.3,-0.1 0.7,-0.3 1,-0.4c0.7,-0.2 1.5,-0.4 2,-0.8c0.9,-0.5 1.5,-1.3 2.2,-2c0.7,-0.6 1.5,-1.3 2.3,-1.9c1.6,-1.3 3.2,-2.4 4.7,-3.6c0.8,-0.6 1.6,-1.2 2.5,-1.7c1.7,-1 3.5,-2.1 6,-2.3c1,-0.1 2,-0.1 3,0c0.3,0 0.6,0.2 0.9,0.1c0.3,-0.1 0.5,-0.5 0.6,-0.8c0.4,-0.7 0.6,-1.1 1,-1.9c0.2,-0.5 0.1,-1 0.6,-1c0.5,0 0.4,1.3 0.4,1.8c0,0.6 -0.1,1.4 0,1.8c0.1,0.3 0.5,0.7 0.9,0.7c0.3,0 0.5,-0.2 0.7,-0.4c0.3,-0.2 0.5,-0.2 0.7,-0.4c0.4,-0.3 0.9,-0.8 1.3,-1.2c0.3,-0.3 0.9,-1.2 1.4,-1.1c1,0.1 0,1.6 -0.2,2c-0.5,1.1 -1,2 -1.6,3c-0.2,0.4 -0.8,1 -0.8,1.5c0,0.3 0.3,0.5 0.4,0.9c0.1,0.2 0.1,0.3 0.2,0.5c0.3,0.8 0.6,1.9 0.9,2.8c0.2,0.8 0.4,1.6 0.7,2.3c0.3,0.7 0.7,1.4 1,2.2c0.1,0.2 0.1,0.4 0.2,0.6c0.6,1.6 1.2,3.4 2,5c0.3,0.6 0.7,1.4 0.7,2.3c0,1 -0.5,1.5 -1,2.3c-0.2,0.4 -0.6,1 -1,1.1c-0.3,0.1 -0.6,0 -0.9,0c-0.4,0.1 -0.7,0.3 -1,0.3c-0.9,0.1 -1.8,-0.6 -2,-1.3c-0.1,-0.2 0,-0.5 -0.1,-0.8c-0.2,-1.1 -0.8,-1.6 -1.5,-2.4c-0.5,-0.5 -0.9,-0.8 -1.5,-1.1c-0.9,-0.5 -1.8,-0.7 -2.8,-1.2c-0.3,-0.2 -0.8,-0.4 -1.1,-0.3c-0.5,0.1 -1,0.9 -1.4,1.4c-2.4,3.2 -4.6,6.5 -6.9,9.6c-1.6,2.1 -3.2,4.2 -4.5,6.5c-0.3,0.6 -0.5,1.3 -0.8,2c-0.2,0.7 -0.4,1.4 -0.6,2.2c-0.9,2.6 -1.2,5.8 -2,8.5c-0.1,0.3 -0.1,0.6 -0.2,0.9c-0.4,1.4 -0.8,3 -1.2,4.5c-0.3,1.1 -0.4,2.6 -0.5,4c0,1.4 -0.1,3.3 0.4,4.1c0.3,0.5 1.2,0.6 1.5,1.1c0.2,0.3 0.4,1 0.7,1.4c0.2,0.3 0.7,0.9 0.6,1.4c0,0.3 -0.3,0.6 -0.6,0.7c-0.3,0.1 -0.7,0.1 -1,0.2c0,0.4 0.1,0.8 -0.2,1Z" style="fill:#4e2817;"/>
                    <path d="M455.4,99c-5.7,0 -9.9,1.8 -13.8,5.8c-2.9,-4 -7.1,-5.8 -12.2,-5.8c-4.2,0 -8.5,1.7 -11.5,4.8l0,-4.2l-11.2,0l0,46l11.5,0l0,-27.8c0,-6.3 4.1,-8.4 7.7,-8.4c3.6,0 7.6,2.1 7.6,8.4l0,27.8l11.5,0l0,-28.1c0,-6 4.2,-8.1 7.7,-8.1c3.6,0 7.6,2.1 7.6,8.4l0,27.8l11.5,0l0,-29.4c0,-5 -1.3,-9.4 -5,-13.1c-2.7,-2.6 -6.8,-4.1 -11.4,-4.1Z" style="fill:#f26922;fill-rule:nonzero;"/>
                    <path d="M505.3,127.4c0,6.3 -4.1,8.4 -7.7,8.4c-3.6,0 -7.6,-2.1 -7.6,-8.4l0,-27.9l-11.5,0l0,29.5c0,5 1,9.4 4.7,13.1c2.6,2.6 6.3,4.1 10.9,4.1c4.2,0 8.5,-1.6 11.5,-4.8l0,4.2l11.2,0l0,-46l-11.5,0l0,27.8Z" style="fill:#f26922;fill-rule:nonzero;"/>
                    <path d="M535.6,131.7l0,-49l-11.5,0l0,49.7c0,6.5 4,13.2 13.4,13.2l6.5,0l0,-9.7l-4.4,0c-2.9,0 -4,-1.4 -4,-4.2Z" style="fill:#f26922;fill-rule:nonzero;"/>
                    <path d="M586.2,121c0,-12.6 -7.2,-22 -20.1,-22c-11.9,0 -20.1,8.5 -20.1,23.5c0,18.6 10.4,23.6 21.3,23.6c8.3,0 12.8,-2.6 17.5,-7.2l-7,-6.8c-2.9,2.9 -5.4,4.3 -10.4,4.3c-6.5,0 -10.1,-4.3 -10.1,-10.2l28.8,0l0,-5.2l0.1,0Zm-28.8,-2.7c0.1,-2 0.4,-3.3 1.1,-4.9c1.2,-2.7 3.8,-4.8 7.7,-4.8c3.9,0 6.4,2 7.7,4.8c0.7,1.7 1,2.9 1.1,4.9l-17.6,0Z" style="fill:#f26922;fill-rule:nonzero;"/>
                </g>
            </g>
        </g>
    </g>
</svg>
