<?xml version="1.0" encoding="UTF-8" standalone="no"?><!DOCTYPE svg PUBLIC "-//W3C//DTD SVG 1.1//EN" "http://www.w3.org/Graphics/SVG/1.1/DTD/svg11.dtd"><svg width="100%" height="100%" viewBox="0 0 998 998" version="1.1" xmlns="http://www.w3.org/2000/svg" xmlns:xlink="http://www.w3.org/1999/xlink" xml:space="preserve" xmlns:serif="http://www.serif.com/" style="fill-rule:evenodd;clip-rule:evenodd;stroke-linejoin:round;stroke-miterlimit:2;"><rect id="Sponsor-logos" serif:id="Sponsor logos" x="-1001.5" y="-344.5" width="2937.87" height="3510.43" style="fill:none;"/><clipPath id="_clip1"><rect id="_01-1-TechTaboo-lgoo-default" serif:id="01-1 TechTaboo lgoo default" x="105.007" y="100.402" width="787.397" height="796.585"/></clipPath><g clip-path="url(#_clip1)"><g><rect x="105.007" y="22.788" width="787.397" height="951.811"/><g><g><path d="M353.865,782.224l-22.369,0l0,-49.212l-18.455,0l0,-21.251l59.279,0l0,21.251l-18.455,0l0,49.212Zm55.141,-46.975l-4.473,16.777l8.947,0l-4.474,-16.777Zm-9.506,34.672l-3.356,12.303l-24.047,0l23.488,-70.463l26.843,0l23.488,70.463l-24.047,0l-3.356,-12.303l-19.013,0Zm105.472,-25.165c2.535,0.895 4.772,2.125 6.71,3.691c1.715,1.342 3.263,3.169 4.642,5.48c1.38,2.312 2.069,5.22 2.069,8.724c0,2.684 -0.54,5.201 -1.622,7.55c-1.081,2.349 -2.665,4.418 -4.753,6.207c-2.088,1.79 -4.604,3.206 -7.55,4.25c-2.945,1.044 -6.319,1.566 -10.122,1.566l-36.909,0l0,-70.463l34.672,0c3.803,0 7.159,0.485 10.067,1.454c2.908,0.969 5.35,2.274 7.325,3.915c1.976,1.64 3.486,3.542 4.53,5.704c1.044,2.162 1.566,4.436 1.566,6.823c0,2.833 -0.559,5.2 -1.678,7.102c-1.118,1.901 -2.348,3.448 -3.691,4.641c-1.565,1.343 -3.318,2.461 -5.256,3.356Zm-25.166,-6.152l6.711,0c1.715,0 3.076,-0.484 4.082,-1.454c1.007,-0.969 1.51,-2.162 1.51,-3.579c0,-1.417 -0.503,-2.61 -1.51,-3.579c-1.006,-0.969 -2.367,-1.454 -4.082,-1.454l-6.711,0l0,10.066Zm8.389,26.843c1.938,0 3.448,-0.503 4.53,-1.51c1.081,-1.006 1.621,-2.367 1.621,-4.082c0,-1.715 -0.54,-3.076 -1.621,-4.082c-1.082,-1.007 -2.592,-1.51 -4.53,-1.51l-8.389,0l0,11.184l8.389,0Zm89.813,-18.454c0,-2.088 -0.391,-4.045 -1.174,-5.872c-0.783,-1.827 -1.845,-3.43 -3.188,-4.81c-1.342,-1.379 -2.889,-2.46 -4.641,-3.243c-1.752,-0.783 -3.598,-1.175 -5.537,-1.175c-1.938,0 -3.784,0.392 -5.536,1.175c-1.752,0.783 -3.299,1.864 -4.642,3.243c-1.342,1.38 -2.404,2.983 -3.187,4.81c-0.783,1.827 -1.175,3.784 -1.175,5.872c0,2.087 0.392,4.045 1.175,5.872c0.783,1.826 1.845,3.43 3.187,4.809c1.343,1.379 2.89,2.461 4.642,3.244c1.752,0.782 3.598,1.174 5.536,1.174c1.939,0 3.785,-0.392 5.537,-1.174c1.752,-0.783 3.299,-1.865 4.641,-3.244c1.343,-1.379 2.405,-2.983 3.188,-4.809c0.783,-1.827 1.174,-3.785 1.174,-5.872Zm22.37,0c0,5.07 -0.951,9.805 -2.852,14.204c-1.902,4.399 -4.511,8.239 -7.83,11.52c-3.318,3.281 -7.232,5.872 -11.743,7.774c-4.512,1.901 -9.34,2.852 -14.485,2.852c-5.144,0 -9.972,-0.951 -14.484,-2.852c-4.511,-1.902 -8.425,-4.493 -11.743,-7.774c-3.319,-3.281 -5.928,-7.121 -7.83,-11.52c-1.901,-4.399 -2.852,-9.134 -2.852,-14.204c0,-4.996 0.951,-9.712 2.852,-14.149c1.902,-4.436 4.511,-8.295 7.83,-11.576c3.318,-3.281 7.232,-5.872 11.743,-7.773c4.512,-1.902 9.34,-2.852 14.484,-2.852c5.145,0 9.973,0.95 14.485,2.852c4.511,1.901 8.425,4.492 11.743,7.773c3.319,3.281 5.928,7.14 7.83,11.576c1.901,4.437 2.852,9.153 2.852,14.149Zm60.733,0c0,-2.088 -0.391,-4.045 -1.174,-5.872c-0.783,-1.827 -1.845,-3.43 -3.188,-4.81c-1.342,-1.379 -2.889,-2.46 -4.641,-3.243c-1.752,-0.783 -3.598,-1.175 -5.537,-1.175c-1.938,0 -3.784,0.392 -5.536,1.175c-1.752,0.783 -3.299,1.864 -4.642,3.243c-1.342,1.38 -2.404,2.983 -3.187,4.81c-0.783,1.827 -1.175,3.784 -1.175,5.872c0,2.087 0.392,4.045 1.175,5.872c0.783,1.826 1.845,3.43 3.187,4.809c1.343,1.379 2.89,2.461 4.642,3.244c1.752,0.782 3.598,1.174 5.536,1.174c1.939,0 3.785,-0.392 5.537,-1.174c1.752,-0.783 3.299,-1.865 4.641,-3.244c1.343,-1.379 2.405,-2.983 3.188,-4.809c0.783,-1.827 1.174,-3.785 1.174,-5.872Zm22.37,0c0,5.07 -0.951,9.805 -2.852,14.204c-1.902,4.399 -4.512,8.239 -7.83,11.52c-3.318,3.281 -7.232,5.872 -11.744,7.774c-4.511,1.901 -9.339,2.852 -14.484,2.852c-5.145,0 -9.973,-0.951 -14.484,-2.852c-4.511,-1.902 -8.425,-4.493 -11.744,-7.774c-3.318,-3.281 -5.927,-7.121 -7.829,-11.52c-1.901,-4.399 -2.852,-9.134 -2.852,-14.204c0,-4.996 0.951,-9.712 2.852,-14.149c1.902,-4.436 4.511,-8.295 7.829,-11.576c3.319,-3.281 7.233,-5.872 11.744,-7.773c4.511,-1.902 9.339,-2.852 14.484,-2.852c5.145,0 9.973,0.95 14.484,2.852c4.512,1.901 8.426,4.492 11.744,7.773c3.318,3.281 5.928,7.14 7.83,11.576c1.901,4.437 2.852,9.153 2.852,14.149Z" style="fill:#ec2744;fill-rule:nonzero;"/><path d="M411.466,616.692l0,21.251l-18.455,0l0,49.212l-22.369,0l0,-49.212l-18.455,0l0,-21.251l59.279,0Zm69.122,0l0,19.014l-32.435,0l0,6.71l29.639,0l0,17.896l-29.639,0l0,7.829l33.553,0l0,19.014l-55.923,0l0,-70.463l54.805,0Zm49.549,50.331c2.237,0 4.12,-0.392 5.648,-1.175c1.529,-0.783 2.815,-1.696 3.859,-2.74c1.118,-1.118 2.051,-2.423 2.796,-3.915l22.369,2.237c-1.118,4.996 -3.131,9.47 -6.039,13.422c-1.268,1.715 -2.759,3.374 -4.474,4.977c-1.715,1.603 -3.728,3.02 -6.04,4.25c-2.311,1.23 -4.958,2.237 -7.941,3.02c-2.982,0.783 -6.375,1.174 -10.178,1.174c-5.145,0 -9.973,-0.95 -14.484,-2.852c-4.511,-1.901 -8.426,-4.492 -11.744,-7.773c-3.318,-3.281 -5.928,-7.121 -7.829,-11.52c-1.901,-4.399 -2.852,-9.134 -2.852,-14.205c0,-4.995 0.951,-9.712 2.852,-14.148c1.901,-4.437 4.511,-8.295 7.829,-11.576c3.318,-3.281 7.233,-5.872 11.744,-7.774c4.511,-1.901 9.339,-2.852 14.484,-2.852c3.803,0 7.196,0.392 10.178,1.175c2.983,0.783 5.63,1.789 7.941,3.02c2.312,1.23 4.325,2.665 6.04,4.306c1.715,1.64 3.206,3.281 4.474,4.921c2.908,3.952 4.921,8.426 6.039,13.421l-22.369,2.237c-0.745,-1.416 -1.678,-2.721 -2.796,-3.914c-1.044,-0.97 -2.33,-1.864 -3.859,-2.685c-1.528,-0.82 -3.411,-1.23 -5.648,-1.23c-1.939,0 -3.784,0.392 -5.536,1.175c-1.753,0.782 -3.3,1.864 -4.642,3.243c-1.342,1.38 -2.405,2.983 -3.188,4.809c-0.782,1.827 -1.174,3.785 -1.174,5.872c0,2.088 0.392,4.045 1.174,5.872c0.783,1.827 1.846,3.43 3.188,4.81c1.342,1.379 2.889,2.46 4.642,3.243c1.752,0.783 3.597,1.175 5.536,1.175Zm113.302,-50.331l0,70.463l-22.37,0l0,-25.165l-21.251,0l0,25.165l-22.369,0l0,-70.463l22.369,0l0,24.047l21.251,0l0,-24.047l22.37,0Z" style="fill:#fff;fill-rule:nonzero;"/></g><g><path d="M499.265,407.514l0,155.517l-77.174,-38.612l0,-78.293l77.174,-38.612Z" style="fill:#575757;"/><path d="M499.265,329.571l77.174,38.263l0,78.292l-77.174,-38.262l0,-78.293Z" style="fill:#575757;"/><path d="M344.358,328.967l77.733,38.867l0,78.292l-77.733,-38.866l0,-78.293Z" style="fill:#575757;"/><path d="M576.439,214.045l77.733,38.867l-76.796,38.027l76.796,38.028l-77.733,38.867l-77.174,-38.216l-77.174,38.216l-77.733,-38.867l76.796,-38.028l-76.796,-38.027l77.733,-38.867l77.174,38.215l77.174,-38.215Z" style="fill:#ec2744;"/></g></g></g></g></svg>