<svg xmlns="http://www.w3.org/2000/svg" fill-rule="evenodd" stroke-linejoin="round" stroke-miterlimit="2" clip-rule="evenodd" viewBox="0 0 998 998">
  <defs/>
  <path fill="none" d="M-1001.5-344.5h2937.9v3510.4h-2937.9z"/>
  <g fill-rule="nonzero">
    <path fill="#efc418" d="M701.2 321.6l-47.9 10.5 9.9 45 47.8-10.5-9.8-45zM828.5 404.6c-4.5-1.6-9-2-13.5-1-5 1.1-8.3 2.8-9.9 5-1.7 2.1-2.2 5-1.4 8.4.8 3.4 3.1 6 7.1 7.5 4 1.7 8.8 3 14.6 4.1l18.8 3.7a79.9 79.9 0 0119.4 6.6c3.7 1.8 7 4 10.3 6.7l-6.4-44.8-25.7 15.2a32 32 0 00-13.3-11.4z"/>
    <path fill="#efc418" d="M864.7 530.4a73.5 73.5 0 01-23.8 9.5 71.3 71.3 0 01-40.1-1.5 63.5 63.5 0 01-31-25.9l30.4-22.3c4.7 6.2 10 10.2 15.7 12.2 5.7 1.9 10.8 2.3 15.4 1.3 8.6-1.9 12-6.6 10.4-14.1-.8-3.7-3.2-6.3-7.4-8-4-1.8-9-3.2-14.6-4.5-5.7-1.2-12-2.4-18.8-3.6a70.1 70.1 0 01-19.4-6.5 47.5 47.5 0 01-27-34.8 52 52 0 01-.4-21.3 46.4 46.4 0 018.4-19 58.3 58.3 0 0125.2-19.2L614 397.4l18.3 128.4 35-7.7 11.9 54-39.1 8.5 4.3 30.7 46.7-6.6-6-19.8c6.7-2.3 11.2-5.9 13.7-10.6 2.4-4.7 2.5-12.2.3-22.6l-33-150.6 52.6-11.6 33 150.3c4.9 22.2 3 40.2-5.7 54.1l-2.3 3.2 148.6-21-9.1-64-1.8 2.8c-4.4 6-10 11.2-16.8 15.5zM865.3 385.2l-3.3-23-29.4 4.1a58 58 0 0132.7 18.8z"/>
    <path fill="#3f3f40" d="M155.3 667.2c-10-10.2-16.7-26.3-19.8-48.4l-11.3-79.2L112 537l9.2 138.8 41.6-2.8a36.3 36.3 0 01-7.5-5.8zM267 665.4l-27.2-190.8 60.6-8.6 27.1 190.7-60.6 8.7zm341.5-48.6l-55.3 7.9-16.8-117.9c-1.3-9.4-3.6-16-7-19.9-3.3-3.8-7.9-5.3-13.9-4.4A16 16 0 00504 490c-2.8 4.3-3.5 11.6-2 21.7l16.7 118-60.6 8.5-16.8-117.9c-1.4-10.1-3.8-17-7.2-20.4a14 14 0 00-12.5-4c-4 .5-7.4 2.1-10.3 4.8-3 2.7-5.1 6-6.6 10l18.9 132.4-60.7 8.6-27-190.7 53.8-7.7 2.4 16.8.8-.2a56.8 56.8 0 0142.4-26.9c19-2.7 34.4 3.3 45.8 17.8a72 72 0 0119.8-20.6c7.8-5.4 17-8.9 27.8-10.4 18.5-2.6 33.6 1.3 45.3 12 11.6 10.6 19.3 29.3 23 56l7 48.2-9.8-147.3-303.5 20 3 20.6-55 7.8-3.6-24.7-130 8.7 4 61.3 11.2-2.7 8.4-52.7 41.7-6 7.4 52.4 35.3-5 6.3 44.3-35.3 5 12.1 85.5a20 20 0 007.1 13.8c3.9 3 9 4 15.5 3.1 4-.5 8-1.8 12.3-3.6l9.5 37a89.9 89.9 0 01-8.5 5l378.3-25.1-1.8-26.6z"/>
  </g>
</svg>
