<?xml version="1.0" encoding="UTF-8" standalone="no"?><!DOCTYPE svg PUBLIC "-//W3C//DTD SVG 1.1//EN" "http://www.w3.org/Graphics/SVG/1.1/DTD/svg11.dtd"><svg width="100%" height="100%" viewBox="0 0 998 998" version="1.1" xmlns="http://www.w3.org/2000/svg" xmlns:xlink="http://www.w3.org/1999/xlink" xml:space="preserve" xmlns:serif="http://www.serif.com/" style="fill-rule:evenodd;clip-rule:evenodd;stroke-linejoin:round;stroke-miterlimit:2;"><rect id="Sponsor-logos" serif:id="Sponsor logos" x="-1001.5" y="-344.5" width="2937.87" height="3510.43" style="fill:none;"/><g id="Group-2"><rect id="Rectangle" x="105.007" y="104.995" width="787.397" height="787.397" style="fill:#fff;"/><g id="a_logo_tsconf-3x" serif:id="a_logo_tsconf@3x"><path id="Path" d="M282.172,177.83l433.068,0l0,435.037l-433.068,0l0,-435.037Z" style="fill:#fe272d;fill-rule:nonzero;"/><g id="Group"><path id="Shape" d="M333.532,340.442l52.78,0l0,159.49l48.523,0l0,-159.49l52.78,0l0,-38.673l-154.083,0l0,38.673Zm337.515,97.753c0,33.727 -26.747,61.737 -74.425,61.737c-43.899,0 -78.204,-21.436 -79.658,-62.022l52.911,0c1.454,15.434 11.339,22.865 25.293,22.865c14.536,0 23.839,-7.145 23.839,-18.864c0,-37.156 -102.043,-17.149 -101.461,-88.317c0,-38.014 31.688,-59.164 74.424,-59.164c44.481,0 74.425,21.722 76.46,60.021l-53.783,0c-0.873,-12.862 -10.176,-20.579 -23.549,-20.865c-11.919,-0.285 -20.932,5.717 -20.932,18.293c0,34.869 100.881,19.149 100.881,86.316Z" style="fill:#fff;fill-rule:nonzero;"/><path id="Shape1" serif:id="Shape" d="M282.172,691.468c0,19.147 13.307,32.549 32.175,32.549c15.221,0 26.706,-8.479 30.352,-22.337l-17.136,0c-2.643,5.47 -7.474,8.205 -13.399,8.205c-9.57,0 -16.133,-7.111 -16.133,-18.417c0,-11.305 6.563,-18.417 16.133,-18.417c5.925,0 10.756,2.735 13.399,8.206l17.136,0c-3.646,-13.859 -15.131,-22.429 -30.352,-22.429c-18.868,0 -32.175,13.494 -32.175,32.64Zm135.08,-0.091c0,-19.238 -14.492,-32.731 -32.722,-32.731c-18.138,0 -32.904,13.493 -32.904,32.731c0,19.238 14.766,32.822 32.904,32.822c18.139,0 32.722,-13.584 32.722,-32.822Zm-49.675,0c0,-11.397 6.562,-18.599 16.953,-18.599c10.209,0 16.862,7.202 16.862,18.599c0,11.214 -6.653,18.599 -16.862,18.599c-10.391,0 -16.953,-7.385 -16.953,-18.599Zm99.988,-31.82l0,39.661l-26.068,-39.661l-15.586,0l0,64.004l15.586,0l0,-39.478l26.068,39.478l15.587,0l0,-64.004l-15.587,0Zm26.889,64.004l15.586,0l0,-25.893l19.506,0l0,-12.126l-19.506,0l0,-13.494l26.068,0l0,-12.491l-41.654,0l0,64.004Zm85.679,-7.658c0,-4.832 -3.738,-8.571 -9.206,-8.571c-5.56,0 -9.297,3.739 -9.297,8.571c0,4.65 3.737,8.388 9.297,8.388c5.468,0 9.206,-3.738 9.206,-8.388Zm0,-37.108c0,-4.832 -3.738,-8.57 -9.206,-8.57c-5.56,0 -9.297,3.738 -9.297,8.57c0,4.65 3.737,8.388 9.297,8.388c5.468,0 9.206,-3.738 9.206,-8.388Zm67.904,-19.238l-39.193,0l0,64.004l39.193,0l0,-12.49l-23.607,0l0,-14.041l20.873,0l0,-12.035l-20.873,0l0,-12.947l23.607,0l0,-12.491Zm9.844,38.202l0,-38.202l15.586,0l0,38.293c0,7.568 3.738,11.944 11.12,11.944c7.383,0 11.303,-4.376 11.303,-11.944l0,-38.293l15.586,0l0,38.202c0,17.688 -12.396,26.44 -27.162,26.44c-14.857,0 -26.433,-8.752 -26.433,-26.44Z" style="fill:#fe272d;fill-rule:nonzero;"/><path id="Shape2" serif:id="Shape" d="M392.413,818.917l45.756,0l0,-12.673l-24.61,0l2.298,-1.793c10.071,-8.004 21.309,-19.034 21.309,-32.58c0,-11.214 -6.745,-20.058 -21.875,-20.058c-12.123,0 -22.605,6.929 -23.06,23.067l15.039,0c0,-6.291 2.734,-9.938 7.383,-9.938c4.74,0 6.927,3.1 6.927,7.932c0,11.215 -15.039,22.794 -29.167,34.464l0,11.579Zm52.592,-33.278c0,19.693 6.654,33.916 25.612,33.916c18.959,0 25.613,-14.223 25.613,-33.916c0,-19.511 -6.654,-33.735 -25.613,-33.735c-18.958,0 -25.612,14.224 -25.612,33.735Zm35.908,-1.089l0.004,1.089c0,10.576 -1.094,19.328 -10.3,19.328c-9.206,0 -10.299,-8.752 -10.299,-19.328l0.019,-2.166c0.178,-9.277 1.732,-16.981 10.28,-16.981c8.877,0 10.212,8.308 10.296,18.058Zm22.973,34.367l45.756,0l0,-12.673l-24.61,0l2.298,-1.793c10.071,-8.004 21.31,-19.034 21.31,-32.58c0,-11.214 -6.745,-20.058 -21.876,-20.058c-12.122,0 -22.604,6.929 -23.06,23.067l15.039,0c0,-6.291 2.735,-9.938 7.383,-9.938c4.74,0 6.927,3.1 6.927,7.932c0,11.215 -15.039,22.794 -29.167,34.464l0,11.579Zm52.592,-33.278c0,19.693 6.654,33.916 25.613,33.916c18.958,0 25.612,-14.223 25.612,-33.916c0,-19.511 -6.654,-33.735 -25.612,-33.735c-18.959,0 -25.613,14.224 -25.613,33.735Zm35.912,0l-0.046,3.328c-0.281,9.023 -2.034,16 -10.253,16c-8.877,0 -10.212,-8.138 -10.296,-18.202l-0.004,-1.126c0,-10.212 1.094,-19.147 10.3,-19.147c9.206,0 10.299,8.935 10.299,19.147Z" style="fill:#fe272d;fill-rule:nonzero;"/></g></g></g></svg>