<svg xmlns="http://www.w3.org/2000/svg" fill-rule="evenodd" stroke-linejoin="round" stroke-miterlimit="2" clip-rule="evenodd" viewBox="0 0 998 998"><defs/><path fill="none" d="M-1002-345h2938v3510h-2938z"/><clipPath id="a"><path d="M105 105h788v788H105z"/></clipPath><g fill-rule="nonzero" clip-path="url(#a)"><path fill="#34495e" d="M499 105a394 394 0 11-1 788 394 394 0 011-788"/><path fill="#41b883" d="M142 548h190l6-70 2-2 2 2 1 9v-1l3-30a2 2 0 013-3v-6l2-21 1-2c1-1 3 0 4 1l12-89a2 2 0 014 0l12 89c1-1 2-2 3-1l1 2 4 17a2 2 0 013 1l6 22 4 39h22v-23l3-18a2 2 0 014-1v-24l1-2 1-1-2-3 1-3s3-2 4-5v-3c-2-3-3-6-2-11s4-7 6-8l2-2v-8l1-2 5-44a2 2 0 015 0l5 44 2 2v10c2-8 6-16 12-21v-4l2-2v-3l1-2v-14l-2-4-1-1v-3l2-2c0-5 2-16 9-18v-1l-2-2-1-2v-1l1-2 2-2v-11l-2-3-1-1v-3l1-2 2-2v-5-1l7-20v-1l-1-1v-3l1-2 2-1v-4a7 7 0 010-11l1-11a2 2 0 015 0l1 11a7 7 0 010 11v4l1 1 2 2v3l-2 2 6 20v6l2 2v6l-4 4v9l2 2 1 1v3l-1 2-1 1c6 3 8 14 8 19l2 2v5l-3 4v13l2 2v4l1 2v4c8 4 13 19 14 21l-1 2 2 8c-1 4 1 3 1 3 0-3 2-6 5-8l3-4v-4l-1-2v-3l1-2 1-12a2 2 0 015 0l1 12 2 2v3l-2 2v4l3 3c3 2 5 5 5 9 1 2 0 5-2 7l-2 2c0 2 3 5 5 6l1 2v3l-1 2-2 2v21c2 0 3 1 3 2v14l57 8 2-48 1-1 1-2 11-107c0-2 1-3 2-3l3 3 9 107 2 3v1l3 47 176-15 3 2 28 68a360 360 0 01-715 8"/><path fill="#fff" d="M518 684l-19 32-19-32h-63l82 142 82-142h-63z"/><path fill="#34495e" d="M518 684l-19 32-19-32h-30l49 85 49-85h-30z"/><path fill="#fff" d="M749 648v-88h55v17h-36v18h30v16h-30v21h37v16h-56zm-47 1c-11 0-20-3-26-10-6-6-9-17-9-32v-47h20v49c0 9 1 15 4 18 2 4 6 5 11 5s9-1 12-5c2-3 4-9 4-18v-49h18v47c0 15-3 26-8 32-6 7-15 10-26 10zm-73 1c-6 0-12-1-17-3a38 38 0 01-22-23c-3-5-4-12-4-19s1-14 4-20a39 39 0 0123-23c5-2 10-3 16-3s11 1 16 3l11 8-10 13-7-5-10-2-9 2-7 5-5 9-2 12c0 9 2 16 7 21 4 5 10 8 18 8l5-1 4-2v-15h-14v-16h32v40c-3 3-7 6-12 8-6 2-11 3-17 3m-118-2l27-87h24l27 87h-21l-5-21h-26l-6 21h-20zm32-45l-2 8h18l-2-8a311 311 0 01-7-28 14392 14392 0 00-7 28m-87-2h10c5 0 9-1 12-4 3-2 4-5 4-9 0-5-1-8-4-9-3-2-7-3-12-3h-10v25zm-20 47v-88h31l14 1 10 5c3 2 6 5 7 8 2 4 3 8 3 13 0 7-1 12-4 16s-7 8-11 10l19 35h-21l-17-32h-11v32h-20zm-53-45h10c11 0 16-5 16-14 0-5-1-8-4-10s-7-3-13-3h-9v27zm-20 45v-88h30l14 1 11 5c3 2 6 5 8 9l2 13-2 14-8 9-11 5c-4 2-9 2-13 2h-11v30h-20z"/><path fill="#34495e" d="M321 616h24l-2-10c-2-2-5-3-9-3-3 0-6 1-8 3-3 2-4 6-5 10m15 34l-11-2a25 25 0 01-14-15l-2-12 2-11c1-4 3-7 6-9a25 25 0 0117-8l10 2 7 5 4 8a36 36 0 011 17h-35c1 5 3 8 6 11 2 3 6 4 10 4l7-1 6-3 4 8-8 4-10 2zm-65 0c-6 0-10-2-13-6-2-4-4-9-4-16v-34h13v32l2 10c1 2 3 2 6 2l6-1 6-6v-37h13v54h-10l-1-8h-1l-7 7c-3 2-7 3-10 3zm-56-2l-22-72h13l10 36a360 360 0 017 24 273 273 0 006-24l10-36h13l-22 72h-15z"/><path fill="#fff" d="M500 151l7 14 16 3a1 1 0 010 2l-11 11 3 16-1 2h-1l-14-8-14 8-2-1v-1l2-16-11-11v-2h1l15-3 7-14 2-1 1 1M633 189l6 13 15 2a1 1 0 010 2l-10 10 2 14-1 2h-1l-12-7-13 7a1 1 0 01-2-2l2-14-10-10a1 1 0 011-2l14-2 6-13a1 1 0 013 0zM738 274l5 12 14 2a1 1 0 010 2l-9 9 2 13v2h-2l-11-6-12 6h-1l-1-2 2-13-9-9a1 1 0 011-2l13-2 5-12a1 1 0 013 0zM802 390l6 11 11 1a1 1 0 011 2l-9 9 2 11a1 1 0 01-1 1l-11-5-10 5a1 1 0 01-2-1l2-11-8-9a1 1 0 010-2l12-1 5-11a1 1 0 012 0zM367 189l6 13 15 2a1 1 0 010 2l-10 10 2 15a1 1 0 01-1 1l-13-7-13 7a1 1 0 01-2-1l2-15-10-10a1 1 0 011-2l14-2 7-13a1 1 0 012 0zM262 275l6 12 13 2a1 1 0 011 1l-10 10 2 13a1 1 0 01-1 1l-12-6-12 6a1 1 0 01-2-1l3-13-10-10a1 1 0 011-1l13-2 6-12a1 1 0 012 0zM197 390l5 11 12 1a1 1 0 011 2l-9 8 2 12a1 1 0 01-1 1l-11-5-11 5a1 1 0 01-1-1l2-12-9-8a1 1 0 011-2l12-1 5-11a1 1 0 012 0z"/></g></svg>